<?xml version="1.0" encoding="UTF-8" standalone="no"?>
<!-- Created with Inkscape (http://www.inkscape.org/) -->

<svg
   xmlns:dc="http://purl.org/dc/elements/1.1/"
   xmlns:cc="http://creativecommons.org/ns#"
   xmlns:rdf="http://www.w3.org/1999/02/22-rdf-syntax-ns#"
   xmlns:svg="http://www.w3.org/2000/svg"
   xmlns="http://www.w3.org/2000/svg"
   xmlns:xlink="http://www.w3.org/1999/xlink"
   xmlns:sodipodi="http://sodipodi.sourceforge.net/DTD/sodipodi-0.dtd"
   xmlns:inkscape="http://www.inkscape.org/namespaces/inkscape"
   width="1024"
   height="1024"
   id="svg2"
   version="1.1"
   inkscape:version="0.92.2 (5c3e80d, 2017-08-06)"
   sodipodi:docname="email.svg">
  <defs
     id="defs4">
    <linearGradient
       inkscape:collect="always"
       id="linearGradient4809">
      <stop
         style="stop-color:#ffffff;stop-opacity:1;"
         offset="0"
         id="stop4805" />
      <stop
         style="stop-color:#d7d7d7;stop-opacity:1"
         offset="1"
         id="stop4807" />
    </linearGradient>
    <linearGradient
       inkscape:collect="always"
       id="linearGradient4801">
      <stop
         style="stop-color:#ffffff;stop-opacity:1;"
         offset="0"
         id="stop4797" />
      <stop
         style="stop-color:#d7d7d7;stop-opacity:1"
         offset="1"
         id="stop4799" />
    </linearGradient>
    <linearGradient
       id="linearGradient845">
      <stop
         id="stop841"
         offset="0"
         style="stop-color:#ffffff;stop-opacity:1" />
      <stop
         id="stop843"
         offset="1"
         style="stop-color:#d7d7d7;stop-opacity:1" />
    </linearGradient>
    <linearGradient
       id="linearGradient860">
      <stop
         style="stop-color:#f22c42;stop-opacity:1"
         offset="0"
         id="stop858" />
      <stop
         style="stop-color:#f76363;stop-opacity:1"
         offset="1"
         id="stop856" />
    </linearGradient>
    <linearGradient
       id="linearGradient4829">
      <stop
         style="stop-color:#ffffff;stop-opacity:1"
         offset="0"
         id="stop4831" />
      <stop
         style="stop-color:#d7d7d7;stop-opacity:1"
         offset="1"
         id="stop4833" />
    </linearGradient>
    <clipPath
       clipPathUnits="userSpaceOnUse"
       id="clipPath4282">
      <rect
         style="color:#000000;display:inline;overflow:visible;visibility:visible;fill:#4d4d4d;fill-opacity:1;fill-rule:nonzero;stroke:none;stroke-width:9.13434315;marker:none;enable-background:accumulate"
         id="rect4284"
         width="246.875"
         height="234.375"
         x="462.5"
         y="1646.1122"
         ry="17"
         rx="17" />
    </clipPath>
    <linearGradient
       inkscape:collect="always"
       xlink:href="#linearGradient845"
       id="linearGradient4835"
       x1="102.29776"
       y1="-0.42686829"
       x2="102.29776"
       y2="199.16539"
       gradientUnits="userSpaceOnUse"
       gradientTransform="matrix(5.1,0,0,5.1,2,30.362187)" />
    <linearGradient
       inkscape:collect="always"
       xlink:href="#linearGradient5423"
       id="linearGradient5429"
       x1="408.66196"
       y1="44.604382"
       x2="408.66196"
       y2="562.04968"
       gradientUnits="userSpaceOnUse" />
    <linearGradient
       id="linearGradient5423">
      <stop
         style="stop-color:#51b9db;stop-opacity:1;"
         offset="0"
         id="stop5425" />
      <stop
         style="stop-color:#2fabd4;stop-opacity:1;"
         offset="1"
         id="stop5427" />
    </linearGradient>
    <linearGradient
       inkscape:collect="always"
       xlink:href="#linearGradient860"
       id="linearGradient4564"
       gradientUnits="userSpaceOnUse"
       gradientTransform="matrix(4.7049999,0,0,4.7049999,41.000093,70.36212)"
       x1="97.425026"
       y1="-9.0071468"
       x2="97.425026"
       y2="209.86546" />
    <filter
       inkscape:collect="always"
       style="color-interpolation-filters:sRGB"
       id="filter4793"
       x="-0.035999613"
       width="1.0719992"
       y="-0.036000387"
       height="1.0720008">
      <feGaussianBlur
         inkscape:collect="always"
         stdDeviation="3.0898947"
         id="feGaussianBlur4795" />
    </filter>
    <linearGradient
       inkscape:collect="always"
       xlink:href="#linearGradient4801"
       id="linearGradient4803"
       x1="105.41001"
       y1="-101.98539"
       x2="105.41001"
       y2="308.39725"
       gradientUnits="userSpaceOnUse" />
    <linearGradient
       inkscape:collect="always"
       xlink:href="#linearGradient4809"
       id="linearGradient4811"
       x1="105.41001"
       y1="-101.98539"
       x2="105.41001"
       y2="308.39725"
       gradientUnits="userSpaceOnUse" />
  </defs>
  <sodipodi:namedview
     id="base"
     pagecolor="#ffffff"
     bordercolor="#666666"
     borderopacity="1.0"
     inkscape:pageopacity="0.0"
     inkscape:pageshadow="2"
     inkscape:zoom="0.60253906"
     inkscape:cx="512"
     inkscape:cy="512"
     inkscape:document-units="px"
     inkscape:current-layer="g999"
     showgrid="true"
     inkscape:window-width="1440"
     inkscape:window-height="838"
     inkscape:window-x="0"
     inkscape:window-y="25"
     inkscape:window-maximized="1"
     inkscape:snap-from-guide="true"
     showguides="false"
     inkscape:guide-bbox="true"
     inkscape:pagecheckerboard="true">
    <sodipodi:guide
       position="0,0"
       orientation="0,200"
       id="guide3764"
       inkscape:locked="false" />
    <sodipodi:guide
       position="200,0"
       orientation="-200,0"
       id="guide3766"
       inkscape:locked="false" />
    <sodipodi:guide
       position="200,200"
       orientation="0,-200"
       id="guide3768"
       inkscape:locked="false" />
    <sodipodi:guide
       position="0,200"
       orientation="200,0"
       id="guide3770"
       inkscape:locked="false" />
    <inkscape:grid
       type="xygrid"
       id="grid834" />
    <sodipodi:guide
       position="-340,820"
       orientation="1,0"
       id="guide862"
       inkscape:locked="false" />
  </sodipodi:namedview>
  <metadata
     id="metadata7">
    <rdf:RDF>
      <cc:Work
         rdf:about="">
        <dc:format>image/svg+xml</dc:format>
        <dc:type
           rdf:resource="http://purl.org/dc/dcmitype/StillImage" />
        <dc:title />
      </cc:Work>
    </rdf:RDF>
  </metadata>
  <g
     inkscape:label="Layer 1"
     inkscape:groupmode="layer"
     id="layer1"
     transform="translate(0,-28.36218)">
    <circle
       style="color:#000000;display:inline;overflow:visible;visibility:visible;fill:url(#linearGradient4835);fill-opacity:1;fill-rule:nonzero;stroke:none;stroke-width:46.58515167;marker:none;enable-background:accumulate"
       id="path4188"
       cx="512"
       cy="540.36218"
       r="510" />
    <circle
       r="470.5"
       cy="540.86218"
       cx="511.5"
       id="circle4562"
       style="color:#000000;display:inline;overflow:visible;visibility:visible;opacity:1;fill:url(#linearGradient4564);fill-opacity:1;fill-rule:nonzero;stroke:none;stroke-width:42.97708511;marker:none;enable-background:accumulate" />
    <g
       transform="matrix(2.4854852,0,0,2.4854852,258.00497,297.84535)"
       id="g4783"
       style="filter:url(#filter4793);opacity:0.2">
      <g
         id="g4751"
         style="">
        <path
           style="fill:#000000;fill-opacity:1"
           inkscape:connector-curvature="0"
           d="m 102.996,61.363 c 22.958,0 41.635,18.678 41.635,41.635 0,3.313 2.687,6 6,6 3.313,0 6,-2.687 6,-6 0,-29.574 -24.061,-53.635 -53.635,-53.635 -29.574,0 -53.636,24.061 -53.636,53.635 0,29.574 24.061,53.635 53.635,53.635 18.99,0 36.745,-10.195 46.336,-26.607 1.672,-2.861 0.708,-6.535 -2.153,-8.208 -2.86,-1.67 -6.535,-0.707 -8.208,2.153 -7.448,12.745 -21.233,20.662 -35.976,20.662 -22.958,0 -41.635,-18.678 -41.635,-41.635 0,-22.957 18.679,-41.635 41.637,-41.635 z"
           id="path4747" />
        <path
           style="fill:#000000;fill-opacity:1"
           inkscape:connector-curvature="0"
           d="M 205.698,95.053 C 201.938,44.994 161.372,4.271 111.339,0.326 81.095,-2.059 51.51,8.817 30.163,30.165 8.815,51.513 -2.061,81.1 0.324,111.341 c 3.931,49.847 44.483,90.399 94.329,94.329 2.747,0.217 5.484,0.323 8.214,0.323 27.329,0 53.553,-10.753 72.962,-30.161 2.343,-2.344 2.343,-6.143 0,-8.485 -2.343,-2.342 -6.142,-2.344 -8.485,-0.001 -18.862,18.861 -45.012,28.47 -71.747,26.361 -44.023,-3.471 -79.838,-39.286 -83.31,-83.31 -2.108,-26.735 7.5,-52.887 26.361,-71.747 18.861,-18.861 45.008,-28.473 71.747,-26.361 44.189,3.483 80.016,39.451 83.337,83.662 0.455,6.057 0.321,12.142 -0.397,18.086 -0.762,6.304 -4.578,11.805 -10.208,14.713 -5.095,2.633 -10.819,2.623 -15.706,-0.026 -2.913,-1.582 -6.556,-0.499 -8.134,2.415 -1.58,2.913 -0.499,6.555 2.415,8.134 8.435,4.573 18.251,4.623 26.933,0.139 9.164,-4.734 15.375,-13.682 16.613,-23.935 0.812,-6.719 0.963,-13.59 0.45,-20.424 z"
           id="path4749" />
      </g>
      <g
         id="g4753"
         style="" />
      <g
         id="g4755"
         style="" />
      <g
         id="g4757"
         style="" />
      <g
         id="g4759"
         style="" />
      <g
         id="g4761"
         style="" />
      <g
         id="g4763"
         style="" />
      <g
         id="g4765"
         style="" />
      <g
         id="g4767"
         style="" />
      <g
         id="g4769"
         style="" />
      <g
         id="g4771"
         style="" />
      <g
         id="g4773"
         style="" />
      <g
         id="g4775"
         style="" />
      <g
         id="g4777"
         style="" />
      <g
         id="g4779"
         style="" />
      <g
         id="g4781"
         style="" />
    </g>
    <g
       id="g1056"
       transform="matrix(2.4854852,0,0,2.4854852,258.00497,285.84535)">
      <g
         id="g999">
        <path
           id="path995"
           d="m 102.996,61.363 c 22.958,0 41.635,18.678 41.635,41.635 0,3.313 2.687,6 6,6 3.313,0 6,-2.687 6,-6 0,-29.574 -24.061,-53.635 -53.635,-53.635 -29.574,0 -53.636,24.061 -53.636,53.635 0,29.574 24.061,53.635 53.635,53.635 18.99,0 36.745,-10.195 46.336,-26.607 1.672,-2.861 0.708,-6.535 -2.153,-8.208 -2.86,-1.67 -6.535,-0.707 -8.208,2.153 -7.448,12.745 -21.233,20.662 -35.976,20.662 -22.958,0 -41.635,-18.678 -41.635,-41.635 0,-22.957 18.679,-41.635 41.637,-41.635 z"
           inkscape:connector-curvature="0"
           style="fill:url(#linearGradient4811);fill-opacity:1" />
        <path
           id="path997"
           d="M 205.698,95.053 C 201.938,44.994 161.372,4.271 111.339,0.326 81.095,-2.059 51.51,8.817 30.163,30.165 8.815,51.513 -2.061,81.1 0.324,111.341 c 3.931,49.847 44.483,90.399 94.329,94.329 2.747,0.217 5.484,0.323 8.214,0.323 27.329,0 53.553,-10.753 72.962,-30.161 2.343,-2.344 2.343,-6.143 0,-8.485 -2.343,-2.342 -6.142,-2.344 -8.485,-0.001 -18.862,18.861 -45.012,28.47 -71.747,26.361 -44.023,-3.471 -79.838,-39.286 -83.31,-83.31 -2.108,-26.735 7.5,-52.887 26.361,-71.747 18.861,-18.861 45.008,-28.473 71.747,-26.361 44.189,3.483 80.016,39.451 83.337,83.662 0.455,6.057 0.321,12.142 -0.397,18.086 -0.762,6.304 -4.578,11.805 -10.208,14.713 -5.095,2.633 -10.819,2.623 -15.706,-0.026 -2.913,-1.582 -6.556,-0.499 -8.134,2.415 -1.58,2.913 -0.499,6.555 2.415,8.134 8.435,4.573 18.251,4.623 26.933,0.139 9.164,-4.734 15.375,-13.682 16.613,-23.935 0.812,-6.719 0.963,-13.59 0.45,-20.424 z"
           inkscape:connector-curvature="0"
           style="fill:url(#linearGradient4803);fill-opacity:1" />
      </g>
      <g
         id="g1001" />
      <g
         id="g1003" />
      <g
         id="g1005" />
      <g
         id="g1007" />
      <g
         id="g1009" />
      <g
         id="g1011" />
      <g
         id="g1013" />
      <g
         id="g1015" />
      <g
         id="g1017" />
      <g
         id="g1019" />
      <g
         id="g1021" />
      <g
         id="g1023" />
      <g
         id="g1025" />
      <g
         id="g1027" />
      <g
         id="g1029" />
    </g>
  </g>
</svg>
