<?xml version="1.0" encoding="UTF-8" standalone="no"?>
<!-- Generator: flash2svg, http://dissentgraphics.com/tools/flash2svg -->

<svg
   xmlns:dc="http://purl.org/dc/elements/1.1/"
   xmlns:cc="http://creativecommons.org/ns#"
   xmlns:rdf="http://www.w3.org/1999/02/22-rdf-syntax-ns#"
   xmlns:svg="http://www.w3.org/2000/svg"
   xmlns="http://www.w3.org/2000/svg"
   xmlns:xlink="http://www.w3.org/1999/xlink"
   xmlns:sodipodi="http://sodipodi.sourceforge.net/DTD/sodipodi-0.dtd"
   xmlns:inkscape="http://www.inkscape.org/namespaces/inkscape"
   id="Preview"
   image-rendering="optimizeSpeed"
   version="1.1"
   style="background-color:#FFFFFF"
   x="0px"
   y="0px"
   width="1024px"
   height="1024px"
   viewBox="0 0 1024 1024"
   enable-background="new 0 0 1024 1024"
   sodipodi:docname="eog2.svg"
   inkscape:version="0.92.3 (2405546, 2018-03-11)">
  <metadata
     id="metadata61">
    <rdf:RDF>
      <cc:Work
         rdf:about="">
        <dc:format>image/svg+xml</dc:format>
        <dc:type
           rdf:resource="http://purl.org/dc/dcmitype/StillImage" />
        <dc:title />
      </cc:Work>
    </rdf:RDF>
  </metadata>
  <sodipodi:namedview
     pagecolor="#ffffff"
     bordercolor="#666666"
     borderopacity="1"
     objecttolerance="10"
     gridtolerance="10"
     guidetolerance="10"
     inkscape:pageopacity="0"
     inkscape:pageshadow="2"
     inkscape:window-width="1920"
     inkscape:window-height="851"
     id="namedview59"
     showgrid="true"
     inkscape:pagecheckerboard="true"
     inkscape:zoom="0.60253906"
     inkscape:cx="236.49919"
     inkscape:cy="438.00328"
     inkscape:window-x="0"
     inkscape:window-y="25"
     inkscape:window-maximized="1"
     inkscape:current-layer="g4822">
    <inkscape:grid
       type="xygrid"
       id="grid879" />
  </sodipodi:namedview>
  <defs
     transform="matrix(1 0 0 1 0 0) "
     id="defs2">
    <linearGradient
       id="linearGradient1135"
       inkscape:collect="always">
      <stop
         style="stop-color:#0077e1;stop-opacity:1"
         offset="0"
         id="stop1133" />
      <stop
         style="stop-color:#0dbeea;stop-opacity:1"
         offset="1"
         id="stop1131" />
    </linearGradient>
    <linearGradient
       inkscape:collect="always"
       id="linearGradient875">
      <stop
         style="stop-color:#ffffff;stop-opacity:1;"
         offset="0"
         id="stop871" />
      <stop
         style="stop-color:#d7d7d7;stop-opacity:1"
         offset="1"
         id="stop873" />
    </linearGradient>
    <linearGradient
       inkscape:collect="always"
       xlink:href="#linearGradient875"
       id="linearGradient877"
       x1="520"
       y1="4"
       x2="520"
       y2="1024"
       gradientUnits="userSpaceOnUse" />
    <circle
       id="SVGID_1_"
       r="15.999"
       cy="-31.965"
       cx="73.957001" />
    <linearGradient
       inkscape:collect="always"
       xlink:href="#linearGradient1135"
       id="linearGradient1081"
       x1="519.20001"
       y1="1024.8"
       x2="519.20001"
       y2="4.8000002"
       gradientUnits="userSpaceOnUse"
       gradientTransform="matrix(0.9972446,0,0,0.99719176,0.91076708,1.9627512)" />
    <filter
       inkscape:collect="always"
       style="color-interpolation-filters:sRGB"
       id="filter4836"
       x="-0.029912537"
       width="1.0598251"
       y="-0.045198236"
       height="1.0903965">
      <feGaussianBlur
         inkscape:collect="always"
         stdDeviation="8.0675109"
         id="feGaussianBlur4838" />
    </filter>
  </defs>
  <g
     id="shadow"
     transform="matrix(0.99609375,0,0,0.99609375,2,2)">
    <g
       id="shape">
      <path
         id="path"
         d="m 986.739,315.98644 q -9.3288,-22.61695 -21.0441,-44.31186 c -4.3932,-8.18983 -9.0576,-16.32543 -13.9932,-24.29831 C 930.49492,212.98983 904.62373,180.50169 874.08814,149.9661 774.12881,50.00678 653.39661,0 512,0 370.60339,0 249.92542,50.00678 149.9661,149.9661 50.00678,249.92542 0,370.60339 0,512 0,653.39661 50.00678,774.12881 149.9661,874.08814 249.92542,974.04746 370.60339,1024 512,1024 653.39661,1024 774.12881,974.04746 874.08814,874.08814 929.13898,818.98305 969.0576,757.58644 993.7898,689.95254 1013.9119,634.79322 1024,575.51186 1024,512 c 0,-48.70508 -5.9119,-94.96949 -17.7898,-138.79322 -1.356,-4.93559 -2.7661,-9.87119 -4.2305,-14.75254 -4.4475,-14.42712 -9.5458,-28.58305 -15.2407,-42.4678 z"
         style="fill:url(#linearGradient877);fill-opacity:1;stroke-width:1.08474576"
         inkscape:connector-curvature="0" />
    </g>
  </g>
  <path
     id="path1"
     d="M 797.7092,139.12648 Q 737.17646,92.507762 665.27512,67.677688 590.9804,42 511.54986,42 C 251.66792,42 41,252.65675 41,512.52493 c 0,237.73051 176.36271,434.17729 405.33007,465.93785 11.16914,1.54565 22.48786,2.74228 33.85645,3.44031 C 490.55787,982.55126 500.97907,983 511.54986,983 771.38195,983 982,772.34324 982,512.52493 c 0,-20.54215 -1.29641,-40.835 -3.83939,-60.62925 -2.94187,-23.13486 -7.72864,-45.62153 -13.8617,-67.50989 Q 943.4565,310.8429 900.27581,247.52123 857.59374,185.14688 797.7092,139.12648 Z"
     style="fill:url(#linearGradient1081);fill-opacity:1;stroke-width:0.99721819"
     inkscape:connector-curvature="0" />
  <g
     id="g4814"
     style="opacity:0.2;filter:url(#filter4836)"
     transform="translate(0,10)">
    <path
       transform="rotate(92.503139,444.60149,457.74468)"
       inkscape:transform-center-y="0.66528092"
       inkscape:transform-center-x="-11.579967"
       d="M 699.47443,715.24356 499.21163,610.86534 298.94884,506.48712 489.47443,385.24356 680.00001,264 l 9.73721,225.62179 z"
       inkscape:randomized="0"
       inkscape:rounded="0"
       inkscape:flatsided="false"
       sodipodi:arg2="2.0512647"
       sodipodi:arg1="1.0040671"
       sodipodi:r2="130.38405"
       sodipodi:r1="260.7681"
       sodipodi:cy="495.24356"
       sodipodi:cx="559.47443"
       sodipodi:sides="3"
       id="path4801"
       style="opacity:0.5;fill:#000000;fill-opacity:1;stroke:none;stroke-opacity:1"
       sodipodi:type="star" />
    <path
       sodipodi:type="star"
       style="opacity:1;fill:#000000;fill-opacity:1;stroke:none;stroke-opacity:1"
       id="path4805"
       sodipodi:sides="3"
       sodipodi:cx="559.47443"
       sodipodi:cy="495.24356"
       sodipodi:r1="260.7681"
       sodipodi:r2="130.38405"
       sodipodi:arg1="1.0040671"
       sodipodi:arg2="2.0512647"
       inkscape:flatsided="false"
       inkscape:rounded="0"
       inkscape:randomized="0"
       d="M 699.47443,715.24356 499.21163,610.86534 298.94884,506.48712 489.47443,385.24356 680.00001,264 l 9.73721,225.62179 z"
       inkscape:transform-center-x="-9.3551582"
       inkscape:transform-center-y="0.53746341"
       transform="matrix(-0.03528306,0.8071003,-0.8071003,-0.03528306,1019.3337,160.58872)" />
    <circle
       r="60"
       cy="333.00009"
       cx="763.50494"
       id="path4809"
       style="opacity:1;fill:#000000;fill-opacity:1;stroke:none;stroke-opacity:1" />
  </g>
  <g
     id="g4822">
    <path
       sodipodi:type="star"
       style="opacity:1;fill:#3ac1ff;fill-opacity:1;stroke:none;stroke-opacity:1"
       id="path4816"
       sodipodi:sides="3"
       sodipodi:cx="559.47443"
       sodipodi:cy="495.24356"
       sodipodi:r1="260.7681"
       sodipodi:r2="130.38405"
       sodipodi:arg1="1.0040671"
       sodipodi:arg2="2.0512647"
       inkscape:flatsided="false"
       inkscape:rounded="0"
       inkscape:randomized="0"
       d="M 699.47443,715.24356 499.21163,610.86534 298.94884,506.48712 489.47443,385.24356 680.00001,264 l 9.73721,225.62179 z"
       inkscape:transform-center-x="-11.579967"
       inkscape:transform-center-y="0.66528092"
       transform="rotate(92.503139,444.60149,457.74468)" />
    <path
       transform="matrix(-0.03528306,0.8071003,-0.8071003,-0.03528306,1019.3337,160.58872)"
       inkscape:transform-center-y="0.53746341"
       inkscape:transform-center-x="-9.3551582"
       d="M 699.47443,715.24356 499.21163,610.86534 298.94884,506.48712 489.47443,385.24356 680.00001,264 l 9.73721,225.62179 z"
       inkscape:randomized="0"
       inkscape:rounded="0"
       inkscape:flatsided="false"
       sodipodi:arg2="2.0512647"
       sodipodi:arg1="1.0040671"
       sodipodi:r2="130.38405"
       sodipodi:r1="260.7681"
       sodipodi:cy="495.24356"
       sodipodi:cx="559.47443"
       sodipodi:sides="3"
       id="path4818"
       style="opacity:1;fill:#abe4ff;fill-opacity:1;stroke:none;stroke-opacity:1"
       sodipodi:type="star" />
    <circle
       style="opacity:1;fill:#abe4ff;fill-opacity:1;stroke:none;stroke-opacity:1"
       id="circle4820"
       cx="763.50494"
       cy="333.00009"
       r="60" />
  </g>
</svg>
