<?xml version="1.0" encoding="UTF-8" standalone="no"?>
<!-- Generator: flash2svg, http://dissentgraphics.com/tools/flash2svg -->

<svg
   xmlns:dc="http://purl.org/dc/elements/1.1/"
   xmlns:cc="http://creativecommons.org/ns#"
   xmlns:rdf="http://www.w3.org/1999/02/22-rdf-syntax-ns#"
   xmlns:svg="http://www.w3.org/2000/svg"
   xmlns="http://www.w3.org/2000/svg"
   xmlns:xlink="http://www.w3.org/1999/xlink"
   xmlns:sodipodi="http://sodipodi.sourceforge.net/DTD/sodipodi-0.dtd"
   xmlns:inkscape="http://www.inkscape.org/namespaces/inkscape"
   id="Gimp"
   image-rendering="optimizeSpeed"
   version="1.1"
   style="background-color:#ffffff"
   x="0px"
   y="0px"
   width="1024px"
   height="1024px"
   viewBox="0 0 1024 1024"
   enable-background="new 0 0 1024 1024"
   sodipodi:docname="gimp.svg"
   inkscape:version="0.92.3 (2405546, 2018-03-11)">
  <metadata
     id="metadata58">
    <rdf:RDF>
      <cc:Work
         rdf:about="">
        <dc:format>image/svg+xml</dc:format>
        <dc:type
           rdf:resource="http://purl.org/dc/dcmitype/StillImage" />
        <dc:title />
      </cc:Work>
    </rdf:RDF>
  </metadata>
  <sodipodi:namedview
     pagecolor="#ffffff"
     bordercolor="#666666"
     borderopacity="1"
     objecttolerance="10"
     gridtolerance="10"
     guidetolerance="10"
     inkscape:pageopacity="0"
     inkscape:pageshadow="2"
     inkscape:window-width="1920"
     inkscape:window-height="850"
     id="namedview56"
     showgrid="true"
     inkscape:zoom="0.6171875"
     inkscape:cx="512"
     inkscape:cy="530.95587"
     inkscape:window-x="0"
     inkscape:window-y="25"
     inkscape:window-maximized="1"
     inkscape:current-layer="ico-shadow"
     inkscape:pagecheckerboard="true">
    <inkscape:grid
       type="xygrid"
       id="grid868" />
  </sodipodi:namedview>
  <defs
     transform="matrix(1 0 0 1 0 0) "
     id="defs2">
    <linearGradient
       id="linearGradient922"
       inkscape:collect="always">
      <stop
         id="stop918"
         offset="0"
         style="stop-color:#55504b;stop-opacity:1" />
      <stop
         id="stop920"
         offset="1"
         style="stop-color:#323232;stop-opacity:1" />
    </linearGradient>
    <linearGradient
       inkscape:collect="always"
       id="linearGradient871">
      <stop
         style="stop-color:#ffffff;stop-opacity:1"
         offset="0"
         id="stop867" />
      <stop
         style="stop-color:#d7d7d7;stop-opacity:1"
         offset="1"
         id="stop869" />
    </linearGradient>
    <linearGradient
       inkscape:collect="always"
       id="linearGradient870">
      <stop
         style="stop-color:#6b4f35;stop-opacity:1"
         offset="0"
         id="stop866" />
      <stop
         style="stop-color:#323232;stop-opacity:1"
         offset="1"
         id="stop868" />
    </linearGradient>
    <linearGradient
       inkscape:collect="always"
       xlink:href="#linearGradient870"
       id="linearGradient872"
       x1="520"
       y1="44"
       x2="520"
       y2="984"
       gradientUnits="userSpaceOnUse" />
    <linearGradient
       inkscape:collect="always"
       xlink:href="#linearGradient871"
       id="linearGradient873"
       x1="540.1098"
       y1="2.0078433"
       x2="520.03137"
       y2="1026.0078"
       gradientUnits="userSpaceOnUse" />
    <radialGradient
       inkscape:collect="always"
       xlink:href="#linearGradient4657"
       id="radialGradient6921"
       cx="100"
       cy="82.38073"
       fx="100"
       fy="82.38073"
       r="100"
       gradientUnits="userSpaceOnUse"
       gradientTransform="matrix(4.7234511,0,0,3.5474704,-21.082323,116.87532)" />
    <linearGradient
       id="linearGradient4657">
      <stop
         id="stop4653"
         offset="0"
         style="stop-color:#ffffff;stop-opacity:1" />
      <stop
         id="stop4655"
         offset="1"
         style="stop-color:#ffffff;stop-opacity:0;" />
    </linearGradient>
    <filter
       inkscape:collect="always"
       style="color-interpolation-filters:sRGB"
       id="filter890"
       x="-0.036022041"
       width="1.0720441"
       y="-0.035977986"
       height="1.071956">
      <feGaussianBlur
         inkscape:collect="always"
         stdDeviation="14.709"
         id="feGaussianBlur892" />
    </filter>
    <linearGradient
       inkscape:collect="always"
       xlink:href="#linearGradient871"
       id="linearGradient900"
       x1="572.20001"
       y1="-63.500038"
       x2="572.20001"
       y2="916.49994"
       gradientUnits="userSpaceOnUse" />
    <radialGradient
       inkscape:collect="always"
       xlink:href="#linearGradient922"
       id="radialGradient902"
       cx="511.49805"
       cy="512.50195"
       fx="511.49805"
       fy="512.50195"
       r="472.34509"
       gradientTransform="translate(0,2.8116291e-6)"
       gradientUnits="userSpaceOnUse" />
  </defs>
  <g
     id="shadow"
     transform="matrix(0.99609375,0,0,0.99609375,2,2)">
    <g
       id="shape">
      <path
         id="path"
         d="m 986.739,315.98644 q -9.3288,-22.61695 -21.0441,-44.31186 c -4.3932,-8.18983 -9.0576,-16.32543 -13.9932,-24.29831 C 930.49492,212.98983 904.62373,180.50169 874.08814,149.9661 774.12881,50.00678 653.39661,0 512,0 370.60339,0 249.92542,50.00678 149.9661,149.9661 50.00678,249.92542 0,370.60339 0,512 0,653.39661 50.00678,774.12881 149.9661,874.08814 249.92542,974.04746 370.60339,1024 512,1024 653.39661,1024 774.12881,974.04746 874.08814,874.08814 929.13898,818.98305 969.0576,757.58644 993.7898,689.95254 1013.9119,634.79322 1024,575.51186 1024,512 c 0,-48.70508 -5.9119,-94.96949 -17.7898,-138.79322 -1.356,-4.93559 -2.7661,-9.87119 -4.2305,-14.75254 -4.4475,-14.42712 -9.5458,-28.58305 -15.2407,-42.4678 z"
         style="fill:url(#linearGradient873);fill-opacity:1;stroke-width:1.08474576"
         inkscape:connector-curvature="0" />
    </g>
  </g>
  <g
     id="ico-shadow"
     style="fill:url(#linearGradient872);fill-opacity:1"
     transform="matrix(0.99609375,0,0,0.99609375,2,2)">
    <path
       inkscape:connector-curvature="0"
       style="fill:url(#radialGradient902);fill-opacity:1;stroke-width:0.99761933"
       d="M 726.12671,93.198487 C 717.44764,88.858734 708.31965,84.568864 698.94226,80.528405 690.36295,76.787239 681.83351,73.345366 673.10456,70.152904 631.10584,54.440006 589.05723,44.862621 546.95875,41.570395 477.72569,35.983587 408.343,46.957674 338.56127,74.492656 c -23.39359,9.278093 -45.54019,19.853122 -66.43979,31.824854 -41.20065,23.64418 -77.41333,52.52597 -108.239,86.49576 q -51.47587,56.46667 -84.346605,132.23776 c -20.201287,46.5401 -32.770977,93.22986 -37.758949,139.32102 -0.448918,4.43952 -0.847956,8.57974 -1.197114,12.71996 -3.691099,45.49259 -0.199519,90.53623 10.225343,135.67963 5.686289,24.49217 13.218127,48.63516 22.695274,72.67839 27.633361,69.78521 67.088221,128.09752 118.264821,174.68751 31.37434,28.58252 67.03834,52.7255 107.04188,72.62851 0.14964,0.0499 0.2494,0.0998 0.34916,0.14964 3.09254,1.54635 6.08532,2.99293 8.62919,4.14023 4.88821,2.34446 9.22775,4.33975 13.56728,6.23527 1.09736,0.44895 1.89543,0.84801 2.74339,1.19717 9.42727,4.09035 18.85453,7.83151 27.83288,11.17362 2.34435,0.848 4.48918,1.64611 6.58413,2.39435 19.00417,6.68422 38.1081,12.12138 56.76312,16.2616 7.881,1.696 15.76199,3.24235 23.44347,4.53928 0.94771,0.19953 1.94531,0.2993 2.6935,0.44894 11.62198,1.84565 23.1442,3.24235 34.66641,4.19011 69.63209,5.43716 138.86515,-5.53692 208.3476,-32.97215 24.29142,-9.57738 47.18622,-20.60134 68.6345,-33.0719 35.01556,-20.30206 66.29015,-44.39518 93.87363,-72.32921 4.14002,-4.19011 8.18028,-8.47998 12.22054,-12.86962 8.37979,-9.22821 16.4603,-18.90535 24.19166,-29.03145 20.00177,-26.08839 37.45967,-54.97019 52.47347,-86.49576 2.59374,-5.48704 5.13761,-11.07384 7.6316,-16.8103 0.24939,-0.59859 0.54867,-1.24706 0.79807,-1.84564 0.14964,-0.2993 0.2494,-0.59859 0.39904,-0.89789 2.79326,-6.58445 5.43689,-13.21878 8.08051,-19.95288 11.62198,-30.5778 20.10153,-61.50477 25.28902,-92.8308 0.69832,-4.38963 1.39664,-9.12845 2.09495,-13.86726 0.89784,-7.33268 1.74579,-14.81502 2.34435,-22.54676 0.0998,-1.44659 0.2494,-3.14258 0.39904,-4.93834 1.29687,-19.25453 1.29687,-38.60883 0.0998,-58.26242 -0.44892,-6.38493 -0.9976,-12.86961 -1.69591,-19.55383 -0.19952,-1.84564 -0.44892,-3.84093 -0.69832,-5.83622 -1.99519,-16.36137 -4.93809,-32.77262 -8.92847,-49.58292 -5.43689,-23.09547 -12.81909,-46.63987 -22.1466,-70.23416 C 922.00442,269.98105 882.64931,211.8184 831.17344,164.87923 812.46855,147.81952 791.9181,132.1565 769.7715,118.03983 755.95482,109.1608 741.53958,100.98012 726.12675,93.198487 Z"
       id="path1" />
    <circle
       r="472.34509"
       cy="512.50195"
       cx="451.26276"
       id="path4188-6-4"
       style="color:#000000;display:inline;overflow:visible;visibility:visible;opacity:0.2;fill:url(#radialGradient6921);fill-opacity:1;fill-rule:nonzero;stroke:none;stroke-width:43.14562225;marker:none;enable-background:accumulate" />
    <g
       id="g880"
       transform="matrix(0.51220488,0,0,0.51220488,247.02617,285.51325)"
       style="opacity:0.2;fill:#000000;fill-opacity:1;filter:url(#filter890)">
      <path
         id="path878"
         d="m 929.2,-56.400004 c 25.5,0 47.9,8.5 67.1,25.5 19.2,17 28.7,38.1000001 28.7,63.7 0,23 -8.2,50.600004 -24.6,82.700004 -121.2,229.6 -206,366.8 -254.6,411.7 -35.4,33.2 -75.2,49.8 -119.4,49.8 -46,0 -85.5,-16.9 -118.5,-50.6 -33,-33.8 -49.5,-73.8 -49.5,-120.2 0,-46.7 16.8,-85.4 50.4,-116.1 L 858,-26.900004 c 21.6,-19.7 45.3,-29.5 71.2,-29.5 z M 431.5,509.7 c 14.2,27.7 33.7,51.5 58.3,71.2 24.6,19.7 52.1,33.6 82.4,41.6 l 0.5,38.9 c 1.5,77.7 -22.2,141.1 -70.9,190 -48.7,48.9 -112.3,73.4 -190.8,73.4 -44.9,0 -84.7,-8.5 -119.4,-25.5 -34.7,-17 -62.5,-40.2 -83.5,-69.8 C 87.1,799.9 71.3,766.5 60.7,729.3 50.3,692 45,651.8 45,608.7 c 2.6,1.8 10,7.3 22.4,16.4 12.4,9.1 23.7,17.2 33.9,24.4 10.2,7.1 21,13.8 32.3,20 11.3,6.2 19.7,9.3 25.2,9.3 15,0 25,-6.8 30.1,-20.3 9.1,-24.1 19.6,-44.6 31.5,-61.6 11.9,-17 24.5,-30.8 38.1,-41.6 13.5,-10.8 29.6,-19.4 48.2,-26 18.6,-6.6 37.4,-11.2 56.4,-14 19,-2.6 41.8,-4.6 68.4,-5.6 z"
         inkscape:connector-curvature="0"
         style="fill:#000000;fill-opacity:1" />
    </g>
    <g
       style="fill:url(#linearGradient900);fill-opacity:1"
       transform="matrix(0.51220488,0,0,0.51220488,247.02617,275.47405)"
       id="g846">
      <path
         style="fill:url(#linearGradient900);fill-opacity:1.0"
         inkscape:connector-curvature="0"
         d="m 929.2,-56.400004 c 25.5,0 47.9,8.5 67.1,25.5 19.2,17 28.7,38.1000001 28.7,63.7 0,23 -8.2,50.600004 -24.6,82.700004 -121.2,229.6 -206,366.8 -254.6,411.7 -35.4,33.2 -75.2,49.8 -119.4,49.8 -46,0 -85.5,-16.9 -118.5,-50.6 -33,-33.8 -49.5,-73.8 -49.5,-120.2 0,-46.7 16.8,-85.4 50.4,-116.1 L 858,-26.900004 c 21.6,-19.7 45.3,-29.5 71.2,-29.5 z M 431.5,509.7 c 14.2,27.7 33.7,51.5 58.3,71.2 24.6,19.7 52.1,33.6 82.4,41.6 l 0.5,38.9 c 1.5,77.7 -22.2,141.1 -70.9,190 -48.7,48.9 -112.3,73.4 -190.8,73.4 -44.9,0 -84.7,-8.5 -119.4,-25.5 -34.7,-17 -62.5,-40.2 -83.5,-69.8 C 87.1,799.9 71.3,766.5 60.7,729.3 50.3,692 45,651.8 45,608.7 c 2.6,1.8 10,7.3 22.4,16.4 12.4,9.1 23.7,17.2 33.9,24.4 10.2,7.1 21,13.8 32.3,20 11.3,6.2 19.7,9.3 25.2,9.3 15,0 25,-6.8 30.1,-20.3 9.1,-24.1 19.6,-44.6 31.5,-61.6 11.9,-17 24.5,-30.8 38.1,-41.6 13.5,-10.8 29.6,-19.4 48.2,-26 18.6,-6.6 37.4,-11.2 56.4,-14 19,-2.6 41.8,-4.6 68.4,-5.6 z"
         id="path844" />
    </g>
  </g>
</svg>
