<?xml version="1.0" encoding="UTF-8" standalone="no"?>
<!-- Generator: flash2svg, http://dissentgraphics.com/tools/flash2svg -->

<svg
   xmlns:dc="http://purl.org/dc/elements/1.1/"
   xmlns:cc="http://creativecommons.org/ns#"
   xmlns:rdf="http://www.w3.org/1999/02/22-rdf-syntax-ns#"
   xmlns:svg="http://www.w3.org/2000/svg"
   xmlns="http://www.w3.org/2000/svg"
   xmlns:xlink="http://www.w3.org/1999/xlink"
   xmlns:sodipodi="http://sodipodi.sourceforge.net/DTD/sodipodi-0.dtd"
   xmlns:inkscape="http://www.inkscape.org/namespaces/inkscape"
   id="Gimp"
   image-rendering="optimizeSpeed"
   version="1.1"
   style="background-color:#ffffff"
   x="0px"
   y="0px"
   width="1024px"
   height="1024px"
   viewBox="0 0 1024 1024"
   enable-background="new 0 0 1024 1024"
   sodipodi:docname="gimp.svg"
   inkscape:version="0.92.2 (5c3e80d, 2017-08-06)">
  <metadata
     id="metadata58">
    <rdf:RDF>
      <cc:Work
         rdf:about="">
        <dc:format>image/svg+xml</dc:format>
        <dc:type
           rdf:resource="http://purl.org/dc/dcmitype/StillImage" />
        <dc:title />
      </cc:Work>
    </rdf:RDF>
  </metadata>
  <sodipodi:namedview
     pagecolor="#ffffff"
     bordercolor="#666666"
     borderopacity="1"
     objecttolerance="10"
     gridtolerance="10"
     guidetolerance="10"
     inkscape:pageopacity="0"
     inkscape:pageshadow="2"
     inkscape:window-width="1440"
     inkscape:window-height="764"
     id="namedview56"
     showgrid="true"
     inkscape:zoom="0.55175781"
     inkscape:cx="512"
     inkscape:cy="512"
     inkscape:window-x="0"
     inkscape:window-y="25"
     inkscape:window-maximized="1"
     inkscape:current-layer="shape2"
     inkscape:pagecheckerboard="true">
    <inkscape:grid
       type="xygrid"
       id="grid868" />
  </sodipodi:namedview>
  <defs
     transform="matrix(1 0 0 1 0 0) "
     id="defs2">
    <linearGradient
       id="linearGradient876"
       inkscape:collect="always">
      <stop
         style="stop-color:#d7d7d7;stop-opacity:1"
         offset="0"
         id="stop874" />
      <stop
         style="stop-color:#ffffff;stop-opacity:1"
         offset="1"
         id="stop872" />
    </linearGradient>
    <linearGradient
       inkscape:collect="always"
       id="linearGradient871">
      <stop
         style="stop-color:#ffffff;stop-opacity:1"
         offset="0"
         id="stop867" />
      <stop
         style="stop-color:#d7d7d7;stop-opacity:1"
         offset="1"
         id="stop869" />
    </linearGradient>
    <linearGradient
       inkscape:collect="always"
       id="linearGradient870">
      <stop
         style="stop-color:#6b4f35;stop-opacity:1"
         offset="0"
         id="stop866" />
      <stop
         style="stop-color:#323232;stop-opacity:1"
         offset="1"
         id="stop868" />
    </linearGradient>
    <linearGradient
       inkscape:collect="always"
       xlink:href="#linearGradient870"
       id="linearGradient872"
       x1="520"
       y1="44"
       x2="520"
       y2="984"
       gradientUnits="userSpaceOnUse" />
    <linearGradient
       inkscape:collect="always"
       xlink:href="#linearGradient876"
       id="linearGradient878"
       gradientUnits="userSpaceOnUse"
       x1="520.03137"
       y1="2.0078433"
       x2="520.03137"
       y2="1026.0078"
       gradientTransform="matrix(0.99759444,0,0,0.99764432,0.67603427,1.6646234)" />
    <linearGradient
       inkscape:collect="always"
       xlink:href="#linearGradient870"
       id="linearGradient880"
       gradientUnits="userSpaceOnUse"
       x1="520"
       y1="44"
       x2="520"
       y2="984" />
    <linearGradient
       inkscape:collect="always"
       xlink:href="#linearGradient871"
       id="linearGradient873"
       x1="540.1098"
       y1="2.0078433"
       x2="520.03137"
       y2="1026.0078"
       gradientUnits="userSpaceOnUse" />
    <linearGradient
       inkscape:collect="always"
       xlink:href="#linearGradient870"
       id="linearGradient888"
       x1="522.53101"
       y1="275.02899"
       x2="522.53101"
       y2="755.02899"
       gradientUnits="userSpaceOnUse" />
    <filter
       inkscape:collect="always"
       style="color-interpolation-filters:sRGB"
       id="filter910"
       x="-0.031303153"
       width="1.0626063"
       y="-0.042355129"
       height="1.0847103">
      <feGaussianBlur
         inkscape:collect="always"
         stdDeviation="8.3474809"
         id="feGaussianBlur912" />
    </filter>
  </defs>
  <g
     id="shadow"
     transform="matrix(0.99609375,0,0,0.99609375,2,2)">
    <g
       id="shape">
      <path
         id="path"
         d="m 986.739,315.98644 q -9.3288,-22.61695 -21.0441,-44.31186 c -4.3932,-8.18983 -9.0576,-16.32543 -13.9932,-24.29831 C 930.49492,212.98983 904.62373,180.50169 874.08814,149.9661 774.12881,50.00678 653.39661,0 512,0 370.60339,0 249.92542,50.00678 149.9661,149.9661 50.00678,249.92542 0,370.60339 0,512 0,653.39661 50.00678,774.12881 149.9661,874.08814 249.92542,974.04746 370.60339,1024 512,1024 653.39661,1024 774.12881,974.04746 874.08814,874.08814 929.13898,818.98305 969.0576,757.58644 993.7898,689.95254 1013.9119,634.79322 1024,575.51186 1024,512 c 0,-48.70508 -5.9119,-94.96949 -17.7898,-138.79322 -1.356,-4.93559 -2.7661,-9.87119 -4.2305,-14.75254 -4.4475,-14.42712 -9.5458,-28.58305 -15.2407,-42.4678 z"
         style="fill:url(#linearGradient873);fill-opacity:1;stroke-width:1.08474576"
         inkscape:connector-curvature="0" />
    </g>
  </g>
  <g
     id="ico-shadow"
     style="fill:url(#linearGradient872);fill-opacity:1"
     transform="matrix(0.99609375,0,0,0.99609375,2,2)">
    <g
       id="shape2"
       style="fill:url(#linearGradient880);fill-opacity:1">
      <path
         id="path1"
         d="M 726.12671,93.198487 C 717.44764,88.858734 708.31965,84.568864 698.94226,80.528405 690.36295,76.787239 681.83351,73.345366 673.10456,70.152904 631.10584,54.440006 589.05723,44.862621 546.95875,41.570395 477.72569,35.983587 408.343,46.957674 338.56127,74.492656 c -23.39359,9.278093 -45.54019,19.853122 -66.43979,31.824854 -41.20065,23.64418 -77.41333,52.52597 -108.239,86.49576 q -51.47587,56.46667 -84.346605,132.23776 c -20.201287,46.5401 -32.770977,93.22986 -37.758949,139.32102 -0.448918,4.43952 -0.847956,8.57974 -1.197114,12.71996 -3.691099,45.49259 -0.199519,90.53623 10.225343,135.67963 5.686289,24.49217 13.218127,48.63516 22.695274,72.67839 27.633361,69.78521 67.088221,128.09752 118.264821,174.68751 31.37434,28.58252 67.03834,52.7255 107.04188,72.62851 0.14964,0.0499 0.2494,0.0998 0.34916,0.14964 3.09254,1.54635 6.08532,2.99293 8.62919,4.14023 4.88821,2.34446 9.22775,4.33975 13.56728,6.23527 1.09736,0.44895 1.89543,0.84801 2.74339,1.19717 9.42727,4.09035 18.85453,7.83151 27.83288,11.17362 2.34435,0.848 4.48918,1.64611 6.58413,2.39435 19.00417,6.68422 38.1081,12.12138 56.76312,16.2616 7.881,1.696 15.76199,3.24235 23.44347,4.53928 0.94771,0.19953 1.94531,0.2993 2.6935,0.44894 11.62198,1.84565 23.1442,3.24235 34.66641,4.19011 69.63209,5.43716 138.86515,-5.53692 208.3476,-32.97215 24.29142,-9.57738 47.18622,-20.60134 68.6345,-33.0719 35.01556,-20.30206 66.29015,-44.39518 93.87363,-72.32921 4.14002,-4.19011 8.18028,-8.47998 12.22054,-12.86962 8.37979,-9.22821 16.4603,-18.90535 24.19166,-29.03145 20.00177,-26.08839 37.45967,-54.97019 52.47347,-86.49576 2.59374,-5.48704 5.13761,-11.07384 7.6316,-16.8103 0.24939,-0.59859 0.54867,-1.24706 0.79807,-1.84564 0.14964,-0.2993 0.2494,-0.59859 0.39904,-0.89789 2.79326,-6.58445 5.43689,-13.21878 8.08051,-19.95288 11.62198,-30.5778 20.10153,-61.50477 25.28902,-92.8308 0.69832,-4.38963 1.39664,-9.12845 2.09495,-13.86726 0.89784,-7.33268 1.74579,-14.81502 2.34435,-22.54676 0.0998,-1.44659 0.2494,-3.14258 0.39904,-4.93834 1.29687,-19.25453 1.29687,-38.60883 0.0998,-58.26242 -0.44892,-6.38493 -0.9976,-12.86961 -1.69591,-19.55383 -0.19952,-1.84564 -0.44892,-3.84093 -0.69832,-5.83622 -1.99519,-16.36137 -4.93809,-32.77262 -8.92847,-49.58292 -5.43689,-23.09547 -12.81909,-46.63987 -22.1466,-70.23416 C 922.00442,269.98105 882.64931,211.8184 831.17344,164.87923 812.46855,147.81952 791.9181,132.1565 769.7715,118.03983 755.95482,109.1608 741.53958,100.98012 726.12675,93.198487 Z"
         style="fill:url(#linearGradient878);fill-opacity:1;stroke-width:0.99761933"
         inkscape:connector-curvature="0" />
    </g>
  </g>
  <g
     id="g896"
     transform="translate(-12.074,20.825)"
     style="opacity:0.2;fill:#000000;fill-opacity:1;filter:url(#filter910)">
    <path
       id="path890"
       d="m 823,299.873 c -4.348,-19.453 -8.607,-24.373 -8.607,-24.373 0,0 -8.647,17.992 -21.868,39.594 -13.222,21.643 -34.357,44.625 -52.613,59.074 -23.75,18.838 -47.846,30.945 -69.174,37.941 -21.291,7.033 -38.664,11.066 -38.664,11.066 9.377,7.613 19.408,17.068 24.864,27.91 5.416,10.801 8.533,22.982 8.533,36.244 0,25.945 -9.994,48.277 -26.285,64.152 -16.299,15.836 -38.934,25.215 -64.26,25.215 -30.746,0 -55.069,-9.148 -71.711,-24.793 -16.641,-15.685 -25.598,-37.9 -25.598,-64.039 0,-9.951 1.502,-19.099 4.227,-27.402 2.732,-8.264 6.689,-15.723 11.648,-22.258 0,0 -7.381,1 -20.521,-1.764 -13.108,-2.773 -32.053,-9.345 -55.149,-24.447 -19.642,-12.838 -36.779,-30.787 -49.039,-45.508 -12.224,-14.723 -19.558,-26.258 -19.558,-26.258 0,0 0.729,59.387 0.457,92.254 -0.688,91.02 -9.914,91.598 -9.914,91.598 -11.223,-15.879 -23.327,-29.563 -37.78,-39.285 -14.484,-9.727 -31.32,-15.449 -52.033,-15.412 -25.057,0.037 -39.084,9.336 -47.076,22.254 -7.996,12.953 -9.955,29.48 -10.762,43.972 -1.461,24.983 11.145,56.271 31.936,81.256 20.826,24.983 49.881,43.705 81.436,43.668 2.229,0 4.612,-0.154 7.033,-0.463 2.418,-0.347 4.881,-0.808 7.418,-1.461 0,0 7.108,6.84 23.44,17.336 16.334,10.528 41.89,24.676 78.785,39.358 19.139,7.607 39.545,15.642 65.063,21.904 25.518,6.268 56.106,10.768 95.614,11.268 54.035,0.652 92.584,-11.268 121.326,-28.563 28.787,-17.297 47.812,-40.01 62.838,-60.994 27.131,-37.979 43.465,-83.527 52.957,-127.766 9.494,-44.203 12.187,-87.103 12.031,-119.734 C 831.723,353.301 827.301,319.322 823,299.873 Z M 244.457,542.756 c -16.986,0 -30.744,-13.76 -30.744,-30.75 0,-16.988 13.758,-30.75 30.744,-30.75 16.951,0 30.744,13.762 30.744,30.75 0,16.99 -13.793,30.75 -30.744,30.75 z m 165.908,15.914 c -42.004,-0.041 -58.918,-27.406 -58.57,-51.736 0.387,-26.6 11.529,-59.616 59.07,-59.271 28.975,0.195 56.535,25.484 56.377,55.924 -0.15,27.563 -23.867,55.083 -56.877,55.083 z m 272.166,96.359 c -2.076,5.655 -4.992,9.608 -4.992,9.608 0,0 1.113,-6.184 1.189,-10.684 0.036,-4.648 -1.189,-10.338 -1.189,-10.338 0,0 -3.266,6.955 -14.799,13.951 -11.527,6.957 -31.666,15.682 -64.793,15.682 -28.363,0 -43.963,-4.303 -52.767,-6.801 -8.84,-2.539 -10.565,-5.035 -10.565,-5.035 0,0 22.326,2.109 45.311,0.84 30.818,-1.648 47.92,-7.994 66.597,-15.023 10.803,-4.112 23.563,-14.646 23.563,-14.646 0,0 -4.078,-4.342 -9.727,-8.803 -5.302,-4.111 -12.373,-8.494 -12.373,-8.494 0,0 6.188,0.729 13.524,3.615 7.342,2.918 15.875,7.955 20.56,16.526 3.651,6.69 2.498,13.954 0.461,19.602 z"
       inkscape:connector-curvature="0"
       style="fill:#000000;fill-opacity:1" />
    <path
       id="path892"
       d="m 588.301,463.961 c -22.252,0 -40.276,17.834 -40.276,39.82 0,21.946 18.024,39.78 40.276,39.78 22.252,0 40.273,-17.834 40.273,-39.78 0,-21.986 -18.021,-39.82 -40.273,-39.82 z m 0.998,56.078 c -8.494,0 -15.371,-6.875 -15.371,-15.371 0,-8.457 6.877,-15.375 15.371,-15.375 8.457,0 15.371,6.918 15.371,15.375 0,8.496 -6.914,15.371 -15.371,15.371 z"
       inkscape:connector-curvature="0"
       style="fill:#000000;fill-opacity:1" />
    <path
       id="path894"
       d="m 420.434,485.756 c -14.371,0 -26.018,11.875 -26.018,26.521 0,14.686 11.646,26.563 26.018,26.563 14.334,0 25.982,-11.877 25.982,-26.563 0,-14.646 -11.648,-26.521 -25.982,-26.521 z m 0.382,36.051 c -4.228,0 -7.687,-3.42 -7.687,-7.686 0,-4.228 3.459,-7.688 7.687,-7.688 4.268,0 7.688,3.461 7.688,7.688 0,4.266 -3.42,7.686 -7.688,7.686 z"
       inkscape:connector-curvature="0"
       style="fill:#000000;fill-opacity:1" />
  </g>
  <g
     transform="translate(-19.629,-6.729)"
     id="g21">
    <path
       style="fill:url(#linearGradient888);fill-opacity:1.0"
       inkscape:connector-curvature="0"
       d="m 823,299.873 c -4.348,-19.453 -8.607,-24.373 -8.607,-24.373 0,0 -8.647,17.992 -21.868,39.594 -13.222,21.643 -34.357,44.625 -52.613,59.074 -23.75,18.838 -47.846,30.945 -69.174,37.941 -21.291,7.033 -38.664,11.066 -38.664,11.066 9.377,7.613 19.408,17.068 24.864,27.91 5.416,10.801 8.533,22.982 8.533,36.244 0,25.945 -9.994,48.277 -26.285,64.152 -16.299,15.836 -38.934,25.215 -64.26,25.215 -30.746,0 -55.069,-9.148 -71.711,-24.793 -16.641,-15.685 -25.598,-37.9 -25.598,-64.039 0,-9.951 1.502,-19.099 4.227,-27.402 2.732,-8.264 6.689,-15.723 11.648,-22.258 0,0 -7.381,1 -20.521,-1.764 -13.108,-2.773 -32.053,-9.345 -55.149,-24.447 -19.642,-12.838 -36.779,-30.787 -49.039,-45.508 -12.224,-14.723 -19.558,-26.258 -19.558,-26.258 0,0 0.729,59.387 0.457,92.254 -0.688,91.02 -9.914,91.598 -9.914,91.598 -11.223,-15.879 -23.327,-29.563 -37.78,-39.285 -14.484,-9.727 -31.32,-15.449 -52.033,-15.412 -25.057,0.037 -39.084,9.336 -47.076,22.254 -7.996,12.953 -9.955,29.48 -10.762,43.972 -1.461,24.983 11.145,56.271 31.936,81.256 20.826,24.983 49.881,43.705 81.436,43.668 2.229,0 4.612,-0.154 7.033,-0.463 2.418,-0.347 4.881,-0.808 7.418,-1.461 0,0 7.108,6.84 23.44,17.336 16.334,10.528 41.89,24.676 78.785,39.358 19.139,7.607 39.545,15.642 65.063,21.904 25.518,6.268 56.106,10.768 95.614,11.268 54.035,0.652 92.584,-11.268 121.326,-28.563 28.787,-17.297 47.812,-40.01 62.838,-60.994 27.131,-37.979 43.465,-83.527 52.957,-127.766 9.494,-44.203 12.187,-87.103 12.031,-119.734 C 831.723,353.301 827.301,319.322 823,299.873 Z M 244.457,542.756 c -16.986,0 -30.744,-13.76 -30.744,-30.75 0,-16.988 13.758,-30.75 30.744,-30.75 16.951,0 30.744,13.762 30.744,30.75 0,16.99 -13.793,30.75 -30.744,30.75 z m 165.908,15.914 c -42.004,-0.041 -58.918,-27.406 -58.57,-51.736 0.387,-26.6 11.529,-59.616 59.07,-59.271 28.975,0.195 56.535,25.484 56.377,55.924 -0.15,27.563 -23.867,55.083 -56.877,55.083 z m 272.166,96.359 c -2.076,5.655 -4.992,9.608 -4.992,9.608 0,0 1.113,-6.184 1.189,-10.684 0.036,-4.648 -1.189,-10.338 -1.189,-10.338 0,0 -3.266,6.955 -14.799,13.951 -11.527,6.957 -31.666,15.682 -64.793,15.682 -28.363,0 -43.963,-4.303 -52.767,-6.801 -8.84,-2.539 -10.565,-5.035 -10.565,-5.035 0,0 22.326,2.109 45.311,0.84 30.818,-1.648 47.92,-7.994 66.597,-15.023 10.803,-4.112 23.563,-14.646 23.563,-14.646 0,0 -4.078,-4.342 -9.727,-8.803 -5.302,-4.111 -12.373,-8.494 -12.373,-8.494 0,0 6.188,0.729 13.524,3.615 7.342,2.918 15.875,7.955 20.56,16.526 3.651,6.69 2.498,13.954 0.461,19.602 z"
       id="path15" />
    <path
       style="fill:#634b35;fill-opacity:1"
       inkscape:connector-curvature="0"
       d="m 588.301,463.961 c -22.252,0 -40.276,17.834 -40.276,39.82 0,21.946 18.024,39.78 40.276,39.78 22.252,0 40.273,-17.834 40.273,-39.78 0,-21.986 -18.021,-39.82 -40.273,-39.82 z m 0.998,56.078 c -8.494,0 -15.371,-6.875 -15.371,-15.371 0,-8.457 6.877,-15.375 15.371,-15.375 8.457,0 15.371,6.918 15.371,15.375 0,8.496 -6.914,15.371 -15.371,15.371 z"
       id="path17" />
    <path
       style="fill:#634b35;fill-opacity:1"
       inkscape:connector-curvature="0"
       d="m 420.434,485.756 c -14.371,0 -26.018,11.875 -26.018,26.521 0,14.686 11.646,26.563 26.018,26.563 14.334,0 25.982,-11.877 25.982,-26.563 0,-14.646 -11.648,-26.521 -25.982,-26.521 z m 0.382,36.051 c -4.228,0 -7.687,-3.42 -7.687,-7.686 0,-4.228 3.459,-7.688 7.687,-7.688 4.268,0 7.688,3.461 7.688,7.688 0,4.266 -3.42,7.686 -7.688,7.686 z"
       id="path19" />
  </g>
</svg>
