<?xml version="1.0" encoding="UTF-8" standalone="no"?>
<!-- Created with Inkscape (http://www.inkscape.org/) -->

<svg
   xmlns:dc="http://purl.org/dc/elements/1.1/"
   xmlns:cc="http://creativecommons.org/ns#"
   xmlns:rdf="http://www.w3.org/1999/02/22-rdf-syntax-ns#"
   xmlns:svg="http://www.w3.org/2000/svg"
   xmlns="http://www.w3.org/2000/svg"
   xmlns:xlink="http://www.w3.org/1999/xlink"
   xmlns:sodipodi="http://sodipodi.sourceforge.net/DTD/sodipodi-0.dtd"
   xmlns:inkscape="http://www.inkscape.org/namespaces/inkscape"
   width="1024"
   height="1024"
   id="svg2"
   version="1.1"
   inkscape:version="0.92.3 (2405546, 2018-03-11)"
   sodipodi:docname="google-chrome.svg">
  <defs
     id="defs4">
    <linearGradient
       y2="44.990501"
       x2="17.7449"
       y1="12.3679"
       x1="17.7449"
       gradientUnits="userSpaceOnUse"
       id="linearGradient905">
      <stop
         id="stop903"
         style="stop-color:#35C130"
         offset="0" />
      <stop
         id="stop901"
         style="stop-color:#34BD30"
         offset="0.3483" />
      <stop
         id="stop899"
         style="stop-color:#31B231"
         offset="0.6809" />
      <stop
         id="stop897"
         style="stop-color:#2C9F32"
         offset="1" />
    </linearGradient>
    <linearGradient
       inkscape:collect="always"
       id="linearGradient916">
      <stop
         style="stop-color:#ffffff;stop-opacity:1"
         offset="0"
         id="stop912" />
      <stop
         style="stop-color:#d7d7d7;stop-opacity:1"
         offset="1"
         id="stop914" />
    </linearGradient>
    <linearGradient
       id="linearGradient873">
      <stop
         id="stop869"
         offset="0"
         style="stop-color:#ffffff;stop-opacity:1" />
      <stop
         id="stop871"
         offset="1"
         style="stop-color:#d7d7d7;stop-opacity:1" />
    </linearGradient>
    <linearGradient
       id="linearGradient867">
      <stop
         id="stop863"
         offset="0"
         style="stop-color:#ffffff;stop-opacity:1" />
      <stop
         id="stop865"
         offset="1"
         style="stop-color:#d7d7d7;stop-opacity:1" />
    </linearGradient>
    <linearGradient
       id="linearGradient857">
      <stop
         id="stop853"
         offset="0"
         style="stop-color:#3c8fc8;stop-opacity:1;" />
      <stop
         id="stop855"
         offset="1"
         style="stop-color:#1463a5;stop-opacity:1" />
    </linearGradient>
    <linearGradient
       id="linearGradient5805">
      <stop
         id="stop5807"
         offset="0"
         style="stop-color:#3db244;stop-opacity:1;" />
      <stop
         id="stop5809"
         offset="1"
         style="stop-color:#229629;stop-opacity:1;" />
    </linearGradient>
    <linearGradient
       id="linearGradient5797">
      <stop
         style="stop-color:#ffce00;stop-opacity:1"
         offset="0"
         id="stop5799" />
      <stop
         style="stop-color:#e6bc00;stop-opacity:1"
         offset="1"
         id="stop5801" />
    </linearGradient>
    <linearGradient
       id="linearGradient5789">
      <stop
         style="stop-color:#d63e26;stop-opacity:1;"
         offset="0"
         id="stop5791" />
      <stop
         style="stop-color:#b41700;stop-opacity:1;"
         offset="1"
         id="stop5793" />
    </linearGradient>
    <linearGradient
       id="linearGradient4829">
      <stop
         style="stop-color:#f4fbfc;stop-opacity:1;"
         offset="0"
         id="stop4831" />
      <stop
         style="stop-color:#d6d6d6;stop-opacity:1;"
         offset="1"
         id="stop4833" />
    </linearGradient>
    <clipPath
       clipPathUnits="userSpaceOnUse"
       id="clipPath4282">
      <rect
         style="color:#000000;display:inline;overflow:visible;visibility:visible;fill:#4d4d4d;fill-opacity:1;fill-rule:nonzero;stroke:none;stroke-width:9.13434315;marker:none;enable-background:accumulate"
         id="rect4284"
         width="246.875"
         height="234.375"
         x="462.5"
         y="1646.1122"
         ry="17"
         rx="17" />
    </clipPath>
    <linearGradient
       inkscape:collect="always"
       xlink:href="#linearGradient5423"
       id="linearGradient5429"
       x1="408.66196"
       y1="44.604382"
       x2="408.66196"
       y2="562.04968"
       gradientUnits="userSpaceOnUse" />
    <linearGradient
       id="linearGradient5423">
      <stop
         style="stop-color:#3c8fc8;stop-opacity:1;"
         offset="0"
         id="stop5425" />
      <stop
         style="stop-color:#3585bc;stop-opacity:1;"
         offset="1"
         id="stop5427" />
    </linearGradient>
    <linearGradient
       y2="654.53522"
       x2="173.1449"
       y1="-284.57474"
       x1="173.1449"
       gradientUnits="userSpaceOnUse"
       id="linearGradient5448"
       xlink:href="#linearGradient4829"
       inkscape:collect="always"
       gradientTransform="matrix(0.21296761,0,0,0.21296761,66.391049,912.96738)" />
    <linearGradient
       inkscape:collect="always"
       xlink:href="#linearGradient905"
       id="linearGradient5473"
       x1="17.186701"
       y1="46.737434"
       x2="17.186701"
       y2="199.97781"
       gradientUnits="userSpaceOnUse"
       gradientTransform="matrix(4.7049999,0,0,4.7049999,41.000018,41.999973)" />
    <linearGradient
       inkscape:collect="always"
       xlink:href="#SVGID_4_"
       id="linearGradient5787"
       x1="95.969582"
       y1="2.2921817"
       x2="95.969582"
       y2="198.43794"
       gradientUnits="userSpaceOnUse"
       gradientTransform="matrix(1.7191457,0,0,1.7191457,340.08543,368.44758)" />
    <linearGradient
       inkscape:collect="always"
       xlink:href="#linearGradient5797"
       id="linearGradient5803"
       x1="114.75053"
       y1="56.680836"
       x2="114.75053"
       y2="188.93204"
       gradientUnits="userSpaceOnUse"
       gradientTransform="matrix(5.1,0,0,5.1,2,30.36216)" />
    <linearGradient
       inkscape:collect="always"
       xlink:href="#linearGradient5805-5"
       id="linearGradient5473-4"
       x1="99.036476"
       y1="-0.50471628"
       x2="99.036476"
       y2="199.83986"
       gradientUnits="userSpaceOnUse" />
    <linearGradient
       id="linearGradient5805-5">
      <stop
         id="stop5807-4"
         offset="0"
         style="stop-color:#3db244;stop-opacity:1;" />
      <stop
         id="stop5809-6"
         offset="1"
         style="stop-color:#229629;stop-opacity:1;" />
    </linearGradient>
    <linearGradient
       y2="199.83986"
       x2="99.036476"
       y1="-0.50471628"
       x1="99.036476"
       gradientUnits="userSpaceOnUse"
       id="linearGradient5826"
       xlink:href="#linearGradient5805-5"
       inkscape:collect="always" />
    <linearGradient
       inkscape:collect="always"
       xlink:href="#linearGradient867"
       id="linearGradient5852"
       x1="103.67236"
       y1="-4.6622629"
       x2="103.67236"
       y2="206.49843"
       gradientUnits="userSpaceOnUse"
       gradientTransform="matrix(2.1699263,0,0,2.1699263,295.00737,323.36955)" />
    <filter
       inkscape:collect="always"
       style="color-interpolation-filters:sRGB"
       id="filter884"
       x="-0.036"
       width="1.072"
       y="-0.036"
       height="1.072">
      <feGaussianBlur
         inkscape:collect="always"
         stdDeviation="6.5097789"
         id="feGaussianBlur886" />
    </filter>
    <radialGradient
       id="SVGID_3_"
       cx="24.013399"
       cy="24.006399"
       r="21"
       gradientUnits="userSpaceOnUse"
       gradientTransform="matrix(22.104791,0,0,22.095572,-18.8058,10.058938)">
      <stop
         offset="0.0051"
         style="stop-color:#231815;stop-opacity:0"
         id="stop36" />
      <stop
         offset="0.9439"
         style="stop-color:#231815;stop-opacity:0"
         id="stop38" />
      <stop
         offset="1"
         style="stop-color:#000000;stop-opacity:0.1"
         id="stop40" />
    </radialGradient>
    <linearGradient
       id="SVGID_1_"
       gradientUnits="userSpaceOnUse"
       x1="24.751699"
       y1="3.0397999"
       x2="24.751699"
       y2="28.888399">
      <stop
         offset="0"
         style="stop-color:#F6503B"
         id="stop4" />
      <stop
         offset="0.2174"
         style="stop-color:#F24735"
         id="stop6" />
      <stop
         offset="0.5719"
         style="stop-color:#E62F25"
         id="stop8" />
      <stop
         offset="1"
         style="stop-color:#D4090D"
         id="stop10" />
    </linearGradient>
    <linearGradient
       id="SVGID_2_"
       gradientUnits="userSpaceOnUse"
       x1="17.7449"
       y1="12.3679"
       x2="17.7449"
       y2="44.990501">
      <stop
         id="stop23"
         style="stop-color:#2C9F32"
         offset="0" />
      <stop
         id="stop21"
         style="stop-color:#31B231"
         offset="0.3191" />
      <stop
         id="stop19"
         style="stop-color:#34BD30"
         offset="0.6517" />
      <stop
         id="stop17"
         style="stop-color:#35C130"
         offset="1" />
    </linearGradient>
    <linearGradient
       gradientTransform="matrix(1.0224944,0,0,1.0224944,-0.62380686,-0.40688784)"
       y2="32.005402"
       x2="24.4657"
       y1="16.0054"
       x1="24.4657"
       gradientUnits="userSpaceOnUse"
       id="SVGID_4_">
      <stop
         id="stop47"
         style="stop-color:#47B9FF"
         offset="0" />
      <stop
         id="stop49"
         style="stop-color:#3D8AFF"
         offset="1" />
    </linearGradient>
    <linearGradient
       id="linearGradient860">
      <stop
         style="stop-color:#111111;stop-opacity:1"
         offset="0"
         id="stop858" />
      <stop
         style="stop-color:#6b5b4b;stop-opacity:1"
         offset="1"
         id="stop856" />
    </linearGradient>
    <linearGradient
       inkscape:collect="always"
       xlink:href="#SVGID_1_"
       id="linearGradient902"
       gradientUnits="userSpaceOnUse"
       gradientTransform="matrix(4.7049999,0,0,4.7049999,41.000114,41.999932)"
       x1="97.425026"
       y1="-9.0071468"
       x2="97.425026"
       y2="209.86546" />
    <linearGradient
       inkscape:collect="always"
       xlink:href="#linearGradient916"
       id="linearGradient918"
       x1="500"
       y1="32.362179"
       x2="500"
       y2="1052.3622"
       gradientUnits="userSpaceOnUse"
       gradientTransform="matrix(1.0839532,0,0,1.0839532,-42.442083,-45.907136)" />
    <linearGradient
       inkscape:collect="always"
       xlink:href="#SVGID_2_"
       id="linearGradient908"
       gradientUnits="userSpaceOnUse"
       gradientTransform="matrix(4.7049999,0,0,4.7049999,-1457.658,48.786788)"
       x1="17.186701"
       y1="46.737434"
       x2="17.186701"
       y2="199.97781" />
  </defs>
  <sodipodi:namedview
     id="base"
     pagecolor="#ffffff"
     bordercolor="#666666"
     borderopacity="1.0"
     inkscape:pageopacity="0.0"
     inkscape:pageshadow="2"
     inkscape:zoom="0.61425781"
     inkscape:cx="235.24324"
     inkscape:cy="512"
     inkscape:document-units="px"
     inkscape:current-layer="g858"
     showgrid="true"
     inkscape:window-width="1920"
     inkscape:window-height="847"
     inkscape:window-x="0"
     inkscape:window-y="25"
     inkscape:window-maximized="1"
     inkscape:snap-from-guide="true"
     showguides="true"
     inkscape:guide-bbox="true"
     inkscape:pagecheckerboard="true">
    <sodipodi:guide
       position="0,0"
       orientation="0,200"
       id="guide3764"
       inkscape:locked="false" />
    <sodipodi:guide
       position="200,0"
       orientation="-200,0"
       id="guide3766"
       inkscape:locked="false" />
    <sodipodi:guide
       position="200,200"
       orientation="0,-200"
       id="guide3768"
       inkscape:locked="false" />
    <sodipodi:guide
       position="0,200"
       orientation="200,0"
       id="guide3770"
       inkscape:locked="false" />
    <inkscape:grid
       type="xygrid"
       id="grid875" />
  </sodipodi:namedview>
  <metadata
     id="metadata7">
    <rdf:RDF>
      <cc:Work
         rdf:about="">
        <dc:format>image/svg+xml</dc:format>
        <dc:type
           rdf:resource="http://purl.org/dc/dcmitype/StillImage" />
        <dc:title />
      </cc:Work>
    </rdf:RDF>
  </metadata>
  <g
     inkscape:label="Layer 1"
     inkscape:groupmode="layer"
     id="layer1"
     transform="translate(0,-28.36218)">
    <g
       id="g858">
      <circle
         style="color:#000000;display:inline;overflow:visible;visibility:visible;fill:url(#linearGradient918);fill-opacity:1;fill-rule:nonzero;stroke:none;stroke-width:46.58515167;marker:none;enable-background:accumulate"
         id="circle910"
         cx="512"
         cy="540.36218"
         r="510" />
      <path
         id="path4188-6"
         transform="translate(0,28.36218)"
         style="color:#000000;display:inline;overflow:visible;visibility:visible;fill:url(#linearGradient5473);fill-opacity:1;fill-rule:nonzero;stroke:none;stroke-width:42.97708511;marker:none;enable-background:accumulate"
         d="m 606.63867,51.804688 c -1.26109,0.09716 -2.35103,0.06937 -1.57422,0.07422 0.71941,0.0045 1.20858,-0.0079 1.82032,-0.01172 a 470.5,470.5 0 0 0 -0.2461,-0.0625 z m 11.9043,3.039062 c 0.5168,0.307252 0.94091,0.565197 1.60742,0.951172 -0.68625,-0.462173 -0.91078,-0.603847 -1.32227,-0.878906 a 470.5,470.5 0 0 0 -0.28515,-0.07227 z m 18.58398,4.744141 c -0.18577,0.01585 -0.38211,0.02314 -0.59375,0.01563 1.05148,0.228703 1.96658,0.424772 2.65235,0.564453 0.0273,1.18e-4 0.0568,0.0018 0.084,0.002 -0.0275,-0.01496 -0.10214,-0.05184 -0.13281,-0.06836 a 470.5,470.5 0 0 0 -2.00977,-0.513671 z m 2.07227,0.529297 c 0.003,0.0013 0.0932,0.05264 0.0937,0.05273 0.0373,1.6e-4 0.0772,-2.16e-4 0.11523,0 a 470.5,470.5 0 0 0 -0.20898,-0.05273 z m 0.28711,0.111328 c 0.25217,0.05054 0.33735,0.06208 0.54297,0.101562 a 470.5,470.5 0 0 0 -0.37891,-0.09766 c -0.0752,-0.0018 -0.0729,-0.0018 -0.16406,-0.0039 z m 11.67383,3.009765 c -2.9452,0.187425 -2.3697,0.164475 0.11328,0.04102 a 470.5,470.5 0 0 0 -0.11328,-0.04102 z M 477.98047,83.416016 c -0.80359,-0.575523 1.00559,0.797769 2.31445,1.527343 -0.78384,-0.491029 -1.56278,-0.989007 -2.31445,-1.527343 z m -5.05469,3.658203 c -4.58469,0.324671 -9.19791,0.0792 -13.79101,0.02539 -3.81156,0.0241 -7.62385,0.04316 -11.43555,0.03516 -0.86787,-0.0018 -1.73565,8.24e-4 -2.60352,0 -0.76579,0.682074 -1.53107,1.32642 -2.31445,1.945312 -1.70526,1.884451 -3.37466,3.34132 -4.94141,2.873047 -3.34597,1.654377 -7.02235,2.574341 -10.67968,3.550781 -1.96528,1.263594 -4.35605,2.619696 -5.67969,3.351563 -11.63477,6.433071 -9.33067,3.823741 -18.01172,6.041011 -0.1435,0.11767 -0.25416,0.21425 -0.4043,0.33594 0.97907,-0.15909 2.19216,-0.36674 2.82227,-0.45312 -2.25952,0.95624 -3.38183,1.41821 -5.06055,2.21093 -2.07687,1.59506 -4.18588,3.10467 -5.21875,3.55469 -4.50312,1.96202 -9.48134,2.51057 -14.31054,3.50196 -0.16578,0.0897 -0.32398,0.17687 -0.48438,0.26367 0.043,-0.006 0.086,-0.0101 0.12891,-0.0156 0.20983,-0.0967 0.32587,-0.13233 0.22851,-0.0273 1.20402,-0.15548 2.40911,-0.30478 3.6211,-0.32813 0.69034,-0.0133 -1.32968,0.38666 -2.01172,0.49414 -0.74,0.11662 -1.48169,0.22526 -2.22266,0.33789 -1.06846,0.82482 -2.2691,1.48617 -3.49414,2.05079 -7.81106,3.60008 -8.45719,3.58695 -13.62695,4.56445 0.15214,-0.0186 0.35981,-0.0582 0.47656,-0.0644 0.53194,-0.0286 -0.77635,0.32015 -1.42969,0.5332 -5.45465,4.8006 -2.33155,1.84057 -18.51562,7.11133 -0.0615,0.0624 -0.11548,0.12786 -0.17969,0.18945 0.88518,-0.15792 2.5708,-0.5067 3.37109,-0.59766 0.2455,-0.0279 -0.45985,0.18722 -0.70117,0.24024 -0.9706,0.21323 -1.94727,0.39536 -2.92383,0.58203 -0.082,0.0736 -0.16234,0.14831 -0.24804,0.2207 0.066,-0.0137 0.1962,-0.052 0.16796,-0.0293 -0.0383,0.007 -0.12984,0.0257 -0.17187,0.0332 -5.86181,4.94638 -20.32957,7.10511 -24.3125,8.03906 -0.76759,0.10287 -1.53535,0.20411 -2.30273,0.30859 -1.12615,0.67856 -2.24771,1.35067 -3.2461,1.95313 -9.40807,3.3864 -1.28909,0.70958 -12.2207,3.50195 -0.20729,0.053 0.84386,-0.0473 0.64062,0.0195 -2.78801,0.91681 -7.48295,1.82205 -10.06445,2.02344 -0.21454,0.0167 -0.42979,0.0191 -0.64453,0.0312 -0.77393,0.29508 -1.72045,0.6436 -2.81641,1.04492 -0.30986,0.46469 -0.61046,0.9362 -0.91211,1.40625 0.45589,-0.24172 0.9071,-0.49238 1.3711,-0.71875 0.88182,-0.43021 -2.69792,2.81016 -2.1836,1.97461 0.26136,-0.42458 0.54332,-0.83639 0.8125,-1.25586 -2.00105,1.06103 -3.93835,2.24104 -5.86718,3.43555 -0.3861,0.31242 -0.76917,0.6289 -1.15821,0.9375 -0.22843,0.18121 -0.89054,0.44455 -1.09765,0.49414 l -3.70899,3.77344 c 0.29019,-0.12342 0.58451,-0.2393 0.86328,-0.38672 0.82246,-0.43493 3.02453,-2.14602 2.34571,-1.50977 -0.34855,0.32669 -5.30546,4.19765 -6.76563,5.33985 -0.0504,0.49367 -18.42423,10.93143 -23.20508,9.95508 -1.8582,1.01346 -3.71393,2.03226 -5.54492,3.09375 -0.36818,0.21345 0.81997,-0.24648 1.19727,-0.44336 1.08499,-0.56617 4.17341,-2.54951 3.17773,-1.83789 -1.98,1.41513 -4.10254,2.61899 -6.13672,3.95507 -0.69779,0.45883 1.45855,-0.89112 2.16993,-1.36328 -0.72821,0.4827 -1.80561,1.31407 -2.93165,2.19336 l -3.13476,3.41016 c 1.29095,-0.49033 0.72272,-0.38359 -0.86719,1.50195 6.97625,-4.90029 -0.44437,0.91951 -8.22266,6.5332 -2.39164,2.76109 -4.40951,4.59415 -3.91015,2.79102 -2.63442,1.83573 -5.00184,3.40158 -6.52539,4.24609 -0.76247,1.0264 -1.1904,1.46917 -2.02344,1.70118 -0.0234,0.065 -0.041,0.12233 -0.0664,0.18945 0.0106,-0.0591 0.0188,-0.11862 0.0293,-0.17774 -0.367,0.0996 -0.87915,0.20936 -1.52734,0.35352 -0.42749,1.6347 -1.34501,4.60466 -2.87891,8.69531 -0.89709,3.23636 -1.91406,7.02784 -3.19531,12.14649 -0.19475,0.77802 0.5694,-0.55536 1.17187,-1.6836 1.0168,-3.63342 1.99568,-7.2874 3.26954,-10.77929 -0.0563,-0.58865 -0.0786,-1.17289 0.0391,-1.74024 0.0818,-0.3947 0.29611,0.82385 0.15429,1.20117 -0.067,0.17833 -0.12797,0.35984 -0.19335,0.53907 0.14993,1.56841 0.55404,3.17209 -0.70118,4.58789 -0.68303,1.74302 -1.24542,3.53759 -2.04882,5.22851 -0.10512,0.22122 -0.33556,0.61836 -0.51954,0.96289 -1.75673,6.2775 -3.64867,12.48265 -7.47461,17.62891 -0.51597,0.69403 -1.10978,1.29236 -1.75585,1.83008 -2.35529,2.84787 -7.48803,4.96431 -19.74415,13.18945 -24.99748,16.77594 -18.39477,-4.34244 -9.80273,-27.55273 -6.54679,1.51643 -10.42919,0.83638 -8.27539,-4.82032 2.53533,-6.65876 8.0283,-10.56951 14.86719,-13.14257 3.14163,-9.01042 5.30606,-16.78363 4.44726,-20.84766 -1.7526,0.43681 -3.55884,0.81852 -5.38086,1.18164 a 470.5,470.5 0 0 0 -31.84765,35.88672 c -0.0795,0.96325 -0.13266,1.79765 -0.23438,2.86133 0.28569,2.18889 0.55337,4.36834 0.73438,6.51953 0.88852,1.47755 1.77741,2.95532 2.45312,4.53711 0.56194,1.31546 -2.2692,-2.14935 -2.37109,-3.57617 -0.0228,-0.3189 -0.0551,-0.64079 -0.082,-0.96094 -0.40397,-0.67177 -0.81351,-1.33985 -1.19336,-2.02344 0.18601,-1.63276 0.32173,-3.06087 0.45898,-4.49609 -0.0945,-0.72443 -0.1898,-1.45161 -0.28515,-2.17774 A 470.5,470.5 0 0 0 41,512.5 470.5,470.5 0 0 0 500.50781,982.44922 c -1.09158,-16.69719 14.90744,-33.96289 48.00196,-33.96289 h 0.002 22.92383 5.6289 c 0.94103,-0.50213 1.8885,-0.99318 2.85157,-1.45117 3.9044,-1.85677 7.73998,-2.45186 11.95507,-3.4336 0.95122,-0.0634 1.90104,-0.15283 2.85157,-0.23633 2.75272,-2.86429 2.60747,0.32006 20.50586,-3.64257 2.62406,-0.58096 -5.37507,0.11596 -8.0625,0.0859 -0.18337,-0.002 0.34262,-0.13932 0.52343,-0.16992 0.84741,-0.1434 1.69837,-0.26537 2.54688,-0.40234 4.1757,-1.52818 -2.06927,0.70711 8.39648,-2.28125 0.7378,-0.21067 -2.97764,0.69414 -2.26562,0.4082 1.36224,-0.54706 2.79199,-0.94778 4.23828,-1.19922 2.29463,-0.39893 3.83081,-0.57668 5.0332,-0.67187 3.22042,-1.35787 6.41973,-2.88425 9.84571,-3.54102 3.99475,-0.76582 7.73644,-0.79682 11.48046,-0.54883 5.70314,-1.73094 8.86494,-1.7853 13.05078,-1.54492 1.36341,-0.37496 2.73118,-0.73687 4.125,-0.96289 4.28587,-0.69497 6.07688,-0.79671 8.47266,-0.68164 1.92462,-1.01276 3.8489,-2.02615 5.77344,-3.03906 0.85873,-0.65191 1.80866,-1.34954 3.09961,-2.30664 4.71917,-6.60466 11.31487,-9.32916 18.96679,-12.86524 0.0559,-0.0375 0.15241,-0.095 0.20118,-0.1289 2.3746,-1.64989 4.83054,-3.18026 7.26172,-4.7461 0.0927,-0.10094 0.18322,-0.1992 0.28125,-0.30273 -0.65586,0.29839 -0.45363,0.13411 0.54492,-0.55469 1.40957,-1.42514 3.10475,-2.94196 4.09375,-3.76758 3.32521,-2.7759 7.14929,-4.87481 10.84765,-7.14648 -1.52741,0.78855 -3.05349,1.58082 -4.58984,2.35156 -2.24801,1.12776 4.41389,-2.4115 6.62109,-3.61719 -0.66705,0.43569 -1.35098,0.84779 -2.03125,1.26563 3.01242,-1.5552 6.01431,-3.13239 8.99024,-4.75586 0.30066,-0.16402 -1.30644,0.39313 -0.99805,0.24414 1.32964,-0.64241 2.64064,-1.38804 4.07031,-1.75195 2.91789,-2.28725 5.87176,-4.52093 9.22071,-6.05078 2.49652,-1.14046 9.09895,-5.27993 7.94336,-3.52344 0.39197,-0.19691 0.80067,-0.38797 1.24414,-0.57031 0.0261,-0.0209 0.0499,-0.0437 0.0762,-0.0645 7.21759,-5.69694 11.4199,-7.62432 15.75976,-8.23242 1.11352,-0.8983 2.18703,-1.56753 3.41016,-2.28516 0.0883,-0.0834 0.12874,-0.11983 0.21484,-0.20117 0.1994,-0.34821 0.39514,-0.68015 0.53321,-0.89258 2.08648,-3.21013 4.42326,-6.25164 6.63476,-9.37695 2.91677,-3.4908 6.55487,-6.20776 9.86524,-9.2793 1.03494,-0.96028 1.84014,-2.17594 2.97656,-3.01367 2.19797,-1.62026 4.4527,-3.16018 6.71289,-4.69336 0.0439,-0.0506 0.12585,-0.13739 0.16016,-0.17968 3.11017,-3.83439 2.8959,-3.4624 6.23633,-6.89063 8.91972,-6.71757 6.54337,-5.28895 11.20703,-7.69727 1.28921,-1.40704 3.36716,-3.5378 0.37304,-0.44726 2.28076,-2.56556 4.56104,-5.13171 6.8418,-7.69727 0.071,-0.14449 0.34379,-0.52727 0.21289,-0.43359 -0.46088,0.32984 -1.58365,1.61582 -1.23633,1.16797 3.08054,-3.9722 6.41294,-7.8925 9.68946,-11.73828 0.8454,-0.9234 1.57763,-1.9653 2.53711,-2.76953 0.10411,-0.0873 0.25323,-0.22562 0.36914,-0.32618 1.19298,-1.96369 2.37899,-3.93897 3.82617,-5.71875 0.77982,-0.95903 1.64079,-1.84591 2.52343,-2.71289 0.001,-0.002 0.004,-0.004 0.006,-0.006 1.69072,-1.94531 3.53223,-3.74922 5.40235,-5.52539 1.04966,-1.86253 2.13921,-3.62252 3.49023,-5.24804 0.18763,-1.20776 0.57258,-2.39535 0.97852,-3.54688 1.53066,-4.34208 3.15891,-7.83953 3.91211,-9.4414 -0.23902,0.31516 -0.34166,0.45842 -0.58985,0.78515 1.27622,-2.22063 1.19154,-2.06482 0.58985,-0.78515 0.48071,-0.63384 0.74304,-0.99007 1.1875,-1.57813 -0.9397,-0.67698 1.02188,-3.4569 1.30273,-5.02148 0.0894,-0.49797 0.11442,-1.01208 0.26172,-1.4961 0.80005,-2.62879 1.68514,-5.23048 2.54688,-7.83984 0.39981,-1.32216 0.71717,-2.33591 0.39257,-1.1836 -0.12869,0.39513 -0.26226,0.789 -0.39257,1.1836 -0.57238,1.89281 -1.35626,4.56167 -1.02735,3.63281 1.17518,-3.31872 2.72872,-9.79808 4.96875,-14.70508 -0.40073,0.0377 0.19834,-0.99847 0.64258,-1.86718 0.58775,-3.64196 1.16852,-7.28445 2.17773,-10.82618 0.60787,-2.13324 1.28023,-6.97099 3.18946,-5.84179 0.87989,0.5204 0.50756,1.40838 -0.22657,2.40234 0.39812,-0.49947 0.78926,-1.00388 1.18946,-1.50195 0.34456,-1.27083 0.58487,-2.57829 1.02539,-3.81641 -1.11119,1.69227 -1.51103,2.4843 0.13086,-0.37305 0.01,-0.0243 0.0155,-0.05 0.0254,-0.0742 0.048,-0.11757 0.16056,-0.31582 0.23437,-0.4668 3.13864,-10.82154 0.75928,-4.98912 7.33008,-14.62305 -0.007,0.004 -0.0187,0.0125 -0.0254,0.0156 -0.55232,0.63878 -1.10509,1.27819 -1.67383,1.90234 -0.5513,0.60502 0.53013,-0.80855 1.53907,-2.07812 0.22803,-0.74556 2.08506,-3.39119 2.67968,-4.56446 5.6988,-10.1081 -0.16907,0.23394 0.38086,-0.51367 0.61921,-0.84179 1.23644,-1.68585 1.85156,-2.53125 0.29475,-1.15209 0.3322,-1.27774 0.69532,-2.71484 1.4699,-1.69254 2.0986,-2.42459 3.34765,-3.86524 0.25373,-0.54391 0.50181,-1.08598 0.76758,-1.63281 0.56693,-1.16647 3.39035,-3.89726 2.70703,-2.79492 -0.33487,0.54023 -0.68791,1.06866 -1.03125,1.60351 27.43696,-31.69815 -7.77417,7.9754 6.24414,-10.16211 1.50737,-1.95029 3.20228,-3.74457 4.86524,-5.5664 -0.0701,0.0209 -0.14293,0.0303 -0.22266,0.0234 -0.55374,-0.0478 0.61634,-0.92656 0.95508,-1.36719 0.92703,-1.20585 1.83396,-2.42979 2.83789,-3.57227 -0.72424,-0.31218 0.72802,-1.78573 1.97266,-3.14843 0.3743,-0.60785 0.76251,-1.14321 1.18554,-1.43555 0.0267,-0.0398 0.0683,-0.0888 0.0918,-0.12695 -0.0139,0.0252 -0.0457,0.0749 -0.0606,0.10156 0.3777,-0.24925 0.78197,-0.30514 1.22852,-0.0703 1.77434,-3.68701 3.58519,-6.33233 5.67383,-9.07226 -0.42521,0.94485 -0.79345,1.84836 -1.07422,2.56641 0.13217,-0.20713 0.24935,-0.3791 0.375,-0.57032 0.28528,-0.70395 0.5532,-1.41555 0.80859,-2.13672 -0.034,0.0445 -0.0736,0.0923 -0.10742,0.13672 0.0734,-0.163 0.14804,-0.30788 0.22266,-0.46875 1.24412,-3.5538 2.32047,-7.20115 4.6582,-10.08398 0.61586,-0.75947 1.51955,-1.63524 2.56641,-2.55274 0.36215,-0.89523 0.71943,-1.79277 1.0625,-2.69531 -0.18696,0.35216 -0.36823,0.70721 -0.55664,1.0586 -0.28,0.52219 0.97576,-2.15706 0.76953,-1.60157 -0.0677,0.18223 -0.14383,0.36129 -0.21289,0.54297 0.28404,-0.53504 0.56214,-1.07303 0.84375,-1.60937 -0.28359,0.85502 -0.5589,1.9558 -0.88672,3.43945 0.37065,-0.30808 0.75027,-0.6153 1.14062,-0.92578 0.40728,-1.91058 0.71272,-3.4739 0.95899,-4.82422 -0.40127,0.76958 -0.80749,1.53626 -1.21094,2.30469 0.35903,-1.08124 0.74746,-1.85966 1.30859,-2.83008 1.05713,-5.92699 0.79514,-6.82306 1.83594,-8.83984 -0.0165,-0.31783 -0.0297,-0.6355 -0.0488,-0.95313 -0.34072,-9.94614 -0.62172,-7.09186 4.47461,-19.49414 0.25356,-1.18879 0.48624,-2.32114 0.57617,-3.0625 -8.4e-4,-0.026 -8.9e-4,-0.0744 -0.002,-0.0957 -0.0417,-0.84323 -0.2356,-1.69708 -0.10547,-2.53125 0.52454,-3.36228 1.19577,-6.69828 1.86719,-10.03516 -0.1892,-2.65514 -0.26038,-6.14715 -0.31641,-7.875 -0.0115,-6.81785 0.1262,-13.63297 0.0996,-20.45117 -0.0295,-4.92469 -0.0166,-9.84872 -0.0117,-14.77344 -4.3e-4,-4.33928 -0.002,-8.67829 -0.002,-13.01758 5.9e-4,-5.36855 6e-5,-10.73691 0,-16.10547 10e-6,-4.00346 0,-8.00825 0,-12.01171 -10e-6,-4.49743 0,-8.99477 0,-13.49219 v -5.13086 c -1.28252,-4.33191 -1.27149,-4.103 -1.29297,-5.75 -1.45127,-3.37865 -2.43154,-6.94302 -3.65429,-10.41211 -0.11862,-2.95276 -0.39965,-5.90644 -0.47071,-8.85938 -0.10229,-0.30167 -0.0977,-0.29335 -0.20898,-0.62109 -0.47698,-3.5462 -1.17958,-7.06943 -1.43164,-10.63867 -0.0637,-0.90223 -0.0328,-1.8049 0.0254,-2.70899 -0.94348,-2.59811 -1.72513,-5.25125 -2.24414,-7.91406 -0.0155,-0.0796 -0.0243,-0.1605 -0.0391,-0.24023 -1.43597,-3.33412 -3.14859,-6.62073 -3.82031,-10.1836 -0.59187,-3.13935 -0.52967,-6.35648 -0.47265,-9.5664 -0.2289,-0.42556 -0.50152,-1.56913 -0.66407,-2.08203 -0.82616,-2.60689 -1.91144,-5.1736 -2.32812,-7.8711 -1.55812,-2.57432 -2.94235,-5.29873 -3.60547,-7.74414 -1.29404,-4.772 -1.22334,-9.82249 -2.2168,-14.66601 -0.1843,-0.89859 -0.15426,1.82806 -0.23047,2.74218 -0.26045,-1.00218 -0.53087,-2.00212 -0.79296,-3.0039 -1.27373,-0.43371 -1.46664,-2.72107 -1.68555,-4.77735 -3.49014,-6.28346 -4.99246,-13.64062 -5.90625,-20.67968 -0.17595,-0.40531 -0.35988,-0.84043 -0.49805,-1.10352 -1.22022,-4.39574 -2.37021,-8.81178 -3.66015,-13.1875 0.0778,0.34214 0.14395,0.77984 0.0332,0.97461 -0.0378,0.0664 -0.0738,0.0301 -0.10742,-0.0449 0.15199,0.56791 0.30347,1.06383 0.13086,0.74805 -2.44482,-4.47279 -2.31366,-7.51741 -2.37891,-5.11719 -1.82424,-4.65601 -3.58499,-9.07166 -4.6875,-13.73633 -0.46051,-0.71901 -0.87041,-1.48033 -1.34961,-2.18359 0.29506,0.34376 0.7626,0.91993 1.1875,1.43945 -0.16007,-0.72945 -0.30403,-1.46603 -0.42773,-2.21094 -6.81611,-9.68084 -5.72674,-4.96383 -8.26172,-13.26172 -1.09194,-2.53351 -5.06485,-12.18357 -0.43555,-0.94336 -5.41662,-8.94754 0.53886,1.31302 -6.24414,-12.73242 -0.0931,-0.19283 0.007,0.81082 -0.11133,0.63281 -0.60182,-0.89995 -1.07049,-1.87982 -1.55273,-2.85156 0.0345,0.0842 0.071,0.16769 0.10547,0.25195 0.19309,0.47184 -0.92372,-1.81851 -0.67579,-1.37304 0.20359,0.36579 0.38384,0.74534 0.57032,1.12109 -0.52312,-1.27606 -1.0561,-2.54784 -1.58789,-3.82031 -5.64026,-6.20367 -6.86948,-8.41134 -10.99219,-15.56836 1.5e-4,0.0973 -0.0906,0.13497 -0.31445,0.0879 -1.57457,-0.33119 -2.76873,-1.85374 -3.56836,-3.25 -0.83546,-1.45881 -1.56352,-2.97944 -2.25196,-4.52148 -0.65463,-0.41754 -1.284,-0.89377 -1.90625,-1.38282 0.0558,0.13508 0.14176,0.32338 0.19141,0.44727 -0.1485,-0.21485 -0.29682,-0.42968 -0.44531,-0.64453 -3.10181,-2.49546 -5.82613,-5.71949 -8.33789,-8.46875 l -2.49024,-3.77539 -10.01953,-7.78321 c -1.47755,-1.93808 -2.95604,-3.87637 -4.43359,-5.81445 -0.42895,-0.51543 -1.48896,-2.18634 -1.28711,-1.54687 0.32325,1.02408 2.73255,2.9109 1.66992,2.75586 -1.87714,-0.2739 -3.15445,-2.10919 -4.70703,-3.19922 -5.30439,-3.72411 -4.14746,-2.9508 -9.23633,-7.31446 -1.78519,-2.09453 -3.57028,-4.19062 -5.35547,-6.28515 -0.20522,-0.31262 -0.39689,-0.63491 -0.5918,-0.95508 0.0171,0.0883 0.0311,0.17696 0.0137,0.24805 -0.14233,0.57916 -0.85861,-0.83129 -1.28711,-1.2461 -2.66748,-2.58226 -1.88545,-3.48508 -2.77149,-2.26758 -1.77396,-1.58195 -3.67515,-3.03247 -5.32226,-4.74609 -0.62366,-0.64884 -1.21131,-1.3292 -1.78907,-2.01953 -2.86193,-2.53549 -8.3425,-8.66807 -9.08398,-9.47656 -1.60362,-2.61978 -3.16932,-5.26262 -4.77539,-7.88086 -5.06757,-3.68202 -10.05695,-7.76311 -13.98633,-12.66407 -1.42528,-1.77769 -2.69577,-3.67433 -4.04101,-5.51367 -0.0364,-0.0291 -0.0663,-0.0545 -0.0996,-0.082 -0.14259,-0.10449 -0.22987,-0.17078 -0.36719,-0.27148 0.2166,0.33256 0.46095,0.70536 0.58789,0.91015 -0.48216,-0.55489 -1.01069,-1.07694 -1.5332,-1.60351 -0.73619,-0.54098 -1.6136,-1.1837 -2.18164,-1.60352 0.0664,0.1393 -0.67089,-0.2561 -3.00391,-1.74609 -0.32449,-0.16569 -0.66485,-0.30311 -0.97266,-0.49805 -1.58326,-1.00273 -3.12121,-2.07473 -4.69531,-3.0918 -0.52591,-0.33981 -1.12606,-0.57148 -1.60352,-0.97656 -2.64325,-2.24245 -4.51212,-3.86321 -5.97265,-5.14258 -0.0417,-0.0142 -0.0834,-0.0287 -0.125,-0.043 0.27643,0.2542 -0.0346,-0.0347 0.30078,0.2754 -0.12242,-0.0971 -0.30866,-0.2197 -0.45898,-0.32813 -5.21708,-1.79743 -10.11902,-4.07289 -15.0625,-6.57617 -3.3661,-1.59461 -6.46781,-3.78589 -9.89258,-5.26758 -0.36039,-0.15592 -1.416,-0.56302 -1.14453,-0.2793 0.22633,0.23655 0.81044,0.52267 1.26757,0.72266 -4.10654,-1.61384 -8.16941,-3.34071 -12.2539,-5.00977 -1.70017,-1.1514 -3.31149,-2.44565 -5.09961,-3.45507 -0.41865,-0.23634 1.39963,1.21164 0.93164,1.10156 -1.53704,-0.36158 -2.82743,-1.44218 -4.33789,-1.90234 -0.25802,-0.0786 0.6629,0.76512 0.40039,0.70312 -6.74763,-1.59361 -9.66903,-3.16205 -15.96875,-5.85938 -1.70469,-1.04293 -3.40859,-2.08595 -5.11328,-3.1289 -1.68843,-0.077 -2.50363,-0.1225 -5.08008,-0.22852 -12.10092,-3.70087 -12.01191,-2.88399 -16.35547,-5.75781 -2.62093,-0.66898 -5.28504,-1.20744 -7.80664,-2.17773 -1.44281,-0.55519 -2.84172,-1.21266 -4.22656,-1.90235 -1.71928,-0.0826 -2.13715,-0.11083 -4.5293,-0.2207 -2.10594,-0.45344 -4.35795,-0.46838 -6.31836,-1.36133 -1.06463,-0.48493 -2.09697,-1.03119 -3.11719,-1.60351 -1.7524,-0.20736 -3.2459,-0.38588 -6.99218,-0.82032 -1.21778,-0.29662 -2.42321,-0.64532 -3.65235,-0.89062 -0.4256,-0.0849 1.65082,0.53682 1.23633,0.4082 -0.81981,-0.2544 -12.91384,-3.53908 -16.61914,-5.67187 -0.82131,-0.47275 -1.58302,-0.93614 -2.33008,-1.39258 -7.04281,-0.24846 -12.3806,-1.90749 -19.77539,-5.51172 -3.13876,-0.73576 -6.15146,-1.58417 -6.6289,-1.76563 -2.79383,-1.06183 -5.57822,-2.48756 -6.63477,-3.02734 0.28346,0.18076 0.57484,0.35701 0.84961,0.54297 -1.63676,-0.9453 -1.54196,-0.89668 -0.84961,-0.54297 -3.755,-2.39455 -8.20295,-4.38263 -11.98437,-6.976562 -8.03544,0.540101 -11.00912,-0.631133 -17.76954,-3.886719 -0.37885,0.07759 -0.68295,0.142549 -1.68554,0.314453 -4.30479,0.771601 -8.54857,0.303001 -12.84766,0.15625 -1.37102,-0.0468 -2.76758,0.250131 -4.11523,-0.0059 -2.86781,-0.545611 -5.71348,-1.203432 -8.55469,-1.876953 -0.20773,0.03585 -0.48398,0.07203 -0.91602,0.107422 -0.95005,0.0778 -1.90265,0.133992 -2.85351,0.201172 -5.97032,-1.542105 -11.93984,-3.084847 -17.91016,-4.626953 0.30653,0.144826 0.61494,0.283986 0.92188,0.427734 2.72485,0.68956 5.44731,1.387152 8.16211,2.115234 0.43135,0.11569 -0.89517,0.0041 -1.3379,-0.05469 -1.1109,-0.14741 -2.26007,-0.18289 -3.31445,-0.5625 -1.19741,-0.431106 -2.3561,-0.957753 -3.50976,-1.498047 -1.4217,-0.359778 -2.84284,-0.72058 -4.26563,-1.076172 -0.76856,0.08832 -1.53639,0.181106 -2.30469,0.271485 -2.16643,0.0597 -4.35476,0.487787 -6.5,0.179687 -3.29808,-0.473674 -6.58449,-1.099137 -9.82031,-1.910156 z m 295.73438,93.695311 c 0.0323,0.0237 0.0514,0.0367 0.084,0.0606 -0.40095,-0.54783 -0.80754,-1.09251 -1.22852,-1.625 -0.35098,-0.44398 0.12437,0.2891 0.63868,1.07812 0.0769,0.0795 0.18762,0.21406 0.2539,0.27735 0.0574,0.0548 0.16742,0.13909 0.25196,0.20898 z m 0.084,0.0606 c 0.005,0.007 0.0104,0.0143 0.0156,0.0215 0.66264,0.53078 1.74341,1.27001 1.2832,0.9336 -0.57577,-0.4209 -0.79119,-0.58313 -1.29883,-0.95508 z m 159.75781,453.05078 c -0.0289,0.16225 -0.0666,0.35541 -0.0976,0.52539 0.5277,-1.01208 1.06122,-2.0207 1.59179,-3.03125 -0.62227,1.04776 -1.09975,1.8238 -1.49414,2.50586 z m -10.4414,19.77734 c -0.0387,0.11055 -0.0762,0.22169 -0.11524,0.33203 0.71573,-0.93604 1.44684,-1.8741 2.24219,-2.89062 -0.12093,-1.34986 -1.15747,0.46846 -2.12695,2.55859 z m -0.92383,2.46875 c -0.20691,0.51058 -0.42071,1.01872 -0.6543,1.51367 -0.31181,0.66076 -0.11733,0.071 0.2793,-0.94335 -1.00878,1.58084 -2.14548,3.51776 -3.19922,5.32421 2.60659,-3.13583 5.10792,-6.36133 7.52148,-9.64453 0.76561,-1.04148 -2.26047,1.37932 -3.03515,2.41407 -0.26589,0.35515 -0.58626,0.84006 -0.91211,1.33593 z m -24.07227,32.40039 c -0.80111,0.92554 -1.53114,1.77207 -2.44336,2.82422 -0.40265,0.86317 -0.79151,1.71229 -1.16211,2.55469 1.23933,-1.7681 2.43964,-3.56279 3.60547,-5.37891 z m -11.39843,17.01368 c -0.0527,0.17226 -0.023,0.24907 0.13476,0.17578 0.0211,-0.0244 0.0434,-0.0478 0.0644,-0.0723 0.38158,-0.56004 0.65203,-0.92893 1.09766,-1.60156 0.3881,-0.5858 -0.43071,0.40813 -1.29687,1.49805 z m -7.16993,14.7832 c -0.0144,0.0498 -0.038,0.12528 -0.0527,0.17578 0.51117,-0.89208 0.86917,-1.50645 1.81055,-3.18164 0.5915,-1.0526 -1.05599,1.57026 -1.75782,3.00586 z m -0.0527,0.17578 c -0.0586,0.10231 -0.15343,0.27195 -0.20703,0.36523 -0.0489,0.12259 -0.0867,0.24887 -0.13086,0.37305 0.0766,-0.1167 0.13279,-0.19927 0.21289,-0.31836 0.0365,-0.12476 0.09,-0.29935 0.125,-0.41992 z m -0.125,0.41992 c -0.35823,1.22575 -0.71516,2.44895 -1.23047,4.125 2.96692,-3.69242 5.95433,-7.37165 8.37891,-11.42773 1.33891,-2.23987 -3.93083,3.4503 -5.69727,5.37109 -0.44809,0.48724 -0.97231,1.21972 -1.45117,1.93164 z m -1.23047,4.125 c -0.003,0.003 -0.005,0.007 -0.008,0.01 -0.008,0.0303 -0.0131,0.0616 -0.0215,0.0918 0.0128,-0.0414 0.0167,-0.0604 0.0293,-0.10156 z M 177.4043,202.41016 c -1.99358,5.71772 -4.34628,11.89691 -6.5918,17.96289 8.43646,-1.95413 21.26865,-7.53218 31.38477,-10.8711 -0.12611,-1.385 -0.25833,-2.77107 -0.39454,-4.15625 -2.96691,2.06022 -5.11792,3.00364 -4.38085,0.4668 0.8631,-2.97064 1.68561,-5.74329 2.49023,-8.4375 -7.78835,1.27633 -15.7955,2.50972 -22.50781,5.03516 z m 22.50781,-5.03516 c 0.44223,-0.0725 0.88175,-0.14968 1.32227,-0.22266 -0.002,-0.0858 -0.004,-0.17208 -0.006,-0.25781 -0.24148,-0.49832 -0.48917,-0.99386 -0.72657,-1.49414 -0.1943,0.64588 -0.39208,1.31243 -0.58984,1.97461 z m 0.58984,-1.97461 c 0.0189,-0.0628 0.0358,-0.11704 0.0547,-0.17969 -0.18819,-0.24752 -0.33348,-0.39982 -0.23242,-0.18554 0.0577,0.12244 0.11969,0.24292 0.17773,0.36523 z m 0.0547,-0.17969 c 0.27444,0.36096 0.65914,0.97095 0.66211,1.31641 0.001,0.11867 0.008,0.23856 0.01,0.35742 0.0385,0.0794 0.0767,0.15894 0.11523,0.23828 3.83872,-0.63674 7.60197,-1.30383 11.10156,-2.16211 1.75184,-1.79162 2.87046,-2.81877 3.6836,-3.51758 0.32422,-0.78284 0.61987,-1.59107 0.89062,-2.40429 0.64628,-5.0192 1.12122,-10.06526 1.75781,-15.08594 0.12713,2.09907 0.7282,4.22252 0.38282,6.29688 -0.27388,1.6449 -0.9608,5.24534 -2.14063,8.78906 -0.079,0.6133 -0.15123,1.22748 -0.23633,1.83984 1.75376,-1.42935 1.29994,-0.74273 3.5,-5.25781 0.56156,-9.08221 8.0026,-82.51968 -19.72656,9.58984 z m 11.88867,-0.25 c -0.60737,0.62117 -1.40091,1.47126 -2.1582,2.2793 1.15882,-0.35577 2.09202,-0.61371 2.85937,-0.80664 0.55022,-0.57771 1.0582,-1.27778 1.52735,-2.06055 -0.7306,0.2052 -1.47156,0.40225 -2.22852,0.58789 z m 0.70117,1.47266 c -0.2949,0.30964 -0.59705,0.59677 -0.91601,0.83008 -1.87453,1.37113 -4.92998,3.92644 -7.80274,6.13281 0.19678,0.39738 0.39631,0.79341 0.5918,1.19141 -0.23006,1.51961 -0.39982,2.82594 -0.58398,4.18554 2.29983,-0.70555 4.44015,-1.27801 6.26953,-1.5957 0.32583,-0.82792 0.62123,-1.60775 0.9082,-2.37305 1.14396,-4.12692 2.03999,-7.12145 2.55664,-8.62304 -0.29766,0.0681 -0.65193,0.15855 -1.02344,0.25195 z m 1.02344,-0.25195 c 0.11583,-0.0265 0.21639,-0.0487 0.32227,-0.0723 0.43141,-1.64968 0.36614,-1.9285 -0.32227,0.0723 z m -9.74219,7.21484 c -1.03401,-2.08812 -2.06565,-4.17776 -3.08398,-6.27344 -0.0367,0.006 -0.0727,0.0135 -0.10937,0.0195 0.0555,2.69772 0.29761,5.43995 0.56835,8.19336 0.82454,-0.57255 1.71688,-1.24198 2.625,-1.93945 z m 11.5918,-7.64063 c 0.0139,-0.004 0.0234,-0.008 0.0371,-0.0117 0.15297,-0.42444 0.27032,-0.81034 0.29688,-1.09961 -0.017,-0.0334 -4.5e-4,-0.0951 0.0137,-0.1543 0,0 0,-0.002 0,-0.002 -0.002,-0.12852 -0.0359,-0.22443 -0.0859,-0.30078 -0.0852,0.52286 -0.16937,1.04658 -0.26172,1.56835 z m 65.51563,-44.39648 c 1.70796,-1.38205 3.39152,-2.79597 5.0664,-4.2207 -1.00342,0.35494 -1.94055,0.67361 -2.63281,0.88281 l -4.57227,4.65039 c 0.71435,-0.4341 1.42726,-0.87192 2.13868,-1.3125 z m 5.0664,-4.2207 c 0.59233,-0.20953 1.11228,-0.40116 1.71289,-0.6211 0.21725,-0.32578 0.42982,-0.6549 0.65039,-0.97851 -0.16222,9.2e-4 -0.32405,0.002 -0.48632,0.002 -0.62506,0.53333 -1.25111,1.06528 -1.87696,1.59766 z m 56.67969,-17.54297 c 0.001,-0.001 0.002,-0.003 0.004,-0.004 -0.0577,0.012 -0.0523,-6.7e-4 -0.17188,0.0352 0.0443,-0.008 0.12694,-0.0239 0.16797,-0.0312 z M 534.50977,90.552734 c 1.48838,0.981675 3.08715,1.994002 4.85156,2.97461 1.10182,0.612356 2.5327,0.870772 3.61328,1.003906 -2.28694,-1.105482 -4.98095,-2.412354 -8.46484,-3.978516 z m 13.67968,0.19336 c -0.185,0.131148 1.95291,1.744125 2.82032,2.210937 3.78545,2.0372 5.70113,3.100582 7.16406,3.75586 -0.45078,-0.27503 -0.89535,-0.566226 -1.35742,-0.814453 0.46264,0.226798 1.08837,0.588427 1.75586,0.984374 0.26402,0.110314 0.54071,0.220466 0.78906,0.306641 -2.16648,-1.645955 -6.49546,-4.809936 -4.5625,-3.964844 2.8429,1.242921 5.83136,2.653857 8.10351,4.757813 0.806,0.133239 1.52747,0.250147 2.75977,0.457031 -0.74198,0.07874 -1.41093,0.13873 -2.08203,0.199219 0.0326,0.0347 0.0596,0.07431 0.0918,0.109375 3.76899,1.171788 8.08479,2.428013 6.00976,1.205078 -6.64835,-3.91824 -14.0334,-6.456211 -21.25976,-9.164063 -0.13178,-0.04938 -0.206,-0.0617 -0.23243,-0.04297 z m 10.38282,6.136718 c -0.13007,-0.05434 -0.26113,-0.108417 -0.39844,-0.169921 0.36871,0.224959 0.746,0.428053 1.13476,0.605468 -0.25843,-0.15641 -0.49128,-0.290188 -0.73632,-0.435547 z m -47.27149,-4.621093 c 0.36775,0.138163 0.73828,0.267835 1.11914,0.363281 0.26931,0.06749 0.7812,0.13435 1.28711,0.201172 -0.80199,-0.188875 -1.60298,-0.381742 -2.40625,-0.564453 z M 575.9668,103.0957 c 0.43306,5.21469 3.90478,5.94795 7.76953,5.91797 -0.60265,-0.3103 -1.15176,-0.57679 -1.78516,-0.91015 -2.30173,-1.21141 -3.98992,-3.3382 -5.98437,-5.00782 z m -173.86524,2.16602 c -0.0973,0.027 -0.1757,0.0461 -0.27539,0.0742 -0.38672,0.10895 -0.243,0.10738 0.0899,0.0664 0.0524,-0.0389 0.1343,-0.10269 0.18554,-0.14062 z m 196.83008,5.7832 c 0.0773,0.0906 0.64744,0.57177 1.80664,1.56641 -3.48399,1.7254 0.17761,2.4612 4.73828,2.79297 -4.08415,-2.5615 -6.72889,-4.57504 -6.54492,-4.35938 z m -219.14844,3.8457 c -0.0149,0.002 -0.03,0.004 -0.0449,0.006 -0.37802,0.20562 -0.95045,0.51608 -1.26367,0.68946 0.29897,-0.14194 0.82701,-0.43347 1.30859,-0.69532 z m 243.50977,2.97852 c -0.29583,0.11748 4.48301,3.34196 6.34961,4.30859 0.94523,0.4895 2.28005,0.91812 3.63476,1.30274 -3.14523,-1.87611 -6.20211,-3.92598 -9.52343,-5.45703 -0.27271,-0.12572 -0.41868,-0.17108 -0.46094,-0.1543 z m -262.27735,4.39844 c -1.43578,0.43469 -3.28683,1.06914 -4.71874,1.50195 -0.74024,0.38124 -1.47149,0.77755 -2.18946,1.19922 -1.45989,0.8574 3.4402,-0.50111 4.88672,-1.38086 0.68822,-0.41856 1.35868,-0.86413 2.02148,-1.32031 z m 315.57813,11.84961 c 0.006,0.008 0.0487,0.0396 0.13281,0.0996 1.34354,0.95938 2.17231,1.49982 3.0586,1.9082 -0.32035,-0.19599 -0.6406,-0.3919 -0.96094,-0.58789 -0.61217,-0.38512 -2.27496,-1.47526 -2.23047,-1.41992 z M 301.2207,135.4375 c -0.0407,-0.0128 -0.13909,0.0345 -0.30859,0.1543 -0.20324,0.14362 -0.39955,0.29616 -0.60156,0.4414 -0.88082,1.41199 -1.68066,2.73608 -2.1543,3.70899 0.80385,-1.21022 3.34907,-4.21485 3.06445,-4.30469 z m -5.74218,0.88672 -8.69336,8.84375 c 0.84448,-0.12584 1.68941,-0.25338 2.53125,-0.32813 0.11599,-0.0988 0.23161,-0.1981 0.34765,-0.29687 1.91358,-2.75582 3.90747,-5.45864 5.81446,-8.21875 z m -5.81446,8.21875 c -0.0664,0.0957 -0.133,0.19128 -0.19922,0.28711 0.013,-0.001 0.026,-9.2e-4 0.0391,-0.002 2.4255,-1.00429 4.79841,-2.06441 6.61132,-3.89453 0.98075,-0.99004 1.70318,-2.20695 2.31055,-3.51953 -3.00365,2.26685 -5.8917,4.68599 -8.76172,7.12891 z m -0.19922,0.28711 c -0.0495,0.004 -0.0989,0.005 -0.14843,0.01 -0.0506,0.0431 -0.10172,0.0858 -0.15235,0.12891 0.0957,-0.0394 0.19149,-0.0796 0.28711,-0.11914 0.005,-0.007 0.009,-0.013 0.0137,-0.0195 z m -3.04882,0.71289 -1.14844,1.16797 c 0.80985,-0.41545 1.64142,-0.79942 2.49023,-1.15625 -0.4472,-0.004 -0.8945,-0.005 -1.34179,-0.0117 z m -39.38672,23.2207 c -0.017,5e-4 -0.0658,0.0396 -0.15235,0.12891 l -0.11133,0.12109 c 0.0541,-0.0168 0.10779,-0.0321 0.16211,-0.0488 0.0659,-0.10726 0.12314,-0.2018 0.10157,-0.20117 z m -0.86719,1.25586 c -0.11323,0.0246 -0.29873,0.0687 -0.40625,0.0918 l -2.06055,2.24414 c 0.47796,-0.3437 0.94473,-0.69891 1.38086,-1.08399 0.28455,-0.25124 0.70072,-0.75704 1.08594,-1.25195 z m -10.99805,4.15625 c -2.33186,2.46053 -4.23932,4.53726 -5.97461,6.45508 0.69801,-0.53368 1.41456,-1.03855 2.14649,-1.51953 1.34108,-1.61463 2.67367,-3.23207 3.82812,-4.93555 z m -19.17383,21.77149 c -0.21162,1.17932 -0.82765,2.23403 -1.38281,3.31054 -0.0989,0.26264 -0.18938,0.51679 -0.24414,0.72852 -0.0476,0.18416 -0.38936,0.64717 -0.31836,0.4707 0.16404,-0.40761 0.35893,-0.80447 0.5625,-1.19922 0.37447,-0.99441 0.98498,-2.26182 1.38281,-3.31054 z m -5.28515,1.48828 c -0.17751,-0.007 -0.39584,0.0137 -0.64063,0.0508 -0.36311,0.38897 -0.61208,0.63493 -1.01172,1.07031 -0.45026,0.49053 2.31768,-1.09519 1.65235,-1.12109 z m 574.93359,0.35351 c 0.0584,0.06 0.64008,0.5888 0.89453,0.82422 -0.0372,-0.0605 -0.074,-0.12122 -0.11132,-0.18164 -0.54325,-0.46267 -0.9093,-0.77211 -0.78321,-0.64258 z m -596.28125,41.75977 c -1.35485,0.45873 -2.68541,0.94511 -3.91797,1.55078 -6.30522,1.93171 -1.88566,1.51612 3.91797,-1.55078 z m 661.01563,14.27929 c -0.60871,-0.0865 3.42211,8.21836 5.68945,13.33594 0.60401,0.4534 1.23199,0.91551 1.90625,1.4043 -2.03377,-4.80571 -3.82215,-9.74342 -6.87109,-13.9375 -0.39116,-0.53807 -0.62283,-0.78828 -0.72461,-0.80274 z m -2.69922,4.2168 c -0.0412,0.0312 0.22877,0.1713 0.32226,0.25 z m 6.16601,6.77735 c 0.12883,0.32892 0.29232,0.80162 0.54493,1.02148 0.0973,0.0847 0.25091,0.20084 0.36523,0.29492 -0.30336,-0.43892 -0.6068,-0.87748 -0.91016,-1.3164 z m 10.17969,11.74609 c 0.15807,0.32459 0.21558,0.48408 0.30274,0.69336 0.098,0.10606 0.20076,0.21543 0.27734,0.30859 -0.21613,-0.37482 -0.34648,-0.59825 -0.58008,-1.00195 z m 8.24414,8.44531 c 0.69518,3.32728 0.21875,1.3444 2.61719,6.22656 -0.87247,-2.07498 -1.74882,-4.14988 -2.61719,-6.22656 z m 22.39844,42.4336 c 0.10036,0.54697 0.20464,1.15996 0.29297,1.52734 0.0495,0.206 0.18709,0.50416 0.33984,0.81445 2.1652,2.67237 4.71958,5.87352 3.5957,4.09375 -1.66069,-2.62988 -3.05159,-4.73088 -4.22851,-6.43554 z m 28.64844,88.07226 c -0.0521,0.45414 -0.1096,0.90749 -0.16407,1.36133 -0.54685,-1.46412 -0.1743,-0.46521 0.12696,0.65234 0.007,-0.5713 0.0198,-1.14345 0.0156,-1.71289 -5.3e-4,-0.0732 0.0171,-0.20817 0.0215,-0.30078 z m 3.27539,16.64649 c -0.0401,-0.0915 0.33674,2.70797 0.45703,3.72851 0.0298,0.0776 0.0669,0.15312 0.0977,0.23047 -0.15633,-1.24481 -0.2986,-2.49246 -0.50976,-3.72852 -0.0247,-0.1447 -0.0392,-0.21739 -0.0449,-0.23046 z m 3.82812,8.17578 c -0.19516,0.0118 -0.11607,0.39104 -0.0742,0.58203 0.0104,0.0477 0.0227,0.0949 0.0332,0.14258 0.005,-0.0489 0.011,-0.0976 0.0156,-0.14649 0.0183,-0.19232 0.21827,-0.58981 0.0254,-0.57812 z m 1.8711,12.55859 c -0.0504,0.18638 -0.0908,0.37027 -0.0899,0.48633 0.001,0.16995 0.01,0.33982 0.0117,0.50976 0.0606,-0.27369 0.10719,-0.54954 0.16016,-0.82421 -0.0271,-0.0574 -0.0551,-0.11436 -0.082,-0.17188 z m 2.45898,18.85547 c -0.11669,-0.0716 -0.22696,2.38805 0.0293,3.23633 0.15858,0.52505 0.34688,1.04092 0.54883,1.55273 -0.11784,-1.18338 -0.28524,-2.66355 -0.5293,-4.58984 -0.0159,-0.12559 -0.0322,-0.189 -0.0488,-0.19922 z m 3.72852,111.02539 c -0.006,0.003 -0.0207,0.0276 -0.0449,0.0781 -0.66401,1.38763 -0.93333,3.19724 -1.07421,4.72851 0.22957,-1.1467 0.46355,-2.29272 0.68164,-3.44141 0.11465,-0.3752 0.47816,-1.38875 0.4375,-1.36523 z m -6.58594,39.61523 c -0.0171,0.045 -0.0306,0.0819 -0.0469,0.125 0.002,-0.004 0.007,-0.01 0.01,-0.0137 0.0117,-0.0358 0.0232,-0.0714 0.0371,-0.11133 z m 5.16992,9.89063 c 0.18197,-0.1459 -1.77219,1.09276 -7.54102,4.63281 -0.49931,0.61853 -0.99872,1.23695 -1.49804,1.85547 4.10373,-3.20546 8.77734,-6.27844 9.03906,-6.48828 z m -9.6875,7.29101 c -0.42894,0.53135 -0.85817,1.06241 -1.28711,1.59376 -0.0262,0.12355 -0.0472,0.21285 -0.0742,0.34179 -0.3464,1.65195 -0.20119,3.36975 -0.30078,5.05469 -0.006,0.10978 -0.0416,0.43696 -0.0156,0.33008 0.6953,-2.86604 1.23266,-5.24813 1.67773,-7.32032 z m -18.96484,28.3418 c -0.0825,0.0115 -0.16174,0.0157 -0.24024,0.0176 -0.13979,0.29402 -0.11929,0.36856 0.20508,0.0215 0.012,-0.0128 0.0232,-0.0263 0.0352,-0.0391 z m -36.9375,59.17969 c -0.83891,1.02024 -1.88911,2.1017 -2.34571,3.00977 0.76138,-1.01716 1.55506,-2.01225 2.34571,-3.00977 z m -4.76758,14.03516 c -0.0688,0.1916 -0.14233,0.38121 -0.18555,0.58007 -0.008,0.0381 -0.0115,0.0771 -0.0195,0.11524 0.0436,-0.0883 0.0887,-0.17089 0.13281,-0.25781 0.0237,-0.14589 0.0487,-0.2916 0.0723,-0.4375 z m -0.22266,1.3457 c -0.0373,0.0343 -0.0756,0.0572 -0.11328,0.084 -0.174,0.98834 -0.30905,1.98461 -0.46289,2.97657 -0.0407,0.26238 -0.15426,1.04969 -0.10351,0.78906 0.24883,-1.2782 0.46774,-2.56277 0.67968,-3.84961 z m 1.82032,11.39062 c -0.35627,-0.13492 -7.02541,7.95954 -7.88086,9.3711 -0.37691,0.62193 -0.48115,1.59201 -0.5918,2.52148 6.33682,-8.43401 8.67834,-11.81468 8.47266,-11.89258 z m -8.71876,21.45899 c 0.009,-0.18813 -2.01621,1.67028 -3.87695,3.6582 -0.0293,0.0732 -0.0604,0.14566 -0.0898,0.21875 0.47368,-0.35937 0.96579,-0.71301 1.49805,-1.05469 0,0 0.002,-0.002 0.002,-0.002 0.71398,-0.76926 1.4201,-1.54658 2.10742,-2.33984 0.24716,-0.28527 0.35735,-0.43702 0.35937,-0.48047 z m -3.96679,3.87695 c -0.12942,0.0982 -0.25938,0.19739 -0.38477,0.29688 -0.9626,1.05906 -1.8341,2.10727 -2.26172,2.86132 -0.0666,0.11755 -0.121,0.24085 -0.18554,0.35938 0.80933,-0.85831 1.62341,-1.7125 2.4375,-2.56641 0.13235,-0.31665 0.26618,-0.63291 0.39453,-0.95117 z m -0.38477,0.29688 c 0.15683,-0.17255 0.31378,-0.34381 0.47461,-0.51563 0.36489,-0.91284 0.71591,-1.831 1.04102,-2.75976 0.72467,-2.07027 -2.67916,3.48069 -3.85547,5.33203 -0.0271,0.0427 -0.0561,0.13349 -0.084,0.1875 0.72395,-0.78014 1.52252,-1.52902 2.42383,-2.24414 z m 1.02735,0.93945 c -0.024,-0.10045 -1.17129,0.58781 -1.48243,0.95898 -0.0589,0.0702 -0.11514,0.14252 -0.17382,0.21289 -0.13409,0.30615 -0.27126,0.61102 -0.40821,0.91602 0.67565,-0.65585 1.34508,-1.31645 2,-1.99219 0.0482,-0.0497 0.0679,-0.0813 0.0645,-0.0957 z m -2.06446,2.08789 c -0.50044,0.48578 -1.00448,0.96999 -1.51172,1.44922 -0.42313,0.53288 -0.84051,1.06983 -1.25781,1.60742 -1.34801,3.28713 -2.23042,6.7908 -3.48633,10.12109 2.00175,-4.42641 4.26628,-8.74645 6.25586,-13.17773 z m -1.51172,1.44922 c 0.63152,-0.79532 1.26952,-1.58519 1.91993,-2.36524 0.0884,-0.20188 0.17857,-0.40303 0.26562,-0.60546 -0.88037,0.90007 -1.67083,1.67099 -2.45898,2.43359 -0.23414,0.46521 -0.45536,0.93693 -0.66407,1.41406 0.31245,-0.29256 0.62643,-0.58305 0.9375,-0.87695 z m -48.67968,52.07617 c -1.2493,0.0759 -2.02408,1.13915 -2.76367,2.24024 1.08742,-0.73751 2.17587,-1.47279 3.25585,-2.22071 -0.17252,-0.0234 -0.33539,-0.0291 -0.49218,-0.0195 z m -23.5625,23.69727 c -0.73297,0.68616 -3.49358,3.21534 -4.79688,4.18554 -0.14979,0.24699 -0.30457,0.49075 -0.45117,0.74024 4.00675,-3.77658 5.83918,-5.47917 5.24805,-4.92578 z m 0.0742,2.375 c 0.12006,-0.0975 -2.47158,1.44704 -4.77149,2.87109 1.1549,-0.66681 2.52283,-1.46781 4.3086,-2.57617 0.2931,-0.18193 0.43762,-0.27441 0.46289,-0.29492 z m -7.52149,4.625 c -0.66923,0.45476 -1.17736,1.11048 -1.76562,1.66601 0.92102,-0.87247 1.0023,-0.9444 1.76562,-1.66601 z m 6.94531,1.42968 c -0.7439,0.004 -1.42674,0.0398 -1.87695,0.12891 -0.17905,0.0355 -0.35526,0.0814 -0.5332,0.12109 1.79499,0.0408 3.72013,0.0838 6.03711,0.0449 1.37667,-0.0231 -1.39524,-0.30575 -3.62696,-0.29493 z m -32.48437,18.21094 c -0.35162,0.29754 -0.70891,0.58897 -1.0586,0.88867 -0.62631,1.28313 -2.73831,4.98983 -1.8789,3.84961 1.10718,-1.46895 2.03475,-3.09349 2.9375,-4.73828 z m -57.02344,36.36914 c -0.90353,0.0107 -1.60091,0.0532 -1.91992,0.13477 -1.19011,0.30436 -2.36592,0.66507 -3.5293,1.06445 25.76057,-0.009 11.424,-1.27005 5.44922,-1.19922 z m -23.08984,8.22461 c -0.033,0.0122 -0.0667,0.0229 -0.0996,0.0352 -0.23849,0.0889 -0.89333,0.48741 -0.66797,0.36914 0.25606,-0.13438 0.51154,-0.26987 0.76758,-0.4043 z m -36.33789,3.60742 c -0.82804,0.27014 -1.64946,0.56912 -2.46875,0.87305 0.98869,0.1325 0.74137,0.29874 2.46875,-0.87305 z m -27.28516,8.81055 c 0.52208,0.0574 1.04367,0.12017 1.56641,0.16211 2.43943,0.19572 0.72875,-0.0596 -1.56641,-0.16211 z m -10.98047,2.28906 c -1.73488,0.72328 -3.37232,1.6194 -4.76953,2.8418 -4.15857,3.63829 -6.44776,8.97363 -9.67187,13.46094 8.45014,-8.89008 12.19681,-13.55645 14.4414,-16.30274 z" />
      <path
         style="fill:url(#linearGradient5803);fill-opacity:1;stroke:none;stroke-width:5.0999999px;stroke-linecap:butt;stroke-linejoin:miter;stroke-opacity:1"
         d="m 813.41211,180.09851 c -96.7262,23.03199 -554.16572,136.45147 -300.13672,163.91406 283.05,30.6 175.3125,317.47461 175.3125,317.47461 L 481.33203,1009.8524 A 470.5,470.5 0 0 0 511.5,1011.3622 470.5,470.5 0 0 0 982,540.86218 470.5,470.5 0 0 0 813.41211,180.09851 Z"
         id="path5763"
         inkscape:connector-curvature="0" />
      <path
         style="color:#000000;display:inline;overflow:visible;visibility:visible;opacity:1;fill:url(#linearGradient902);fill-opacity:1.0;fill-rule:nonzero;stroke:none;stroke-width:42.97708511;marker:none;enable-background:accumulate"
         d="M 511.5 42 A 470.5 470.5 0 0 0 117.05469 256.82422 L 327.40625 610.66211 C 327.40625 610.66211 321.77248 440.2109 335.85938 423.30664 C 349.94626 406.40236 418.97266 341.60352 418.97266 341.60352 L 513.35352 313.42969 L 508.24805 295.11719 L 926.95703 292.36328 A 470.5 470.5 0 0 0 511.5 42 z "
         id="circle900"
         transform="translate(0,28.36218)" />
      <circle
         style="color:#000000;display:inline;overflow:visible;visibility:visible;opacity:0.2;fill:#111111;fill-opacity:1;fill-rule:nonzero;stroke:none;stroke-width:18.96917343;marker:none;filter:url(#filter884);enable-background:accumulate"
         id="circle866"
         cx="512"
         cy="550.36218"
         r="216.99263" />
      <circle
         r="216.99263"
         cy="540.36218"
         cx="512"
         id="path5757"
         style="color:#000000;display:inline;overflow:visible;visibility:visible;opacity:1;fill:url(#linearGradient5852);fill-opacity:1;fill-rule:nonzero;stroke:none;stroke-width:18.96917343;marker:none;enable-background:accumulate" />
      <circle
         r="171.91457"
         cy="540.36218"
         cx="512"
         id="path5759"
         style="color:#000000;display:inline;overflow:visible;visibility:visible;opacity:1;fill:url(#linearGradient5787);fill-opacity:1.0;fill-rule:nonzero;stroke:none;stroke-width:15.02851677;marker:none;enable-background:accumulate" />
      <circle
         style="color:#000000;display:inline;overflow:visible;visibility:visible;fill:url(#linearGradient908);fill-opacity:1;fill-rule:nonzero;stroke:none;stroke-width:42.97708511;marker:none;enable-background:accumulate"
         id="circle906"
         cx="-987.15802"
         cy="519.2868"
         r="470.5" />
    </g>
  </g>
</svg>
