<?xml version="1.0" encoding="UTF-8" standalone="no"?>
<!-- Generator: flash2svg, http://dissentgraphics.com/tools/flash2svg -->

<svg
   xmlns:dc="http://purl.org/dc/elements/1.1/"
   xmlns:cc="http://creativecommons.org/ns#"
   xmlns:rdf="http://www.w3.org/1999/02/22-rdf-syntax-ns#"
   xmlns:svg="http://www.w3.org/2000/svg"
   xmlns="http://www.w3.org/2000/svg"
   xmlns:xlink="http://www.w3.org/1999/xlink"
   xmlns:sodipodi="http://sodipodi.sourceforge.net/DTD/sodipodi-0.dtd"
   xmlns:inkscape="http://www.inkscape.org/namespaces/inkscape"
   id="Sketch"
   image-rendering="optimizeSpeed"
   version="1.1"
   style="background-color:#ffffff"
   x="0px"
   y="0px"
   width="1024px"
   height="1024px"
   viewBox="0 0 1024 1024"
   enable-background="new 0 0 1024 1024"
   sodipodi:docname="inkscape.svg"
   inkscape:version="0.92.2 (5c3e80d, 2017-08-06)">
  <metadata
     id="metadata28">
    <rdf:RDF>
      <cc:Work
         rdf:about="">
        <dc:format>image/svg+xml</dc:format>
        <dc:type
           rdf:resource="http://purl.org/dc/dcmitype/StillImage" />
        <dc:title />
      </cc:Work>
    </rdf:RDF>
  </metadata>
  <sodipodi:namedview
     pagecolor="#ffffff"
     bordercolor="#666666"
     borderopacity="1"
     objecttolerance="10"
     gridtolerance="10"
     guidetolerance="10"
     inkscape:pageopacity="0"
     inkscape:pageshadow="2"
     inkscape:window-width="1440"
     inkscape:window-height="764"
     id="namedview26"
     showgrid="true"
     inkscape:zoom="0.55175781"
     inkscape:cx="512"
     inkscape:cy="512"
     inkscape:window-x="0"
     inkscape:window-y="25"
     inkscape:window-maximized="1"
     inkscape:current-layer="Sketch"
     inkscape:pagecheckerboard="true">
    <inkscape:grid
       type="xygrid"
       id="grid835" />
  </sodipodi:namedview>
  <defs
     transform="matrix(1 0 0 1 0 0) "
     id="defs2">
    <linearGradient
       id="linearGradient841"
       inkscape:collect="always">
      <stop
         id="stop837"
         offset="0"
         style="stop-color:#ffffff;stop-opacity:1" />
      <stop
         id="stop839"
         offset="1"
         style="stop-color:#d7d7d7;stop-opacity:1" />
    </linearGradient>
    <linearGradient
       inkscape:collect="always"
       id="linearGradient837">
      <stop
         style="stop-color:#ffffff;stop-opacity:1;"
         offset="0"
         id="stop833" />
      <stop
         style="stop-color:#d7d7d7;stop-opacity:1"
         offset="1"
         id="stop835" />
    </linearGradient>
    <linearGradient
       inkscape:collect="always"
       xlink:href="#linearGradient841"
       id="linearGradient839"
       x1="540"
       y1="4"
       x2="540"
       y2="1024"
       gradientUnits="userSpaceOnUse" />
    <linearGradient
       gradientTransform="matrix(3.5223332,0,0,3.5223332,162.38344,167.0873)"
       inkscape:collect="always"
       xlink:href="#linearGradient837"
       id="linearGradient6211"
       x1="101.52832"
       y1="18.887709"
       x2="101.52832"
       y2="183.55128"
       gradientUnits="userSpaceOnUse" />
    <linearGradient
       id="linearGradient4829">
      <stop
         style="stop-color:#f4fbfc;stop-opacity:1;"
         offset="0"
         id="stop4831" />
      <stop
         style="stop-color:#d6d6d6;stop-opacity:1;"
         offset="1"
         id="stop4833" />
    </linearGradient>
    <filter
       inkscape:collect="always"
       style="color-interpolation-filters:sRGB"
       id="filter866"
       x="-0.035762828"
       width="1.0715257"
       y="-0.036240338"
       height="1.0724807">
      <feGaussianBlur
         inkscape:collect="always"
         stdDeviation="7.629403"
         id="feGaussianBlur868" />
    </filter>
    <linearGradient
       gradientTransform="matrix(0.99609375,0,0,0.99609375,2.00045,1.89995)"
       inkscape:collect="always"
       xlink:href="#linearGradient855"
       id="linearGradient857"
       x1="540.1098"
       y1="2.0078433"
       x2="540.1098"
       y2="1026.0078"
       gradientUnits="userSpaceOnUse" />
    <linearGradient
       inkscape:collect="always"
       id="linearGradient855">
      <stop
         style="stop-color:#333333;stop-opacity:1"
         offset="0"
         id="stop851" />
      <stop
         id="stop4553"
         offset="0.50769234"
         style="stop-color:#333333;stop-opacity:1" />
      <stop
         style="stop-color:#4a4a4a;stop-opacity:1"
         offset="1"
         id="stop853" />
    </linearGradient>
  </defs>
  <g
     id="shadow"
     transform="matrix(0.99609375,0,0,0.99609375,2,2)">
    <g
       id="shape">
      <path
         id="path"
         d="m 986.739,315.98644 q -9.3288,-22.61695 -21.0441,-44.31186 c -4.3932,-8.18983 -9.0576,-16.32543 -13.9932,-24.29831 C 930.49492,212.98983 904.62373,180.50169 874.08814,149.9661 774.12881,50.00678 653.39661,0 512,0 370.60339,0 249.92542,50.00678 149.9661,149.9661 50.00678,249.92542 0,370.60339 0,512 0,653.39661 50.00678,774.12881 149.9661,874.08814 249.92542,974.04746 370.60339,1024 512,1024 653.39661,1024 774.12881,974.04746 874.08814,874.08814 929.13898,818.98305 969.0576,757.58644 993.7898,689.95254 1013.9119,634.79322 1024,575.51186 1024,512 c 0,-48.70508 -5.9119,-94.96949 -17.7898,-138.79322 -1.356,-4.93559 -2.7661,-9.87119 -4.2305,-14.75254 -4.4475,-14.42712 -9.5458,-28.58305 -15.2407,-42.4678 z"
         style="fill:url(#linearGradient839);fill-opacity:1;stroke-width:1.08474576"
         inkscape:connector-curvature="0" />
    </g>
  </g>
  <g
     id="Symbole.__202"
     transform="matrix(1.0007311,0,0,1.0007311,-0.9246287,0.1759823)">
    <g
       id="shape2">
      <path
         id="path1-3"
         d="m 967.96235,392.4185 c -1.0957,-4.33301 -2.3408,-8.96484 -3.6357,-13.54688 -0.9961,-3.38671 -1.9922,-6.82324 -3.1377,-10.45898 -1.5938,-5.12988 -3.3867,-10.45898 -5.2793,-15.78809 -6.4248,-18.17871 -14.0947,-35.90918 -23.0596,-53.44043 -3.7851,-7.37109 -7.9189,-14.8916 -12.2519,-22.3125 -20.2207,-34.36523 -45.6211,-66.93749 -76.0518,-97.36816 -72.3164,-72.3164 -156.5361,-116.19433 -252.65919,-131.53418 -16.18652,-2.58984 -32.67187,-4.38281 -49.85449,-5.3291 -9.66211,-0.54785 -19.77245,-0.84668 -29.98242,-0.84668 -9.31348,0 -18.52734,0.24902 -27.79102,0.74707 C 366.37154,48.61674 264.81979,94.28764 179.60397,179.50346 Q 41.894,317.21342 41.894,511.94975 c 0,129.84082 45.91993,240.70605 137.70997,332.49609 56.47852,56.42871 120.07909,95.52539 190.35352,117.09086 36.60644,11.206 74.5078,17.7802 114.30174,19.872 0.14942,0 0.24903,0 0.39844,0 8.4668,0.4483 16.53517,0.6973 24.4043,0.6973 1.19531,0 2.0918,0 2.98828,0 10.25977,0 20.41992,-0.2988 29.98242,-0.7969 2.49024,-0.1494 4.73145,-0.2988 6.92285,-0.4482 20.1211,-1.4443 39.74414,-4.0342 58.47071,-7.6699 7.91894,-1.544 15.73828,-3.2872 23.30859,-5.1299 80.48443,-20.22073 151.55563,-61.3594 213.81153,-123.61526 48.4102,-48.41015 84.0703,-102.09961 106.9307,-161.16797 18.3779,-47.46386 28.538,-98.41406 30.4306,-152.90039 0.1992,-6.02636 0.2989,-12.20214 0.2989,-18.42773 0,-0.64746 0,-1.34473 0,-1.99219 0,-0.34863 0,-0.64746 0,-0.99609 -0.1993,-40.49121 -4.9307,-79.18945 -14.2442,-116.54297 z"
         style="fill:url(#linearGradient857);fill-opacity:1;stroke:none;stroke-width:0.99609375;stroke-opacity:1"
         inkscape:connector-curvature="0" />
    </g>
  </g>
  <path
     style="opacity:0.2;fill:#000000;fill-opacity:1;stroke-width:3.21007299;filter:url(#filter866)"
     id="path852"
     d="m 509.85438,281.88543 c -15.83327,-0.0321 -31.57248,5.72488 -42.93473,17.35446 L 277.9266,492.64678 c -63.86777,79.09251 43.46898,69.9101 89.48079,92.69086 16.50517,16.87102 -63.25186,29.25972 -46.74669,46.1448 16.50517,16.87099 99.73154,32.48388 116.26483,49.35487 16.50517,16.87089 -33.75931,34.79125 -17.25414,51.66211 16.50517,16.87118 54.6459,0.87683 61.7939,39.82497 5.09368,27.8323 68.86088,11.96073 100.01384,-10.834 16.50517,-16.88498 -31.55239,-15.22987 -15.04722,-32.10072 41.04476,-41.97363 79.24999,-15.32213 93.29275,-57.38006 6.93693,-20.78269 -60.47117,-31.98231 -43.93788,-48.8533 47.48928,-27.73374 211.60196,-45.80572 133.71956,-123.68812 L 553.59162,299.23989 c -11.98137,-11.50295 -27.90398,-17.32281 -43.73724,-17.35446 z m 1.60503,18.35761 c 11.30421,0.0597 22.58447,4.32194 30.69632,12.53934 l 74.83483,75.93829 C 624.08229,395.96719 623.96801,409.96166 620,414 l -37.11646,-29.69318 -7.32298,44.03819 -30.99727,-16.35131 -49.75613,31.29821 -16.45163,-66.10744 -26.68373,46.1448 H 410.944 c -16.6318,0 -18.62314,-21.10151 -3.51101,-36.21363 26.397,-28.49357 56.66651,-57.50445 73.12947,-74.33326 8.27367,-8.45658 19.59274,-12.59915 30.89695,-12.53934 z m -89.78173,295.52734 c 5.05147,3.13781 81.44206,18.6727 100.11415,21.76831 6.4726,1.36489 1.89892,8.03667 -7.02203,12.53934 -20.12138,5.34696 -117.71617,-34.30765 -93.09212,-34.30765 z m 297.13238,53.16683 c -15.37246,0.52941 -30.52988,8.34722 -34.70891,23.0724 0,9.59635 70.62159,15.94469 70.62159,-2.20692 -5.0374,-14.57746 -20.54022,-21.39488 -35.91268,-20.86548 z m -324.21737,41.53032 c -22.15942,-0.20544 -48.10538,16.04671 -28.99097,32.6023 16.74435,14.47904 42.60496,-3.66911 50.35802,-23.87491 -4.56292,-6.0628 -12.69597,-8.64695 -21.36705,-8.72739 z m 280.58044,1.30409 c -21.58475,19.36156 2.39908,38.99212 23.67429,26.4831 4.74189,-4.81222 -0.10561,-21.67088 -23.67429,-26.4831 z"
     inkscape:connector-curvature="0"
     transform="matrix(1.0972751,0,0,1.0972751,-51.548271,-56.396214)" />
  <path
     inkscape:connector-curvature="0"
     d="m 507.90227,241.93692 c -17.37345,-0.0352 -34.64369,6.28177 -47.11121,19.04261 L 253.41368,473.20011 c -70.08051,86.78624 47.69743,76.71061 98.18505,101.70738 18.11071,18.51215 -69.40469,32.10596 -51.29398,50.63354 18.11071,18.51212 109.43294,35.64375 127.57451,54.15587 18.11071,18.51201 -37.04325,38.17557 -18.93254,56.68755 18.11071,18.51233 59.96159,0.96212 67.80491,43.69895 5.58917,30.53969 75.55933,13.12421 109.7427,-11.88788 18.11071,-18.52747 -34.62165,-16.71136 -16.51094,-35.22332 45.0374,-46.05662 86.95904,-16.81259 102.36782,-62.96172 7.61172,-22.80432 -66.35352,-35.09339 -48.21195,-53.60551 52.10881,-30.43154 232.18557,-50.26148 146.72715,-135.7199 L 555.89406,260.97953 c -13.14686,-12.6219 -30.61834,-19.00788 -47.99179,-19.04261 z m 1.76116,20.14335 c 12.40383,0.0655 24.78138,4.74235 33.68231,13.7591 l 82.1144,83.3252 c 7.78158,7.95143 7.65618,23.30721 3.30218,27.73838 l -40.72696,-32.58159 -8.03533,48.32201 -34.01253,-17.94188 -54.59617,34.34275 -18.05196,-72.53805 -29.2794,50.63354 h -44.6896 c -18.24966,0 -20.43471,-23.15417 -3.85254,-39.73632 28.96477,-31.26529 62.17875,-63.0982 80.24315,-81.56404 9.07849,-9.27919 21.49862,-13.82473 33.90245,-13.7591 z m -98.51526,324.2748 c 5.54285,3.44304 89.36435,20.48909 109.85277,23.88583 7.10222,1.49766 2.08364,8.81844 -7.7051,13.7591 -22.07869,5.86709 -129.16703,-37.64493 -102.14767,-37.64493 z m 326.03598,58.33864 c -16.86782,0.58091 -33.49968,9.1592 -38.08523,25.31677 0,10.52984 77.49132,17.49572 77.49132,-2.42159 -5.52741,-15.99549 -22.53827,-23.47607 -39.40609,-22.89518 z M 381.42848,690.2639 c -24.31498,-0.22542 -52.78483,17.60766 -31.81107,35.7737 18.37316,15.88749 46.74937,-4.02603 55.25661,-26.19735 -5.00678,-6.65256 -13.93097,-9.48808 -23.44554,-9.57635 z m 307.87395,1.43095 c -23.68441,21.24496 2.63245,42.78508 25.97721,29.05924 5.20316,-5.28032 -0.11588,-23.77891 -25.97721,-29.05924 z"
     id="path5650"
     style="fill:url(#linearGradient6211);fill-opacity:1;stroke-width:3.52233338" />
</svg>
