<?xml version="1.0" encoding="UTF-8" standalone="no"?>
<!-- Generator: flash2svg, http://dissentgraphics.com/tools/flash2svg -->

<svg
   xmlns:dc="http://purl.org/dc/elements/1.1/"
   xmlns:cc="http://creativecommons.org/ns#"
   xmlns:rdf="http://www.w3.org/1999/02/22-rdf-syntax-ns#"
   xmlns:svg="http://www.w3.org/2000/svg"
   xmlns="http://www.w3.org/2000/svg"
   xmlns:xlink="http://www.w3.org/1999/xlink"
   xmlns:sodipodi="http://sodipodi.sourceforge.net/DTD/sodipodi-0.dtd"
   xmlns:inkscape="http://www.inkscape.org/namespaces/inkscape"
   id="Iterm"
   image-rendering="optimizeSpeed"
   version="1.1"
   style="background-color:#ffffff"
   x="0px"
   y="0px"
   width="1024px"
   height="1024px"
   viewBox="0 0 1024 1024"
   enable-background="new 0 0 1024 1024"
   sodipodi:docname="terminal.svg"
   inkscape:version="0.92.3 (2405546, 2018-03-11)">
  <metadata
     id="metadata34">
    <rdf:RDF>
      <cc:Work
         rdf:about="">
        <dc:format>image/svg+xml</dc:format>
        <dc:type
           rdf:resource="http://purl.org/dc/dcmitype/StillImage" />
        <dc:title />
      </cc:Work>
    </rdf:RDF>
  </metadata>
  <sodipodi:namedview
     pagecolor="#ffffff"
     bordercolor="#666666"
     borderopacity="1"
     objecttolerance="10"
     gridtolerance="10"
     guidetolerance="10"
     inkscape:pageopacity="0"
     inkscape:pageshadow="2"
     inkscape:window-width="1920"
     inkscape:window-height="850"
     id="namedview32"
     showgrid="true"
     inkscape:zoom="0.546875"
     inkscape:cx="201.14286"
     inkscape:cy="512"
     inkscape:window-x="0"
     inkscape:window-y="25"
     inkscape:window-maximized="1"
     inkscape:current-layer="Iterm"
     inkscape:pagecheckerboard="true">
    <inkscape:grid
       type="xygrid"
       id="grid841" />
  </sodipodi:namedview>
  <defs
     transform="matrix(1 0 0 1 0 0) "
     id="defs2">
    <linearGradient
       inkscape:collect="always"
       id="linearGradient858">
      <stop
         style="stop-color:#ffffff;stop-opacity:1;"
         offset="0"
         id="stop854" />
      <stop
         style="stop-color:#d7d7d7;stop-opacity:1"
         offset="1"
         id="stop856" />
    </linearGradient>
    <linearGradient
       id="linearGradient854"
       inkscape:collect="always">
      <stop
         id="stop849"
         offset="0"
         style="stop-color:#ffffff;stop-opacity:1" />
      <stop
         id="stop852"
         offset="1"
         style="stop-color:#d7d7d7;stop-opacity:1" />
    </linearGradient>
    <linearGradient
       inkscape:collect="always"
       id="linearGradient863">
      <stop
         style="stop-color:#ffffff;stop-opacity:1;"
         offset="0"
         id="stop859" />
      <stop
         style="stop-color:#d7d7d7;stop-opacity:1"
         offset="1"
         id="stop861" />
    </linearGradient>
    <linearGradient
       inkscape:collect="always"
       id="linearGradient855">
      <stop
         style="stop-color:#333333;stop-opacity:1"
         offset="0"
         id="stop851" />
      <stop
         id="stop4553"
         offset="0.50769234"
         style="stop-color:#333333;stop-opacity:1" />
      <stop
         style="stop-color:#4a4a4a;stop-opacity:1"
         offset="1"
         id="stop853" />
    </linearGradient>
    <linearGradient
       inkscape:collect="always"
       xlink:href="#linearGradient855"
       id="linearGradient857"
       x1="540.1098"
       y1="2.0078433"
       x2="540.1098"
       y2="1026.0078"
       gradientUnits="userSpaceOnUse" />
    <linearGradient
       inkscape:collect="always"
       xlink:href="#linearGradient854"
       id="linearGradient865"
       x1="500"
       y1="4"
       x2="500"
       y2="1024"
       gradientUnits="userSpaceOnUse" />
    <linearGradient
       inkscape:collect="always"
       xlink:href="#linearGradient863"
       id="linearGradient885"
       gradientUnits="userSpaceOnUse"
       x1="367.89999"
       y1="339.89999"
       x2="367.89999"
       y2="519.90002"
       gradientTransform="translate(98.2207,87.22461)" />
    <linearGradient
       inkscape:collect="always"
       xlink:href="#linearGradient858"
       id="linearGradient860"
       x1="676.12073"
       y1="297.1246"
       x2="676.12073"
       y2="697.12463"
       gradientUnits="userSpaceOnUse" />
    <filter
       inkscape:collect="always"
       style="color-interpolation-filters:sRGB"
       id="filter886"
       x="-0.042650555"
       width="1.0853011"
       y="-0.031143721"
       height="1.0622874">
      <feGaussianBlur
         inkscape:collect="always"
         stdDeviation="4.9310891"
         id="feGaussianBlur888" />
    </filter>
  </defs>
  <g
     id="shadow"
     transform="matrix(0.99609375,0,0,0.99609375,2,2)">
    <g
       id="shape">
      <path
         id="path"
         d="m 986.739,315.98644 q -9.3288,-22.61695 -21.0441,-44.31186 c -4.3932,-8.18983 -9.0576,-16.32543 -13.9932,-24.29831 C 930.49492,212.98983 904.62373,180.50169 874.08814,149.9661 774.12881,50.00678 653.39661,0 512,0 370.60339,0 249.92542,50.00678 149.9661,149.9661 50.00678,249.92542 0,370.60339 0,512 0,653.39661 50.00678,774.12881 149.9661,874.08814 249.92542,974.04746 370.60339,1024 512,1024 653.39661,1024 774.12881,974.04746 874.08814,874.08814 929.13898,818.98305 969.0576,757.58644 993.7898,689.95254 1013.9119,634.79322 1024,575.51186 1024,512 c 0,-48.70508 -5.9119,-94.96949 -17.7898,-138.79322 -1.356,-4.93559 -2.7661,-9.87119 -4.2305,-14.75254 -4.4475,-14.42712 -9.5458,-28.58305 -15.2407,-42.4678 z"
         style="fill:url(#linearGradient865);fill-opacity:1;stroke-width:1.08474576"
         inkscape:connector-curvature="0" />
    </g>
  </g>
  <g
     id="shape2"
     transform="matrix(0.99609375,0,0,0.99609375,2,2)">
    <path
       inkscape:connector-curvature="0"
       style="fill:url(#linearGradient857);fill-opacity:1;stroke:none;stroke-opacity:1"
       d="m 969.75,392.05 c -1.1,-4.35 -2.35,-9 -3.65,-13.6 -1,-3.4 -2,-6.85 -3.15,-10.5 -1.6,-5.15 -3.4,-10.5 -5.3,-15.85 -6.45,-18.25 -14.15,-36.05 -23.15,-53.65 -3.8,-7.4 -7.95,-14.95 -12.3,-22.4 -20.3,-34.5 -45.8,-67.2 -76.35,-97.75 C 773.25,105.7 688.7,61.65 592.2,46.25 c -16.25,-2.6 -32.8,-4.4 -50.05,-5.35 -9.7,-0.55 -19.85,-0.85 -30.1,-0.85 -9.35,0 -18.6,0.25 -27.9,0.75 C 365.8,46.9 263.85,92.75 178.3,178.3 Q 40.05,316.55 40.05,512.05 c 0,130.35 46.1,241.65 138.25,333.8 56.7,56.65 120.55,95.9 191.1,117.55 36.75,11.25 74.8,17.85 114.75,19.95 0.15,0 0.25,0 0.4,0 8.5,0.45 16.6,0.7 24.5,0.7 1.2,0 2.1,0 3,0 10.3,0 20.5,-0.3 30.1,-0.8 2.5,-0.15 4.75,-0.3 6.95,-0.45 20.2,-1.45 39.9,-4.05 58.7,-7.7 7.95,-1.55 15.8,-3.3 23.4,-5.15 80.8,-20.3 152.15,-61.6 214.65,-124.1 48.6,-48.6 84.4,-102.5 107.35,-161.8 18.45,-47.65 28.65,-98.8 30.55,-153.5 0.2,-6.05 0.3,-12.25 0.3,-18.5 0,-0.65 0,-1.35 0,-2 0,-0.35 0,-0.65 0,-1 -0.2,-40.65 -4.95,-79.5 -14.3,-117 z"
       id="path1" />
  </g>
  <mask
     id="bg1">
    <g
       id="g">
      <g
         id="shape16">
        <path
           id="path10"
           fill="#FFFFFF"
           fill-opacity="1"
           d="M969.75,392.05 C968.65,387.7 967.4,383.05 966.1,378.45 965.1,375.05 964.1,371.6 962.95,367.95 961.35,362.8 959.55,357.45 957.65,352.1 951.2,333.85 943.5,316.05 934.5,298.45 930.7,291.05 926.55,283.5 922.2,276.05 901.9,241.55 876.4,208.85 845.85,178.3 773.25,105.7 688.7,61.65 592.2,46.25 575.95,43.65 559.4,41.85 542.15,40.9 532.45,40.35 522.3,40.05 512.05,40.05 502.7,40.05 493.45,40.3 484.15,40.8 365.8,46.9 263.85,92.75 178.3,178.3 Q40.05,316.55 40.05,512.05 C40.05,642.4 86.15,753.7 178.3,845.85 235,902.5 298.85,941.75 369.4,963.4 406.15,974.65 444.2,981.25 484.15,983.35 484.3,983.35 484.4,983.35 484.55,983.35 493.05,983.8 501.15,984.05 509.05,984.05 510.25,984.05 511.15,984.05 512.05,984.05 522.35,984.05 532.55,983.75 542.15,983.25 544.65,983.1 546.9,982.95 549.1,982.8 569.3,981.35 589,978.75 607.8,975.1 615.75,973.55 623.6,971.8 631.2,969.95 712,949.65 783.35,908.35 845.85,845.85 894.45,797.25 930.25,743.35 953.2,684.05 971.65,636.4 981.85,585.25 983.75,530.55 983.95,524.5 984.05,518.3 984.05,512.05 984.05,511.4 984.05,510.7 984.05,510.05 984.05,509.7 984.05,509.4 984.05,509.05 983.85,468.4 979.1,429.55 969.75,392.05z" />
      </g>
    </g>
  </mask>
  <g
     id="g868"
     transform="translate(-16.1207,6.87539)"
     style="fill:#000000;fill-opacity:1;filter:url(#filter886);opacity:0.2">
    <g
       id="g866"
       style="fill:#000000;fill-opacity:1">
      <path
         inkscape:connector-curvature="0"
         d="m 434.27109,432.32383 c -4.9,0 -9.09961,1.75 -12.59961,5.25 -3.45,3.45 -5.20117,7.65078 -5.20117,12.55078 0,4.9 1.75117,9.10078 5.20117,12.55078 l 54.44922,54.44922 -54.40039,54.40039 c -3.5,3.5 -5.24883,7.69961 -5.29883,12.59961 0.05,4.9 1.8,9.10078 5.25,12.55078 3.5,3.45 7.69883,5.2 12.54883,5.25 4.95,0 9.15039,-1.75 12.65039,-5.25 l 60.5,-60.55078 c 12.7,-12.65 12.7,-25.35078 0,-38.05078 L 446.81992,437.525 c -3.46667,-3.46667 -7.64883,-5.20117 -12.54883,-5.20117 z"
         style="fill:#000000;fill-opacity:1"
         id="path862" />
      <rect
         rx="20"
         y="307.89999"
         x="653.90002"
         height="380"
         width="40"
         id="rect864"
         style="opacity:1;fill:#000000;fill-opacity:1;stroke:none;stroke-width:30;stroke-linecap:square;stroke-linejoin:miter;stroke-miterlimit:10;stroke-dasharray:none;stroke-opacity:1;paint-order:stroke markers fill" />
    </g>
  </g>
  <g
     transform="translate(-16.1207,-3.12461)"
     id="Calque.__206-3">
    <g
       id="shape18-6">
      <path
         id="path11-7"
         style="fill:url(#linearGradient885);fill-opacity:1"
         d="m 434.27109,432.32383 c -4.9,0 -9.09961,1.75 -12.59961,5.25 -3.45,3.45 -5.20117,7.65078 -5.20117,12.55078 0,4.9 1.75117,9.10078 5.20117,12.55078 l 54.44922,54.44922 -54.40039,54.40039 c -3.5,3.5 -5.24883,7.69961 -5.29883,12.59961 0.05,4.9 1.8,9.10078 5.25,12.55078 3.5,3.45 7.69883,5.2 12.54883,5.25 4.95,0 9.15039,-1.75 12.65039,-5.25 l 60.5,-60.55078 c 12.7,-12.65 12.7,-25.35078 0,-38.05078 L 446.81992,437.525 c -3.46667,-3.46667 -7.64883,-5.20117 -12.54883,-5.20117 z"
         inkscape:connector-curvature="0" />
      <rect
         style="opacity:1;fill:url(#linearGradient860);fill-opacity:1;stroke:none;stroke-width:30;stroke-linecap:square;stroke-linejoin:miter;stroke-miterlimit:10;stroke-dasharray:none;stroke-opacity:1;paint-order:stroke markers fill"
         id="rect4551"
         width="40"
         height="380"
         x="653.90002"
         y="307.89999"
         rx="20" />
    </g>
  </g>
</svg>
