<?xml version="1.0" encoding="UTF-8" standalone="no"?>
<!-- Generator: flash2svg, http://dissentgraphics.com/tools/flash2svg -->

<svg
   xmlns:dc="http://purl.org/dc/elements/1.1/"
   xmlns:cc="http://creativecommons.org/ns#"
   xmlns:rdf="http://www.w3.org/1999/02/22-rdf-syntax-ns#"
   xmlns:svg="http://www.w3.org/2000/svg"
   xmlns="http://www.w3.org/2000/svg"
   xmlns:xlink="http://www.w3.org/1999/xlink"
   xmlns:sodipodi="http://sodipodi.sourceforge.net/DTD/sodipodi-0.dtd"
   xmlns:inkscape="http://www.inkscape.org/namespaces/inkscape"
   id="Calculator"
   image-rendering="optimizeSpeed"
   version="1.1"
   style="background-color:#FFFFFF"
   x="0px"
   y="0px"
   width="1024px"
   height="1024px"
   viewBox="0 0 1024 1024"
   enable-background="new 0 0 1024 1024"
   sodipodi:docname="pithos.svg"
   inkscape:export-filename="/home/unc/OSX/calculator-app.png"
   inkscape:export-xdpi="4.5"
   inkscape:export-ydpi="4.5"
   inkscape:version="0.92.3 (2405546, 2018-03-11)">
  <metadata
     id="metadata33">
    <rdf:RDF>
      <cc:Work
         rdf:about="">
        <dc:format>image/svg+xml</dc:format>
        <dc:type
           rdf:resource="http://purl.org/dc/dcmitype/StillImage" />
        <dc:title />
      </cc:Work>
    </rdf:RDF>
  </metadata>
  <sodipodi:namedview
     pagecolor="#ffffff"
     bordercolor="#666666"
     borderopacity="1"
     objecttolerance="10"
     gridtolerance="10"
     guidetolerance="10"
     inkscape:pageopacity="0"
     inkscape:pageshadow="2"
     inkscape:window-width="1920"
     inkscape:window-height="850"
     id="namedview31"
     showgrid="true"
     inkscape:pagecheckerboard="true"
     inkscape:zoom="0.6171875"
     inkscape:cx="211.44304"
     inkscape:cy="569.05954"
     inkscape:window-x="0"
     inkscape:window-y="25"
     inkscape:window-maximized="1"
     inkscape:current-layer="Calculator">
    <inkscape:grid
       type="xygrid"
       id="grid845" />
  </sodipodi:namedview>
  <defs
     transform="matrix(1 0 0 1 0 0) "
     id="defs2">
    <linearGradient
       inkscape:collect="always"
       id="linearGradient856">
      <stop
         style="stop-color:#00e676;stop-opacity:1;"
         offset="0"
         id="stop852" />
      <stop
         style="stop-color:#00ad59;stop-opacity:1"
         offset="1"
         id="stop854" />
    </linearGradient>
    <linearGradient
       inkscape:collect="always"
       id="linearGradient1044">
      <stop
         style="stop-color:#ffffff;stop-opacity:1"
         offset="0"
         id="stop1040" />
      <stop
         style="stop-color:#d7d7d7;stop-opacity:1"
         offset="1"
         id="stop1042" />
    </linearGradient>
    <linearGradient
       id="linearGradient840"
       inkscape:collect="always">
      <stop
         id="stop835"
         offset="0"
         style="stop-color:#ffffff;stop-opacity:1" />
      <stop
         id="stop838"
         offset="1"
         style="stop-color:#d7d7d7;stop-opacity:1" />
    </linearGradient>
    <linearGradient
       inkscape:collect="always"
       xlink:href="#linearGradient840"
       id="linearGradient843"
       x1="520"
       y1="4"
       x2="520.03137"
       y2="1026.0078"
       gradientUnits="userSpaceOnUse" />
    <linearGradient
       y2="122.126"
       x2="465.85699"
       y1="315.87399"
       x1="659.604"
       gradientUnits="userSpaceOnUse"
       id="grd5">
      <stop
         id="stop27"
         stop-color="#3022ad"
         offset="0" />
      <stop
         id="stop29"
         stop-color="#c86dd7"
         offset="1" />
    </linearGradient>
    <clipPath
       id="cp2"
       clipPathUnits="userSpaceOnUse">
      <path
         id="path32"
         d="m 541.99,150.5 v 0 c -13.75,0 -20.63,0 -28.03,2.34 -8.08,2.94 -14.45,9.31 -17.39,17.39 -2.34,7.4 -2.34,14.28 -2.34,28.03 v 41.47 c 0,13.75 0,20.63 2.34,28.03 2.94,8.08 9.31,14.45 17.39,17.39 7.4,2.34 14.28,2.34 28.03,2.34 h 41.47 c 13.75,0 20.63,0 28.03,-2.34 8.08,-2.94 14.45,-9.31 17.39,-17.39 2.34,-7.4 2.34,-14.28 2.34,-28.03 v -41.47 c 0,-13.75 0,-20.63 -2.34,-28.03 -2.94,-8.08 -9.31,-14.45 -17.39,-17.39 -7.4,-2.34 -14.28,-2.34 -28.03,-2.34 h -41.47"
         inkscape:connector-curvature="0" />
    </clipPath>
    <linearGradient
       id="grd4"
       gradientUnits="userSpaceOnUse"
       x1="334.948"
       y1="284.12601"
       x2="141.201"
       y2="477.87399">
      <stop
         offset="0"
         stop-color="#fad961"
         id="stop22"
         style="stop-color:#00e676;stop-opacity:1" />
      <stop
         offset="1"
         stop-color="#f66b1c"
         id="stop24"
         style="stop-color:#00e676;stop-opacity:1" />
    </linearGradient>
    <linearGradient
       y2="46"
       y1="2"
       x2="24"
       x1="24"
       gradientUnits="userSpaceOnUse"
       id="linearGradient4195"
       gradientTransform="matrix(20.456522,0,0,20.456522,908.87169,32.849435)">
      <stop
         style="stop-color:#e7eb7d;stop-opacity:1"
         offset="0"
         id="stop2" />
      <stop
         style="stop-color:#67c972;stop-opacity:1"
         offset="1"
         id="stop4" />
    </linearGradient>
    <linearGradient
       inkscape:collect="always"
       xlink:href="#linearGradient1044"
       id="linearGradient902"
       x1="21.593189"
       y1="-9.2306614"
       x2="22.732056"
       y2="49.990437"
       gradientUnits="userSpaceOnUse"
       gradientTransform="matrix(17.561309,0,0,17.561309,160.79534,166.10249)" />
    <radialGradient
       inkscape:collect="always"
       xlink:href="#linearGradient4657"
       id="radialGradient6921"
       cx="100"
       cy="82.38073"
       fx="100"
       fy="82.38073"
       r="100"
       gradientUnits="userSpaceOnUse"
       gradientTransform="matrix(4.705,0,0,3.533613,41.000033,118.41878)" />
    <linearGradient
       id="linearGradient4657">
      <stop
         id="stop4653"
         offset="0"
         style="stop-color:#00fe40;stop-opacity:1" />
      <stop
         id="stop4655"
         offset="1"
         style="stop-color:#ffffff;stop-opacity:0;" />
    </linearGradient>
    <filter
       inkscape:collect="always"
       style="color-interpolation-filters:sRGB"
       id="filter1112"
       x="-0.036055844"
       width="1.0721117"
       y="-0.035944329"
       height="1.0718887">
      <feGaussianBlur
         inkscape:collect="always"
         stdDeviation="8.4163929"
         id="feGaussianBlur1114" />
    </filter>
    <linearGradient
       inkscape:collect="always"
       xlink:href="#linearGradient856"
       id="linearGradient858"
       x1="520.31714"
       y1="-198.58055"
       x2="520.31714"
       y2="1825.498"
       gradientUnits="userSpaceOnUse" />
  </defs>
  <g
     id="shadow"
     transform="matrix(0.99609375,0,0,0.99609375,2,2)">
    <g
       id="shape">
      <path
         id="path"
         d="m 986.739,315.98644 q -9.3288,-22.61695 -21.0441,-44.31186 c -4.3932,-8.18983 -9.0576,-16.32543 -13.9932,-24.29831 C 930.49492,212.98983 904.62373,180.50169 874.08814,149.9661 774.12881,50.00678 653.39661,0 512,0 370.60339,0 249.92542,50.00678 149.9661,149.9661 50.00678,249.92542 0,370.60339 0,512 0,653.39661 50.00678,774.12881 149.9661,874.08814 249.92542,974.04746 370.60339,1024 512,1024 653.39661,1024 774.12881,974.04746 874.08814,874.08814 929.13898,818.98305 969.0576,757.58644 993.7898,689.95254 1013.9119,634.79322 1024,575.51186 1024,512 c 0,-48.70508 -5.9119,-94.96949 -17.7898,-138.79322 -1.356,-4.93559 -2.7661,-9.87119 -4.2305,-14.75254 -4.4475,-14.42712 -9.5458,-28.58305 -15.2407,-42.4678 z"
         style="fill:url(#linearGradient843);fill-opacity:1;stroke-width:1.08474576"
         inkscape:connector-curvature="0" />
    </g>
  </g>
  <g
     id="g942"
     style="opacity:1;fill:url(#linearGradient858);fill-opacity:1"
     transform="matrix(0.99798494,0,0,0.99798494,0.73131,2.180401)">
    <g
       id="g940"
       style="fill:url(#linearGradient858);fill-opacity:1">
      <path
         id="path938"
         d="m 983.25,511.35 c 0,-7.95 -0.2,-15.85 -0.5,-23.55 Q 974.75,307.65 845.2,177.95 C 753.15,85.95 642,39.9 511.8,39.9 c -130.15,0 -241.35,46.05 -333.35,138.05 -92.05,92 -138.1,203.2 -138.1,333.4 0,130.15 46.05,241.35 138.1,333.35 86.15,86.3 189.35,132.15 309.15,137.6 8,0.3 16,0.5 24.2,0.5 130.2,0 241.35,-46.1 333.4,-138.1 92,-92 138.05,-203.2 138.05,-333.35 z"
         style="fill:url(#linearGradient858);fill-opacity:1"
         inkscape:connector-curvature="0" />
    </g>
  </g>
  <circle
     style="color:#000000;display:inline;overflow:visible;visibility:visible;opacity:0.2;fill:url(#radialGradient6921);fill-opacity:1;fill-rule:nonzero;stroke:none;stroke-width:42.97708511;marker:none;enable-background:accumulate"
     id="path4188-6-4"
     cx="511.5"
     cy="512.5"
     r="470.5" />
  <style
     id="style849"
     type="text/css">
                            .logo_white{fill:#FFFFFF;}
                            .logo_green{fill:#00E676;}
                        </style>
  <path
     id="path1090"
     d="m 358.00886,753.10858 10.53679,5.26839 c 43.90327,26.34197 93.07494,38.63488 142.2466,38.63488 v 0 c 154.53953,0 280.98095,-126.44142 280.98095,-280.98094 0,-73.7575 -29.85423,-145.75887 -82.53815,-198.4428 -52.68393,-52.68393 -122.92917,-82.53815 -198.4428,-82.53815 -154.53952,0 -280.98095,126.44142 -279.22481,282.73708 0,52.68392 15.80517,103.61172 42.14713,147.515 l 7.02453,10.53678 -28.09809,103.61172 z"
     class="logo_green"
     inkscape:connector-curvature="0"
     style="opacity:0.2;fill:#000000;fill-opacity:1;stroke-width:17.56130981;filter:url(#filter1112)" />
  <path
     style="fill:url(#linearGradient902);fill-opacity:1;stroke-width:17.56130981;opacity:0.99999999"
     inkscape:connector-curvature="0"
     class="logo_green"
     d="m 358.00886,743.10858 10.53679,5.26839 c 43.90327,26.34197 93.07494,38.63488 142.2466,38.63488 v 0 c 154.53953,0 280.98095,-126.44142 280.98095,-280.98094 0,-73.7575 -29.85423,-145.75887 -82.53815,-198.4428 -52.68393,-52.68393 -122.92917,-82.53815 -198.4428,-82.53815 -154.53952,0 -280.98095,126.44142 -279.22481,282.73708 0,52.68392 15.80517,103.61172 42.14713,147.515 l 7.02453,10.53678 -28.09809,103.61172 z"
     id="path851" />
  <circle
     style="opacity:1;fill:#00ad59;fill-opacity:1;stroke:none;stroke-width:2;stroke-miterlimit:4;stroke-dasharray:none;stroke-opacity:1"
     id="path860"
     cx="407.03799"
     cy="518.02533"
     r="40" />
  <circle
     r="40"
     cy="518.02533"
     cx="507.03796"
     id="circle862"
     style="opacity:1;fill:#00ad59;fill-opacity:1;stroke:none;stroke-width:2;stroke-miterlimit:4;stroke-dasharray:none;stroke-opacity:1" />
  <circle
     style="opacity:1;fill:#00ad59;fill-opacity:1;stroke:none;stroke-width:2;stroke-miterlimit:4;stroke-dasharray:none;stroke-opacity:1"
     id="circle864"
     cx="607.03796"
     cy="518.02533"
     r="40" />
</svg>
