<?xml version="1.0" encoding="UTF-8" standalone="no"?>
<!-- Generator: Adobe Illustrator 13.0.2, SVG Export Plug-In . SVG Version: 6.00 Build 14948)  -->

<svg
   xmlns:dc="http://purl.org/dc/elements/1.1/"
   xmlns:cc="http://creativecommons.org/ns#"
   xmlns:rdf="http://www.w3.org/1999/02/22-rdf-syntax-ns#"
   xmlns:svg="http://www.w3.org/2000/svg"
   xmlns="http://www.w3.org/2000/svg"
   xmlns:sodipodi="http://sodipodi.sourceforge.net/DTD/sodipodi-0.dtd"
   xmlns:inkscape="http://www.inkscape.org/namespaces/inkscape"
   version="1.0"
   id="Foreground"
   x="0px"
   y="0px"
   width="32"
   height="32"
   viewBox="0 0 32 32"
   enable-background="new 0 0 16 16"
   xml:space="preserve"
   sodipodi:version="0.32"
   inkscape:version="0.92.2 (5c3e80d, 2017-08-06)"
   sodipodi:docname="close-window-active.svg"
   inkscape:output_extension="org.inkscape.output.svg.inkscape"><metadata
     id="metadata2399"><rdf:RDF><cc:Work
         rdf:about=""><dc:format>image/svg+xml</dc:format><dc:type
           rdf:resource="http://purl.org/dc/dcmitype/StillImage" /><dc:title /></cc:Work></rdf:RDF></metadata><defs
     id="defs2397"><linearGradient
       id="linearGradient3173"><stop
         style="stop-color:#c4c4c4;stop-opacity:1;"
         offset="0"
         id="stop3175" /><stop
         style="stop-color:#ffffff;stop-opacity:1;"
         offset="1"
         id="stop3177" /></linearGradient><inkscape:perspective
       sodipodi:type="inkscape:persp3d"
       inkscape:vp_x="0 : 11 : 1"
       inkscape:vp_y="0 : 1375 : 0"
       inkscape:vp_z="22 : 11 : 1"
       inkscape:persp3d-origin="11 : 7.3333334 : 1"
       id="perspective2401" /></defs><sodipodi:namedview
     inkscape:window-height="1007"
     inkscape:window-width="1700"
     inkscape:pageshadow="2"
     inkscape:pageopacity="0"
     guidetolerance="10.0"
     gridtolerance="10.0"
     objecttolerance="10.0"
     borderopacity="1.0"
     bordercolor="#666666"
     pagecolor="#797979"
     id="base"
     showgrid="false"
     inkscape:zoom="25.3125"
     inkscape:cx="16"
     inkscape:cy="16"
     inkscape:window-x="220"
     inkscape:window-y="0"
     inkscape:current-layer="Foreground"
     showguides="true"
     inkscape:guide-bbox="true"
     borderlayer="true"
     inkscape:showpageshadow="false"
     inkscape:window-maximized="0"
     inkscape:document-rotation="0"><inkscape:grid
       type="xygrid"
       id="grid11246"
       empspacing="32"
       visible="true"
       enabled="true"
       snapvisiblegridlinesonly="true" /></sodipodi:namedview><path
     d="m 4.4362021,16 c 0,-6.410121 5.1728276,-11.60728 11.5529359,-11.60728 6.380109,0 11.552937,5.197159 11.552937,11.60728 0,6.410122 -5.172828,11.607281 -11.552937,11.607281 C 9.6090297,27.607281 4.4362021,22.410122 4.4362021,16 Z"
     id="path883"
     style="color:#000000;clip-rule:evenodd;display:inline;overflow:visible;visibility:visible;fill:#a5c8ec;fill-opacity:1;fill-rule:nonzero;stroke:#2975c4;stroke-width:4;stroke-linecap:butt;stroke-linejoin:miter;stroke-miterlimit:4;stroke-dasharray:none;stroke-dashoffset:0;stroke-opacity:1;marker:none;enable-background:accumulate"
     sodipodi:nodetypes="csssc"
     inkscape:connector-curvature="0" /><path
     d="m 11.718386,11.764547 h 1.055207 c 0.01091,-1.26e-4 0.02193,-4.86e-4 0.03298,0 0.269026,0.01183 0.538019,0.135679 0.725455,0.329752 l 2.407192,2.407192 2.440166,-2.407192 c 0.28029,-0.243226 0.471333,-0.322366 0.725455,-0.329752 h 1.055207 v 1.055208 c 0,0.302285 -0.03623,0.581049 -0.263801,0.791405 l -2.407191,2.407191 2.374217,2.374216 c 0.198577,0.198559 0.296768,0.478484 0.296775,0.758432 v 1.055206 h -1.055211 c -0.279947,-10e-6 -0.559877,-0.09824 -0.75843,-0.296777 l -2.407192,-2.407192 -2.407192,2.407192 c -0.198551,0.198579 -0.478493,0.296777 -0.758429,0.296777 H 11.71839 v -1.055206 c -3e-6,-0.279936 0.0982,-0.559873 0.296777,-0.758432 L 14.422359,16.018351 12.015167,13.61116 C 11.79279,13.405784 11.69527,13.116003 11.71839,12.819755 Z"
     inkscape:connector-curvature="0"
     id="path887"
     style="color:#bebebe;font-style:normal;font-variant:normal;font-weight:normal;font-stretch:normal;font-size:medium;line-height:normal;font-family:'Andale Mono';-inkscape-font-specification:'Andale Mono';text-indent:0;text-align:start;text-decoration:none;text-decoration-line:none;letter-spacing:normal;word-spacing:normal;text-transform:none;writing-mode:lr-tb;direction:ltr;text-anchor:start;display:inline;overflow:visible;visibility:visible;fill:#4a90d9;fill-opacity:1;fill-rule:nonzero;stroke:none;stroke-width:1.87958801;marker:none;enable-background:new"
     sodipodi:nodetypes="ccsccccccccccccccccccccccc" /><path
     style="fill:#333333;stroke-width:0.03950617"
     d="M 15.028148,29.566046 C 11.251873,29.232996 8.0110949,27.57727 5.6523024,24.775891 3.8561298,22.642697 2.7659547,20.033269 2.5057911,17.244444 2.4530645,16.67924 2.4540087,15.313734 2.5075259,14.735802 2.9608117,9.8407723 6.0485741,5.5375921 10.524444,3.5632312 c 3.734899,-1.6475093 7.982681,-1.5288818 11.595062,0.3238145 1.338565,0.6865148 2.358274,1.4267514 3.414117,2.4784054 2.154838,2.1462897 3.485521,4.8733869 3.901166,7.9950429 0.09617,0.722259 0.09617,2.556753 0,3.279012 -0.508046,3.815615 -2.382556,7.031984 -5.425533,9.309373 -1.797854,1.345528 -3.956251,2.21178 -6.336398,2.543053 -0.433016,0.06027 -2.230548,0.110641 -2.64471,0.07411 z m 2.212346,-4.031227 c 0.271605,-0.03301 0.763823,-0.128658 1.093818,-0.212552 3.477351,-0.884038 6.199886,-3.688144 6.979808,-7.188934 0.290049,-1.30193 0.304772,-2.822546 0.03976,-4.107243 C 24.842978,11.549318 23.341592,9.350304 21.191111,7.92906 20.677781,7.5898023 19.649841,7.0836879 19.097284,6.8981476 15.594921,5.7221076 11.836707,6.5928265 9.2499026,9.1796306 8.1679755,10.261558 7.3839538,11.533393 6.9085385,12.977778 c -0.8798226,2.673036 -0.5525598,5.592613 0.8967936,8.00048 1.4341962,2.382686 3.8602459,4.045454 6.5702079,4.503096 0.955647,0.161383 1.841044,0.177906 2.864954,0.05346 z"
     id="path13"
     inkscape:connector-curvature="0" /><path
     style="fill:#333333;stroke-width:0.03950617"
     d="m 11.749136,19.52707 c 0,-0.629907 0.0054,-0.678013 0.0974,-0.862573 0.07325,-0.147001 0.406946,-0.498082 1.34593,-1.416066 l 1.248528,-1.220606 -1.301474,-1.30774 c -1.329302,-1.335702 -1.372903,-1.388953 -1.394243,-1.702801 -0.0044,-0.06518 -0.0054,-0.371852 -0.0021,-0.681482 l 0.006,-0.562962 h 0.565669 c 0.927923,0 0.769384,-0.09852 2.308312,1.434437 l 1.313487,1.30839 0.661822,-0.650596 c 2.033793,-1.999298 1.981258,-1.951685 2.257839,-2.046295 0.0786,-0.02689 0.379613,-0.04594 0.725889,-0.04594 h 0.591598 l -0.01814,0.701234 c -0.01405,0.543259 -0.03337,0.736835 -0.08576,0.859259 -0.04713,0.110134 -0.450111,0.541312 -1.329693,1.422739 l -1.262067,1.264714 1.242904,1.242435 c 1.002548,1.002169 1.259834,1.280922 1.330446,1.441459 0.07542,0.171469 0.08991,0.287906 0.104662,0.840999 l 0.01712,0.641975 h -0.629699 c -0.953512,0 -0.785624,0.102832 -2.313474,-1.416997 l -1.29439,-1.287594 -1.273511,1.269449 c -0.700431,0.698198 -1.335733,1.302228 -1.411783,1.342289 -0.115352,0.06077 -0.251229,0.07504 -0.819753,0.08611 l -0.681481,0.01327 z"
     id="path15"
     inkscape:connector-curvature="0" /><path
     style="fill:#cccccc;stroke-width:0.03950617"
     d="m 15.383704,25.576666 c -1.78949,-0.154351 -3.242113,-0.6448 -4.612841,-1.557434 C 10.143639,23.601625 9.758271,23.284008 9.2314787,22.750485 8.7103367,22.222685 8.4514847,21.906372 8.055598,21.31358 6.1227337,18.419352 5.9249832,14.617367 7.5470319,11.535802 7.9932163,10.688143 8.5294481,9.9596939 9.2282521,9.2519345 10.445354,8.019235 11.97043,7.130938 13.576658,6.7191573 c 2.231078,-0.5719702 4.51098,-0.3472904 6.531173,0.643634 1.083378,0.5314073 1.769228,1.0211514 2.604268,1.8596253 1.494938,1.5010864 2.393892,3.2831734 2.711417,5.3751144 0.149236,0.983205 0.114758,2.287297 -0.0873,3.301949 -0.799755,4.016104 -4.117421,7.108879 -8.174739,7.620605 -0.36248,0.04572 -1.488307,0.08155 -1.777777,0.05658 z M 13.25037,20.113665 c 0.116418,-0.05984 0.610604,-0.522856 1.431801,-1.341498 l 1.254023,-1.250121 1.254619,1.251915 c 0.983085,0.980966 1.29737,1.271479 1.45215,1.342314 0.174865,0.08003 0.271702,0.09197 0.843933,0.104117 0.355521,0.0075 0.660028,-0.0012 0.676681,-0.01939 0.01665,-0.01821 0.01851,-0.335326 0.0041,-0.704709 -0.02091,-0.536971 -0.04108,-0.703283 -0.100643,-0.829629 -0.04748,-0.100722 -0.523135,-0.609581 -1.311701,-1.403272 L 17.518157,16.018147 18.7251,14.814012 c 0.663818,-0.662275 1.254086,-1.283384 1.311706,-1.380242 0.0998,-0.167764 0.106046,-0.21081 0.131816,-0.908642 0.01488,-0.402895 0.01238,-0.748067 -0.0055,-0.76705 -0.05845,-0.06188 -1.225453,-0.0064 -1.394027,0.06631 -0.217889,0.09394 -0.281941,0.149969 -1.153247,1.008743 -0.434567,0.428318 -0.990333,0.973045 -1.235034,1.210505 l -0.44491,0.431745 -1.293361,-1.286621 c -1.108662,-1.102885 -1.32157,-1.297264 -1.490892,-1.361146 -0.162552,-0.06133 -0.305967,-0.07453 -0.809877,-0.07453 h -0.612345 l -0.01115,0.671605 c -0.0091,0.549747 8.09e-4,0.703862 0.05477,0.849383 0.05371,0.144839 0.303045,0.416142 1.345699,1.464271 l 1.279773,1.286492 -1.245212,1.23273 c -0.747939,0.740441 -1.280818,1.299499 -1.334371,1.399927 -0.08113,0.152148 -0.09035,0.230673 -0.102466,0.872402 l -0.01331,0.705204 0.684739,-0.01503 c 0.621258,-0.01364 0.70122,-0.0235 0.862516,-0.106406 z"
     id="path17"
     inkscape:connector-curvature="0" /></svg>