<?xml version="1.0" encoding="UTF-8" standalone="no"?>
<!-- Generator: Adobe Illustrator 13.0.2, SVG Export Plug-In . SVG Version: 6.00 Build 14948)  -->

<svg
   xmlns:dc="http://purl.org/dc/elements/1.1/"
   xmlns:cc="http://creativecommons.org/ns#"
   xmlns:rdf="http://www.w3.org/1999/02/22-rdf-syntax-ns#"
   xmlns:svg="http://www.w3.org/2000/svg"
   xmlns="http://www.w3.org/2000/svg"
   xmlns:sodipodi="http://sodipodi.sourceforge.net/DTD/sodipodi-0.dtd"
   xmlns:inkscape="http://www.inkscape.org/namespaces/inkscape"
   version="1.0"
   id="Foreground"
   x="0px"
   y="0px"
   width="32"
   height="32"
   viewBox="0 0 32 32"
   enable-background="new 0 0 16 16"
   xml:space="preserve"
   sodipodi:version="0.32"
   inkscape:version="0.92.2 (5c3e80d, 2017-08-06)"
   sodipodi:docname="close-window.svg"
   inkscape:output_extension="org.inkscape.output.svg.inkscape"><metadata
     id="metadata2399"><rdf:RDF><cc:Work
         rdf:about=""><dc:format>image/svg+xml</dc:format><dc:type
           rdf:resource="http://purl.org/dc/dcmitype/StillImage" /><dc:title /></cc:Work></rdf:RDF></metadata><defs
     id="defs2397"><linearGradient
       id="linearGradient3173"><stop
         style="stop-color:#c4c4c4;stop-opacity:1;"
         offset="0"
         id="stop3175" /><stop
         style="stop-color:#ffffff;stop-opacity:1;"
         offset="1"
         id="stop3177" /></linearGradient><inkscape:perspective
       sodipodi:type="inkscape:persp3d"
       inkscape:vp_x="0 : 11 : 1"
       inkscape:vp_y="0 : 1375 : 0"
       inkscape:vp_z="22 : 11 : 1"
       inkscape:persp3d-origin="11 : 7.3333334 : 1"
       id="perspective2401" /></defs><sodipodi:namedview
     inkscape:window-height="1007"
     inkscape:window-width="1700"
     inkscape:pageshadow="2"
     inkscape:pageopacity="0"
     guidetolerance="10.0"
     gridtolerance="10.0"
     objecttolerance="10.0"
     borderopacity="1.0"
     bordercolor="#666666"
     pagecolor="#797979"
     id="base"
     showgrid="false"
     inkscape:zoom="25.3125"
     inkscape:cx="16"
     inkscape:cy="16"
     inkscape:window-x="220"
     inkscape:window-y="0"
     inkscape:current-layer="Foreground"
     showguides="true"
     inkscape:guide-bbox="true"
     borderlayer="true"
     inkscape:showpageshadow="false"
     inkscape:window-maximized="0"
     inkscape:document-rotation="0"><inkscape:grid
       type="xygrid"
       id="grid11246"
       empspacing="32"
       visible="true"
       enabled="true"
       snapvisiblegridlinesonly="true" /></sodipodi:namedview><path
     d="m 4.4362021,15.860384 c 0,-6.410121 5.1728276,-11.60728 11.5529359,-11.60728 6.380109,0 11.552937,5.197159 11.552937,11.60728 0,6.410122 -5.172828,11.607281 -11.552937,11.607281 -6.3801083,0 -11.5529359,-5.197159 -11.5529359,-11.607281 z"
     id="path2394-32"
     style="color:#000000;clip-rule:evenodd;display:inline;overflow:visible;visibility:visible;fill:#ffffff;fill-opacity:1;fill-rule:nonzero;stroke:#2975c4;stroke-width:4;stroke-linecap:butt;stroke-linejoin:miter;stroke-miterlimit:4;stroke-dasharray:none;stroke-dashoffset:0;stroke-opacity:1;marker:none;enable-background:accumulate"
     sodipodi:nodetypes="csssc"
     inkscape:connector-curvature="0" /><path
     style="color:#000000;display:inline;overflow:visible;visibility:visible;opacity:0.49900004;fill:#4a90d9;fill-opacity:1;fill-rule:nonzero;stroke:none;stroke-width:1.74932218;stroke-linecap:butt;stroke-linejoin:miter;stroke-miterlimit:4;stroke-dasharray:none;stroke-dashoffset:0;stroke-opacity:1;marker:none;enable-background:accumulate"
     d="m 6.4654832,15.001321 c -0.025906,0.288419 -0.044417,0.579469 -0.044417,0.874662 0,5.313347 4.2883848,9.621271 9.5768588,9.621271 5.288466,0 9.575143,-4.307924 9.575143,-9.621271 0,-0.295193 -0.01852,-0.586243 -0.04441,-0.874662 -0.440376,4.903023 -4.536071,8.746611 -9.53073,8.746611 -4.994659,0 -9.0920617,-3.843588 -9.5324391,-8.746611 z"
     id="path2561"
     inkscape:connector-curvature="0" /><path
     d="m 11.718386,11.639547 h 1.055207 c 0.01091,-1.26e-4 0.02193,-4.86e-4 0.03298,0 0.269026,0.01183 0.538019,0.135679 0.725455,0.329752 l 2.407192,2.407192 2.440166,-2.407192 c 0.28029,-0.243226 0.471333,-0.322366 0.725455,-0.329752 h 1.055207 v 1.055208 c 0,0.302285 -0.03623,0.581049 -0.263801,0.791405 l -2.407191,2.407191 2.374217,2.374216 c 0.198577,0.198559 0.296768,0.478484 0.296775,0.758432 v 1.055206 h -1.055211 c -0.279947,-10e-6 -0.559877,-0.09824 -0.75843,-0.296777 l -2.407192,-2.407192 -2.407192,2.407192 c -0.198551,0.198579 -0.478493,0.296777 -0.758429,0.296777 H 11.71839 v -1.055206 c -3e-6,-0.279936 0.0982,-0.559873 0.296777,-0.758432 L 14.422359,15.893351 12.015167,13.48616 C 11.79279,13.280784 11.69527,12.991003 11.71839,12.694755 Z"
     inkscape:connector-curvature="0"
     id="path27279-0-5"
     style="color:#bebebe;font-style:normal;font-variant:normal;font-weight:normal;font-stretch:normal;font-size:medium;line-height:normal;font-family:'Andale Mono';-inkscape-font-specification:'Andale Mono';text-indent:0;text-align:start;text-decoration:none;text-decoration-line:none;letter-spacing:normal;word-spacing:normal;text-transform:none;writing-mode:lr-tb;direction:ltr;text-anchor:start;display:inline;overflow:visible;visibility:visible;fill:#4a90d9;fill-opacity:1;fill-rule:nonzero;stroke:none;stroke-width:1.87958801;marker:none;enable-background:new"
     sodipodi:nodetypes="ccsccccccccccccccccccccccc" /><path
     style="stroke-width:0.03950617;fill:#333333"
     d="M 15.245432,29.42983 C 12.444227,29.279902 9.76032,28.254385 7.5417284,26.486257 6.9612184,26.023614 5.8082913,24.859275 5.3732307,24.296296 3.7374893,22.179607 2.7990176,19.868792 2.5244955,17.281809 c -0.075619,-0.712601 -0.075619,-2.12756 0,-2.840161 C 2.8659859,11.223583 4.2505514,8.3762698 6.5793426,6.1029891 8.7899674,3.9450582 11.502717,2.6793347 14.672593,2.3268142 c 0.534048,-0.059391 2.066724,-0.059676 2.62716,-4.875e-4 3.252584,0.3435089 6.195768,1.7716098 8.420535,4.085838 2.100382,2.1848423 3.368909,4.8981863 3.734426,7.9878353 0.06735,0.569274 0.06727,2.355122 -1.19e-4,2.923457 -0.322996,2.723827 -1.359751,5.177302 -3.057082,7.23457 -0.440456,0.533859 -1.382196,1.464325 -1.907634,1.884796 -1.934801,1.548286 -4.161848,2.520601 -6.575967,2.871028 -0.47268,0.06861 -1.839468,0.168685 -2.056132,0.150544 -0.03259,-0.0027 -0.308148,-0.01828 -0.612346,-0.03457 z m 2.17284,-4.046391 c 3.324858,-0.512485 6.154884,-2.742357 7.421483,-5.847637 1.234012,-3.025386 0.857681,-6.497348 -0.993454,-9.165432 C 22.496619,8.4250426 20.504515,7.0545967 18.228148,6.505425 17.394421,6.3042888 17.012338,6.2627872 15.996049,6.2629772 14.929339,6.2631747 14.503265,6.3126404 13.621427,6.5386524 12.672126,6.7819548 11.69497,7.2042323 10.882551,7.7222566 8.9350748,8.9640296 7.4495834,10.935362 6.8165681,13.11805 c -0.2792304,0.962809 -0.3792877,1.68707 -0.3790412,2.743678 3.556e-4,1.586114 0.287957,2.848279 0.9631668,4.227161 1.0564196,2.157371 2.8092943,3.801699 5.0096343,4.699413 0.770088,0.314187 1.743261,0.559926 2.578314,0.651058 0.505928,0.05521 1.919731,0.02267 2.42963,-0.05592 z"
     id="path3703"
     inkscape:connector-curvature="0" /><path
     style="fill:#333333;stroke-width:0.03950617"
     d="m 11.755764,19.371283 c 0.01272,-0.6826 0.01644,-0.710171 0.119116,-0.882394 0.05841,-0.09797 0.658198,-0.716868 1.336063,-1.378632 l 1.230073,-1.200854 -1.26449,-1.2684 c -0.926797,-0.929662 -1.286011,-1.315845 -1.345073,-1.446059 -0.07099,-0.156511 -0.08068,-0.258787 -0.08145,-0.859142 l -8.67e-4,-0.681481 h 0.565669 c 0.927812,0 0.769736,-0.09817 2.305838,1.43197 l 1.311013,1.305924 1.338061,-1.303345 c 1.567708,-1.527034 1.420142,-1.434549 2.288926,-1.434549 h 0.565801 v 0.676898 c 0,0.406978 -0.01879,0.74174 -0.04712,0.839506 -0.03941,0.135998 -0.255816,0.372929 -1.322415,1.447839 l -1.275293,1.285231 1.224596,1.223411 c 0.893728,0.892863 1.251026,1.276209 1.322416,1.418822 0.09251,0.184811 0.09782,0.231606 0.09782,0.862589 v 0.667179 l -0.661728,-0.01356 c -0.602503,-0.01235 -0.677639,-0.02186 -0.839506,-0.106227 -0.11436,-0.05961 -0.625335,-0.538454 -1.432397,-1.342324 l -1.254619,-1.24966 -1.254023,1.250121 c -0.812675,0.810146 -1.316591,1.282571 -1.431801,1.342324 -0.161621,0.08382 -0.23821,0.09344 -0.842754,0.105819 l -0.664977,0.01362 z"
     id="path3705"
     inkscape:connector-curvature="0" /><path
     style="fill:#b3b3b3;stroke-width:0.03950617"
     d="M 15.10716,25.417719 C 13.798115,25.259292 12.854452,24.989544 11.805608,24.473963 8.9888991,23.089352 7.0514259,20.437196 6.5531042,17.283951 6.5142971,17.03839 6.4852598,16.545037 6.4763722,15.980247 c -0.00786,-0.499753 -0.00705,-0.84642 0.00181,-0.77037 0.1718986,1.475171 0.6650447,2.871479 1.4510838,4.108642 0.4999467,0.786875 1.3275136,1.711503 2.0618411,2.303663 1.4366519,1.158513 3.1997389,1.889237 5.0283969,2.084057 0.943769,0.100546 2.363028,0.0042 3.262678,-0.2216 1.283532,-0.322078 2.715705,-1.035957 3.72437,-1.856443 0.408051,-0.331925 1.090267,-1.018603 1.431242,-1.440603 1.025296,-1.268936 1.720286,-2.800586 1.996773,-4.400578 0.03339,-0.193191 0.07004,-0.360599 0.08146,-0.372017 0.03493,-0.03493 0.02312,0.663003 -0.02026,1.197156 -0.187295,2.306521 -1.162212,4.424189 -2.783084,6.045282 -1.186711,1.186872 -2.695724,2.06117 -4.265091,2.471124 -0.851696,0.222482 -1.306745,0.280785 -2.293525,0.293856 -0.499753,0.0066 -0.970864,0.0045 -1.046914,-0.0047 z"
     id="path3707"
     inkscape:connector-curvature="0" /></svg>