<?xml version="1.0" encoding="UTF-8" standalone="no"?>
<!-- Generator: Adobe Illustrator 13.0.2, SVG Export Plug-In . SVG Version: 6.00 Build 14948)  -->

<svg
   xmlns:dc="http://purl.org/dc/elements/1.1/"
   xmlns:cc="http://creativecommons.org/ns#"
   xmlns:rdf="http://www.w3.org/1999/02/22-rdf-syntax-ns#"
   xmlns:svg="http://www.w3.org/2000/svg"
   xmlns="http://www.w3.org/2000/svg"
   xmlns:sodipodi="http://sodipodi.sourceforge.net/DTD/sodipodi-0.dtd"
   xmlns:inkscape="http://www.inkscape.org/namespaces/inkscape"
   version="1.0"
   id="Foreground"
   x="0px"
   y="0px"
   width="32"
   height="32"
   viewBox="0 0 32 32"
   enable-background="new 0 0 16 16"
   xml:space="preserve"
   sodipodi:version="0.32"
   inkscape:version="0.92.2 (5c3e80d, 2017-08-06)"
   sodipodi:docname="close-window-hover.svg"
   inkscape:output_extension="org.inkscape.output.svg.inkscape"><metadata
     id="metadata2399"><rdf:RDF><cc:Work
         rdf:about=""><dc:format>image/svg+xml</dc:format><dc:type
           rdf:resource="http://purl.org/dc/dcmitype/StillImage" /><dc:title /></cc:Work></rdf:RDF></metadata><defs
     id="defs2397"><linearGradient
       id="linearGradient3173"><stop
         style="stop-color:#c4c4c4;stop-opacity:1;"
         offset="0"
         id="stop3175" /><stop
         style="stop-color:#ffffff;stop-opacity:1;"
         offset="1"
         id="stop3177" /></linearGradient><inkscape:perspective
       sodipodi:type="inkscape:persp3d"
       inkscape:vp_x="0 : 11 : 1"
       inkscape:vp_y="0 : 1375 : 0"
       inkscape:vp_z="22 : 11 : 1"
       inkscape:persp3d-origin="11 : 7.3333334 : 1"
       id="perspective2401" /></defs><sodipodi:namedview
     inkscape:window-height="1007"
     inkscape:window-width="1700"
     inkscape:pageshadow="2"
     inkscape:pageopacity="0"
     guidetolerance="10.0"
     gridtolerance="10.0"
     objecttolerance="10.0"
     borderopacity="1.0"
     bordercolor="#666666"
     pagecolor="#797979"
     id="base"
     showgrid="false"
     inkscape:zoom="25.3125"
     inkscape:cx="16"
     inkscape:cy="16"
     inkscape:window-x="220"
     inkscape:window-y="0"
     inkscape:current-layer="Foreground"
     showguides="true"
     inkscape:guide-bbox="true"
     borderlayer="true"
     inkscape:showpageshadow="false"
     inkscape:window-maximized="0"
     inkscape:document-rotation="0"><inkscape:grid
       type="xygrid"
       id="grid11246"
       empspacing="32"
       visible="true"
       enabled="true"
       snapvisiblegridlinesonly="true" /></sodipodi:namedview><path
     inkscape:connector-curvature="0"
     sodipodi:nodetypes="csssc"
     style="color:#000000;clip-rule:evenodd;display:inline;overflow:visible;visibility:visible;fill:#2975c4;fill-opacity:1;fill-rule:nonzero;stroke:#ffffff;stroke-width:4;stroke-linecap:butt;stroke-linejoin:miter;stroke-miterlimit:4;stroke-dasharray:none;stroke-dashoffset:0;stroke-opacity:1;marker:none;enable-background:accumulate"
     id="path822"
     d="m 4.4362021,16 c 0,-6.410121 5.1728276,-11.60728 11.5529359,-11.60728 6.380109,0 11.552937,5.197159 11.552937,11.60728 0,6.410122 -5.172828,11.607281 -11.552937,11.607281 C 9.6090297,27.607281 4.4362021,22.410122 4.4362021,16 Z" /><path
     sodipodi:nodetypes="ccsccccccccccccccccccccccc"
     style="color:#bebebe;font-style:normal;font-variant:normal;font-weight:normal;font-stretch:normal;font-size:medium;line-height:normal;font-family:'Andale Mono';-inkscape-font-specification:'Andale Mono';text-indent:0;text-align:start;text-decoration:none;text-decoration-line:none;letter-spacing:normal;word-spacing:normal;text-transform:none;writing-mode:lr-tb;direction:ltr;text-anchor:start;display:inline;overflow:visible;visibility:visible;fill:#ffffff;fill-opacity:1;fill-rule:nonzero;stroke:none;stroke-width:1.87958801;marker:none;enable-background:new"
     id="path826"
     inkscape:connector-curvature="0"
     d="m 11.718386,11.764547 h 1.055207 c 0.01091,-1.26e-4 0.02193,-4.86e-4 0.03298,0 0.269026,0.01183 0.538019,0.135679 0.725455,0.329752 l 2.407192,2.407192 2.440166,-2.407192 c 0.28029,-0.243226 0.471333,-0.322366 0.725455,-0.329752 h 1.055207 v 1.055208 c 0,0.302285 -0.03623,0.581049 -0.263801,0.791405 l -2.407191,2.407191 2.374217,2.374216 c 0.198577,0.198559 0.296768,0.478484 0.296775,0.758432 v 1.055206 h -1.055211 c -0.279947,-10e-6 -0.559877,-0.09824 -0.75843,-0.296777 l -2.407192,-2.407192 -2.407192,2.407192 c -0.198551,0.198579 -0.478493,0.296777 -0.758429,0.296777 H 11.71839 v -1.055206 c -3e-6,-0.279936 0.0982,-0.559873 0.296777,-0.758432 L 14.422359,16.018351 12.015167,13.61116 C 11.79279,13.405784 11.69527,13.116003 11.71839,12.819755 Z" /><path
     style="fill:#333333;stroke-width:0.03950617"
     d="M 15.186173,25.559435 C 12.839733,25.337551 10.800342,24.360038 9.1610346,22.67149 7.3259776,20.781313 6.3777254,18.320548 6.4683971,15.683951 6.5188782,14.216036 6.8402123,12.94476 7.4807153,11.678974 7.9829284,10.686481 8.5549775,9.9127367 9.3843066,9.1042068 10.89916,7.6273453 12.719529,6.7541228 14.870123,6.4726868 c 0.552552,-0.072309 1.81706,-0.061285 2.390124,0.020837 1.721092,0.246639 3.201801,0.8750945 4.602469,1.9534202 0.460178,0.3542748 1.342099,1.2491946 1.693438,1.718396 1.026327,1.370627 1.652281,2.890692 1.889672,4.58887 0.0815,0.583049 0.0815,1.908531 0,2.49158 -0.551475,3.944989 -3.348876,7.096926 -7.15533,8.062176 -0.882724,0.223843 -2.236641,0.333519 -3.104323,0.251469 z m -2.051615,-5.395311 c 0.203199,-0.05969 0.28319,-0.131375 1.508405,-1.351734 l 1.293827,-1.288698 1.293827,1.285662 c 1.526944,1.517309 1.363518,1.417806 2.328662,1.417806 h 0.610947 l -0.01301,-0.720987 c -0.01265,-0.700716 -0.016,-0.725987 -0.119092,-0.898766 -0.05834,-0.09778 -0.649211,-0.719647 -1.31304,-1.381932 l -1.206961,-1.204154 1.276563,-1.284735 c 1.072881,-1.079748 1.283959,-1.310679 1.322916,-1.447342 0.02761,-0.09686 0.04635,-0.445909 0.04635,-0.86332 v -0.700711 l -0.641976,0.01394 c -0.629789,0.01367 -0.645869,0.01619 -0.847104,0.132455 -0.12654,0.07311 -0.691437,0.594097 -1.474479,1.359862 l -1.26935,1.241343 -1.2712,-1.269545 c -1.007112,-1.005801 -1.312237,-1.288038 -1.468731,-1.358559 -0.172677,-0.07781 -0.278307,-0.09093 -0.839506,-0.104253 l -0.641975,-0.01524 8.69e-4,0.705295 c 7.66e-4,0.623005 0.01023,0.726036 0.08109,0.883072 0.05909,0.130938 0.413327,0.511638 1.344478,1.444914 l 1.264251,1.267136 -1.281628,1.261259 c -1.515052,1.490971 -1.409065,1.318312 -1.409065,2.295457 v 0.644814 h 0.605175 c 0.438056,0 0.664431,-0.01741 0.819753,-0.06304 z"
     id="path13"
     inkscape:connector-curvature="0" /></svg>